<?xml version="1.0" encoding="UTF-8"?>
<svg id="Layer_1" xmlns="http://www.w3.org/2000/svg" version="1.1" viewBox="0 0 238.45 36">
  <!-- Generator: Adobe Illustrator 30.0.0, SVG Export Plug-In . SVG Version: 2.1.1 Build 123)  -->
  <defs>
    <style>
      .st0 {
        fill: #fff;
      }
    </style>
  </defs>
  <rect class="st0" x="133.83" y="7.55" width=".5" height="24.58"/>
  <g>
    <polygon class="st0" points="141.97 12.05 141.97 7.51 142.83 7.51 142.83 9.32 144.58 9.32 144.58 7.51 145.44 7.51 145.44 12.05 144.58 12.05 144.58 10.1 142.83 10.1 142.83 12.05 141.97 12.05"/>
    <polygon class="st0" points="159.72 12.05 159.72 7.51 160.59 7.51 160.59 9.54 160.57 9.54 162.1 7.51 163.1 7.51 161.81 9.21 163.3 12.05 162.34 12.05 161.22 9.89 160.59 10.68 160.59 12.05 159.72 12.05"/>
    <path class="st0" d="M178.07,10.35h1.05l-.51-1.97h-.01l-.53,1.97ZM178.06,7.51h1.08l1.29,4.54h-.86l-.25-.98h-1.43l-.27.98h-.86l1.31-4.54Z"/>
    <rect class="st0" x="188.92" y="7.51" width=".78" height="4.53"/>
    <path class="st0" d="M191.76,12.05h-.78v-3.26h.78v3.26ZM190.98,7.45h.78v.73h-.78v-.73Z"/>
    <path class="st0" d="M210.91,12.05h-.78v-3.26h.78v3.26ZM210.13,7.45h.78v.73h-.78v-.73Z"/>
    <polygon class="st0" points="144.8 15.02 144.8 15.75 143.62 15.75 143.62 19.56 142.75 19.56 142.75 15.75 141.56 15.75 141.56 15.02 144.8 15.02"/>
    <rect class="st0" x="163.24" y="15.03" width=".78" height="4.53"/>
    <rect class="st0" x="207.52" y="15.03" width=".87" height="4.53"/>
    <path class="st0" d="M219.89,19.56h-.78v-3.26h.78v3.26ZM219.11,14.96h.78v.73h-.78v-.73Z"/>
    <path class="st0" d="M147.86,9.35c-.43,0-.64.34-.64,1.07s.21,1.07.64,1.07.64-.34.64-1.07-.21-1.07-.64-1.07M147.86,8.72c.89,0,1.42.66,1.42,1.7s-.53,1.7-1.42,1.7-1.42-.66-1.42-1.7.53-1.7,1.42-1.7"/>
    <path class="st0" d="M150.14,12.05v-3.26h.72v.35c.29-.2.62-.41,1-.41.65,0,.97.43.97,1.09v2.23h-.78v-2.12c0-.44-.14-.58-.4-.58-.34,0-.6.19-.73.35v2.35h-.78Z"/>
    <path class="st0" d="M155.03,9.3c-.33,0-.56.24-.56.54s.23.54.56.54c.29,0,.53-.24.53-.54s-.24-.54-.53-.54M154.34,12.36c0,.25.21.36.87.36.5,0,.67-.25.67-.36,0-.15-.23-.38-.99-.38-.43,0-.55.24-.55.38M156.61,9.25c-.18,0-.38,0-.5.08.1.14.18.33.18.58,0,.62-.41,1.05-1.23,1.05-.34,0-.61.01-.61.2,0,.53,2.15-.19,2.15,1.12,0,.46-.47.97-1.51.97-.88,0-1.46-.26-1.46-.78,0-.41.31-.6.59-.6h0c-.15-.11-.48-.19-.48-.54,0-.31.36-.55.51-.6-.27-.22-.48-.47-.48-.87,0-.57.44-1.14,1.29-1.14.28,0,.6.11.8.29.15-.2.4-.3.77-.29v.53Z"/>
    <path class="st0" d="M165.3,9.35c-.43,0-.64.34-.64,1.07s.21,1.07.64,1.07.64-.34.64-1.07-.21-1.07-.64-1.07M165.3,8.72c.89,0,1.42.66,1.42,1.7s-.53,1.7-1.42,1.7-1.42-.66-1.42-1.7.53-1.7,1.42-1.7"/>
    <path class="st0" d="M167.59,12.05v-3.26h.72v.35c.29-.2.62-.41,1-.41.65,0,.97.43.97,1.09v2.23h-.78v-2.12c0-.44-.14-.58-.4-.58-.34,0-.6.19-.73.35v2.35h-.78Z"/>
    <path class="st0" d="M172.48,9.3c-.33,0-.56.24-.56.54s.23.54.56.54c.3,0,.53-.24.53-.54s-.24-.54-.53-.54M171.78,12.36c0,.25.21.36.87.36.5,0,.67-.25.67-.36,0-.15-.23-.38-.99-.38-.43,0-.55.24-.55.38M174.05,9.25c-.18,0-.38,0-.5.08.1.14.18.33.18.58,0,.62-.41,1.05-1.23,1.05-.34,0-.61.01-.61.2,0,.53,2.15-.19,2.15,1.12,0,.46-.47.97-1.51.97-.88,0-1.46-.26-1.46-.78,0-.41.31-.6.59-.6h0c-.15-.11-.48-.19-.48-.54,0-.31.36-.55.51-.6-.27-.22-.48-.47-.48-.87,0-.57.44-1.14,1.29-1.14.28,0,.6.11.8.29.15-.2.4-.3.77-.29v.53Z"/>
    <path class="st0" d="M194.74,10.01c-.01-.45-.25-.72-.63-.72s-.62.26-.63.72h1.26ZM193.48,10.54c.01.68.31.94.68.94s.53-.16.73-.39l.56.35c-.3.46-.74.67-1.37.67-.85,0-1.38-.66-1.38-1.69s.53-1.7,1.42-1.7c.85,0,1.33.72,1.33,1.5v.32h-1.97Z"/>
    <path class="st0" d="M198.32,9.62c-.16-.14-.35-.28-.6-.28-.46,0-.73.38-.73,1.07s.26,1.07.73,1.07c.33,0,.44-.16.6-.29v-1.57ZM199.1,12.05h-.66l-.04-.35c-.28.27-.53.41-.89.41-.87,0-1.31-.77-1.31-1.78,0-.8.46-1.61,1.31-1.61.26,0,.63.16.79.36h.01v-1.57h.78v4.53Z"/>
    <path class="st0" d="M204.67,8.72c-.13-.35-.4-.59-.81-.59-.38,0-.65.15-.65.5,0,.78,2.34.62,2.34,2.08,0,.93-.58,1.39-1.59,1.39-.74,0-1.44-.41-1.7-1.07l.72-.31c.21.43.48.71.99.71.43,0,.77-.16.77-.6,0-.89-2.34-.72-2.34-2.11,0-.81.68-1.27,1.46-1.27.73,0,1.33.36,1.6,1.02l-.79.25Z"/>
    <path class="st0" d="M208.4,9.84c-.12-.28-.26-.5-.64-.5-.43,0-.64.34-.64,1.07s.21,1.07.67,1.07c.34,0,.53-.23.69-.52l.59.33c-.31.58-.71.82-1.31.82-.89,0-1.42-.66-1.42-1.7s.53-1.7,1.42-1.7c.62,0,1.1.33,1.29.87l-.65.25Z"/>
    <path class="st0" d="M182,11.2c.16.14.35.28.6.28.46,0,.73-.38.73-1.07s-.26-1.07-.73-1.07c-.33,0-.44.16-.6.29v1.57ZM181.23,8.78h.75v.3c.23-.22.48-.36.84-.36.87,0,1.31.77,1.31,1.78,0,.8-.46,1.61-1.31,1.61-.26,0-.63-.16-.79-.36h-.01v1.49h-.78v-4.46Z"/>
    <path class="st0" d="M185.81,11.2c.16.14.35.28.6.28.46,0,.73-.38.73-1.07s-.26-1.07-.73-1.07c-.33,0-.44.16-.6.29v1.57ZM185.03,8.78h.75v.3c.23-.22.48-.36.84-.36.87,0,1.31.77,1.31,1.78,0,.8-.46,1.61-1.31,1.61-.26,0-.63-.16-.79-.36h-.01v1.49h-.78v-4.46Z"/>
    <path class="st0" d="M213.89,10.01c-.01-.45-.25-.72-.63-.72s-.62.26-.63.72h1.26ZM212.64,10.54c.01.68.31.94.68.94s.53-.16.73-.39l.56.35c-.3.46-.74.67-1.37.67-.85,0-1.38-.66-1.38-1.69s.53-1.7,1.42-1.7c.85,0,1.33.72,1.33,1.5v.32h-1.97Z"/>
    <path class="st0" d="M215.56,12.05v-3.26h.72v.35c.29-.2.62-.41,1-.41.65,0,.97.43.97,1.09v2.23h-.78v-2.12c0-.44-.14-.58-.4-.58-.34,0-.6.19-.73.35v2.35h-.78Z"/>
    <path class="st0" d="M221.18,9.84c-.13-.28-.26-.5-.64-.5-.43,0-.64.34-.64,1.07s.21,1.07.67,1.07c.34,0,.53-.23.69-.52l.59.33c-.31.58-.71.82-1.31.82-.88,0-1.42-.66-1.42-1.7s.53-1.7,1.42-1.7c.62,0,1.11.33,1.29.87l-.65.25Z"/>
    <path class="st0" d="M224.6,10.01c-.01-.45-.25-.72-.63-.72s-.62.26-.63.72h1.26ZM223.35,10.54c.01.68.31.94.68.94s.53-.16.73-.39l.56.35c-.3.46-.74.67-1.37.67-.85,0-1.38-.66-1.38-1.69s.53-1.7,1.42-1.7c.85,0,1.33.72,1.33,1.5v.32h-1.97Z"/>
    <path class="st0" d="M230.09,10.48c-.52.1-1.09.21-1.09.67,0,.25.16.38.38.38.25,0,.55-.21.72-.35v-.7ZM230.17,12.05l-.05-.28c-.31.21-.61.35-1.02.35-.59,0-.89-.42-.89-.87,0-.74.6-1.13,1.87-1.28v-.28c0-.25-.2-.39-.48-.39-.36,0-.56.19-.72.4l-.5-.38c.2-.35.74-.61,1.22-.6.88.02,1.26.34,1.26,1.32v1.54c0,.16.01.33.06.47h-.76Z"/>
    <path class="st0" d="M231.96,12.05v-3.26h.72v.35c.29-.2.62-.41,1-.41.65,0,.97.43.97,1.09v2.23h-.78v-2.12c0-.44-.14-.58-.4-.58-.34,0-.6.19-.73.35v2.35h-.78Z"/>
    <path class="st0" d="M237.67,9.62c-.16-.14-.35-.28-.6-.28-.47,0-.73.38-.73,1.07s.26,1.07.73,1.07c.33,0,.44-.16.6-.29v-1.57ZM238.45,12.05h-.66l-.04-.35c-.28.27-.53.41-.89.41-.87,0-1.31-.77-1.31-1.78,0-.8.46-1.61,1.31-1.61.26,0,.63.16.79.36h.01v-1.57h.78v4.53Z"/>
    <path class="st0" d="M146.96,17.53c-.01-.45-.25-.72-.63-.72s-.62.26-.63.72h1.26ZM145.71,18.05c.01.68.31.94.68.94s.53-.16.73-.39l.56.35c-.3.46-.74.67-1.37.67-.85,0-1.38-.66-1.38-1.7s.53-1.7,1.42-1.7c.85,0,1.33.72,1.33,1.5v.32h-1.97Z"/>
    <path class="st0" d="M150.44,17.36c-.13-.28-.26-.5-.64-.5-.43,0-.64.34-.64,1.07s.21,1.07.66,1.07c.34,0,.53-.23.69-.52l.59.33c-.31.58-.71.82-1.31.82-.89,0-1.42-.66-1.42-1.7s.53-1.7,1.42-1.7c.62,0,1.1.33,1.29.87l-.65.25Z"/>
    <path class="st0" d="M152.09,19.56v-4.53h.78v1.62c.24-.2.56-.41.94-.41.65,0,.97.43.97,1.09v2.23h-.78v-2.12c0-.44-.14-.58-.4-.58-.34,0-.6.19-.73.34v2.35h-.78Z"/>
    <path class="st0" d="M155.9,19.56v-3.26h.72v.35c.29-.2.62-.41,1-.41.65,0,.97.43.97,1.09v2.23h-.78v-2.12c0-.44-.14-.58-.4-.58-.34,0-.6.19-.73.34v2.35h-.78Z"/>
    <path class="st0" d="M160.87,16.86c-.43,0-.64.34-.64,1.07s.21,1.07.64,1.07.64-.34.64-1.07-.21-1.07-.64-1.07M160.87,16.23c.89,0,1.42.66,1.42,1.7s-.53,1.7-1.42,1.7-1.42-.66-1.42-1.7.53-1.7,1.42-1.7"/>
    <path class="st0" d="M166.38,16.86c-.43,0-.64.34-.64,1.07s.21,1.07.64,1.07.64-.34.64-1.07-.21-1.07-.64-1.07M166.38,16.23c.89,0,1.42.66,1.42,1.7s-.53,1.7-1.42,1.7-1.42-.66-1.42-1.7.53-1.7,1.42-1.7"/>
    <path class="st0" d="M169.75,16.81c-.33,0-.56.24-.56.54s.23.54.56.54c.29,0,.53-.24.53-.54s-.24-.54-.53-.54M169.06,19.87c0,.25.21.36.87.36.5,0,.67-.25.67-.36,0-.15-.23-.38-.99-.38-.43,0-.55.24-.55.38M171.33,16.76c-.18,0-.38,0-.5.08.1.14.18.33.18.58,0,.62-.41,1.05-1.23,1.05-.34,0-.61.01-.61.2,0,.53,2.15-.19,2.15,1.12,0,.46-.47.97-1.51.97-.88,0-1.46-.26-1.46-.78,0-.41.31-.6.59-.6h0c-.15-.11-.48-.19-.48-.54,0-.31.36-.55.51-.6-.27-.22-.48-.47-.48-.87,0-.57.44-1.14,1.29-1.14.28,0,.6.11.8.29.15-.2.4-.3.77-.29v.53Z"/>
    <path class="st0" d="M171.78,20.09c.12.03.21.03.33.03.27,0,.42-.08.52-.26.07-.16.13-.25.13-.38,0-.12-.06-.26-.1-.39l-.87-2.79h.78l.54,2.01h.01l.56-2.01h.78l-1.03,3.27c-.35.93-.62,1.19-1.26,1.19-.19,0-.28-.01-.38-.03v-.64Z"/>
    <path class="st0" d="M178.41,17.01h.64c.68,0,.89-.21.89-.64s-.26-.64-.73-.64h-.79v1.28ZM177.54,19.56v-4.53h1.81c1.03,0,1.44.6,1.45,1.34,0,.56-.28,1.01-.83,1.17l1,2.02h-.96l-.85-1.85h-.75v1.85h-.87Z"/>
    <path class="st0" d="M183.74,17.53c-.01-.45-.25-.72-.63-.72s-.62.26-.63.72h1.26ZM182.48,18.05c.01.68.31.94.68.94s.53-.16.73-.39l.56.35c-.3.46-.74.67-1.37.67-.85,0-1.38-.66-1.38-1.7s.53-1.7,1.42-1.7c.85,0,1.33.72,1.33,1.5v.32h-1.97Z"/>
    <path class="st0" d="M187,17.16c-.16-.17-.36-.35-.61-.35-.3,0-.44.13-.44.32,0,.56,1.63.32,1.63,1.51,0,.68-.52.98-1.2.98-.52,0-.95-.23-1.24-.66l.52-.39c.18.25.43.47.76.47.28,0,.47-.15.47-.37,0-.56-1.63-.36-1.63-1.49,0-.61.51-.95,1.08-.95.43,0,.87.16,1.15.5l-.49.43Z"/>
    <path class="st0" d="M190.29,17.53c-.01-.45-.25-.72-.63-.72s-.62.26-.63.72h1.26ZM189.04,18.05c.01.68.31.94.68.94s.53-.16.73-.39l.56.35c-.3.46-.74.67-1.37.67-.85,0-1.38-.66-1.38-1.7s.53-1.7,1.42-1.7c.85,0,1.33.72,1.33,1.5v.32h-1.97Z"/>
    <path class="st0" d="M193.55,18c-.52.1-1.09.21-1.09.67,0,.25.16.38.38.38.25,0,.55-.21.72-.35v-.7ZM193.63,19.56l-.05-.28c-.31.21-.61.35-1.02.35-.59,0-.89-.42-.89-.87,0-.74.6-1.13,1.87-1.28v-.28c0-.25-.2-.39-.48-.39-.36,0-.56.19-.72.4l-.5-.38c.2-.35.74-.61,1.22-.6.88.02,1.26.34,1.26,1.32v1.54c0,.16.01.33.06.47h-.76Z"/>
    <path class="st0" d="M195.37,19.56v-3.26h.71v.56h.01c.19-.39.45-.61.92-.62v.82s-.08,0-.14,0c-.39,0-.73.45-.73.53v1.98h-.78Z"/>
    <path class="st0" d="M199.63,17.36c-.13-.28-.26-.5-.64-.5-.43,0-.64.34-.64,1.07s.21,1.07.67,1.07c.34,0,.53-.23.69-.52l.59.33c-.31.58-.71.82-1.31.82-.88,0-1.42-.66-1.42-1.7s.53-1.7,1.42-1.7c.62,0,1.11.33,1.29.87l-.65.25Z"/>
    <path class="st0" d="M201.28,19.56v-4.53h.78v1.62c.24-.2.56-.41.94-.41.65,0,.97.43.97,1.09v2.23h-.78v-2.12c0-.44-.14-.58-.4-.58-.34,0-.6.19-.73.34v2.35h-.78Z"/>
    <path class="st0" d="M221.21,16.29v-1.08h.78v1.08h.64v.63h-.64v1.85c0,.18.09.23.28.23.12,0,.25-.04.36-.06v.64c-.21.03-.4.05-.62.05-.58,0-.8-.29-.8-.75v-1.95h-.45v-.63h.45Z"/>
    <path class="st0" d="M226.18,16.29v3.26h-.72v-.35c-.29.2-.62.41-1,.41-.65,0-.97-.43-.97-1.09v-2.23h.78v2.12c0,.44.14.58.4.58.34,0,.6-.19.73-.35v-2.35h.78Z"/>
    <path class="st0" d="M227.42,16.29v-1.08h.78v1.08h.64v.63h-.64v1.85c0,.18.09.23.28.23.12,0,.25-.04.36-.06v.64c-.21.03-.4.05-.62.05-.58,0-.8-.29-.8-.75v-1.95h-.45v-.63h.45Z"/>
    <path class="st0" d="M231.49,17.53c-.01-.45-.25-.72-.63-.72s-.62.26-.63.72h1.26ZM230.23,18.05c.01.68.31.94.68.94s.53-.16.73-.39l.56.35c-.3.46-.74.67-1.37.67-.85,0-1.38-.66-1.38-1.7s.53-1.7,1.42-1.7c.85,0,1.33.72,1.33,1.5v.32h-1.97Z"/>
    <path class="st0" d="M209.72,19.56v-3.26h.72v.35c.29-.2.62-.41,1-.41.65,0,.97.43.97,1.09v2.23h-.78v-2.12c0-.44-.14-.58-.4-.58-.34,0-.6.19-.73.34v2.35h-.78Z"/>
    <path class="st0" d="M215.11,17.16c-.16-.17-.36-.35-.61-.35-.3,0-.44.13-.44.32,0,.56,1.63.32,1.63,1.51,0,.68-.52.98-1.2.98-.52,0-.95-.23-1.24-.66l.52-.39c.18.25.43.47.76.47.28,0,.47-.15.47-.37,0-.56-1.63-.36-1.63-1.49,0-.61.51-.95,1.08-.95.43,0,.87.16,1.15.5l-.49.43Z"/>
    <path class="st0" d="M216.75,16.29v-1.08h.78v1.08h.64v.63h-.64v1.85c0,.18.09.23.28.23.12,0,.25-.04.36-.06v.64c-.21.03-.4.05-.62.05-.58,0-.8-.29-.8-.75v-1.95h-.45v-.63h.45Z"/>
  </g>
  <g>
    <polygon class="st0" points="7.74 32.12 18.25 13.9 28.77 32.12 36.11 32.12 21.92 7.55 14.59 7.55 .4 32.12 7.74 32.12"/>
    <path class="st0" d="M53.2,17.17h-12.93c-1.2,0-2.16-.95-2.16-2.15s.97-2.16,2.16-2.16h0s16.8,0,16.8,0v-5.31h-17.88c-4.12,0-7.47,3.35-7.47,7.48s3.34,7.47,7.47,7.47h12.93c1.2,0,2.16.95,2.16,2.15s-.97,2.16-2.16,2.16h0s-14.85,0-14.85,0l3.03,5.31h12.89c4.12,0,7.47-3.35,7.47-7.48s-3.34-7.47-7.47-7.47"/>
    <polygon class="st0" points="60.21 12.84 69.82 12.84 69.82 32.13 76.34 32.13 76.34 12.84 85.96 12.84 85.96 7.55 60.21 7.55 60.21 12.84"/>
    <path class="st0" d="M116.76,32.12l-5.77-9.99c2.99-.97,5.16-3.78,5.16-7.1,0-4.12-3.34-7.47-7.47-7.47h0s-19.54,0-19.54,0v.33h0s0,24.25,0,24.25h6.52V12.86h11.95c1.19,0,2.16.97,2.16,2.17s-.97,2.16-2.16,2.16h-9.67v5.31h5.93l5.56,9.63h7.34Z"/>
    <rect class="st0" x="120.2" y="7.55" width="6.51" height="24.58"/>
    <path class="st0" d="M21.78,26.43c0,1.95-1.58,3.52-3.53,3.52s-3.53-1.58-3.53-3.52,1.58-3.53,3.53-3.53,3.53,1.58,3.53,3.53"/>
  </g>
  <path class="st0" d="M146.08,25.78c.97.26,1.81.74,2.6,1.44l-.4.46c-.65-.65-1.63-1.18-2.63-1.43l.43-.47ZM146.79,29.53v-.66h-2.99v.65s2.99,0,2.99,0ZM146.79,27.72h-3s0,.58,0,.58h2.99v-.58ZM145,25.9c-.31.47-.93,1-1.39,1.25l1.39.02v-1.26ZM148.07,24.08c-.85.26-1.71.37-2.48.47v.65h2.8v.57h-2.8v1.39s1.78,0,1.78,0v3.34h-.59v-.41s-2.99,0-2.99,0v.4h-.58v-3.12c-.23.13-.58.27-.96.4l-.44-.49c1.03-.32,1.95-.81,2.53-1.53h-2.12v-.57h2.77v-.58c-.69.05-1.45.12-2.26.12l-.4-.56c1.87,0,3.92-.16,5.3-.55l.44.44Z"/>
  <path class="st0" d="M153.65,25v.81s1.29,0,1.29,0v-.82s-1.29,0-1.29,0ZM153.42,28.32h1.77v-.7s-1.77,0-1.77,0v.7ZM153.71,26.38c-.09.26-.28.51-.4.67h2.06c-.14-.16-.32-.43-.47-.68h-1.19ZM151.55,25.17c-.44-.63-.85-.79-1.25-.93l.45-.4c.47.17.92.46,1.23.93l-.44.4ZM151.76,27.65c-.15,1.02-.5,1.99-1.1,2.83l-.56-.31c.6-.65,1.01-2.17,1.16-2.77l.54.17c.59-.29,1.06-.72,1.28-1.18h-1.21v-.57h1.18v-.81h-.89v-.57h.89v-.87h.6v.87s1.29,0,1.29,0v-.86h.59v.87h.89v.57h-.89v.81h1.18v.57s-1.18,0-1.18,0c.32.53,1.08,1.13,1.57,1.26l-.4.47c-.39-.19-.74-.44-.91-.61v1.39s-2.36,0-2.36,0v.47c0,.12.02.27.21.27h2.04c.3,0,.29-.3.34-.73h.57c-.03.62-.09,1.3-.78,1.3h-2.35c-.48,0-.62-.35-.62-.64v-2c-.18.13-.4.33-.74.5l-.33-.4ZM151.22,26.89c-.29-.44-.68-.8-1.19-.98l.36-.43c.42.13.97.49,1.28,1.02l-.44.39Z"/>
  <path class="st0" d="M164.01,28.67c.37.18.94.68,1.2,1.05l-.48.34c-.33-.51-.62-.75-1.11-1.07l.39-.32ZM161.97,27.8h.97v-.3h-.97v.3ZM161.97,26.96h.97v-.3h-.97v.3ZM161.97,26.11h.97v-.29h-.97v.29ZM163.8,29.24c-.15.35-.26.85-.69.91h-1.49c-.31,0-.52-.15-.58-.38v-1.08h.57v.79c0,.1.05.15.12.16h1.25c.15,0,.21-.31.29-.57l.54.16ZM161.22,24.81c-.11.36-.28.72-.5,1.17v.25c.4-.43.72-.9.96-1.59h-.88l.42.17ZM159.49,26.68c.55-.51.93-1.24,1.2-2.04h-1.2v2.04ZM160.77,29.04c-.31.42-.71.78-1.15,1.01l-.41-.37c.47-.26.91-.63,1.18-.97l.38.34ZM161.54,24.08c-.05-.05-.23-.19-.51-.34l.54-.32c.28.22.51.44.69.66h2.8v.55h-3.22l.41.16c-.07.21-.12.34-.19.49h.85c-.06-.07-.17-.16-.35-.29l.48-.28c.26.21.41.37.55.57h1.25v.54h-1.31v.29h1.07v.55h-1.07v.3h1.06v.54h-1.06v.3h1.46v.54h-2.95c.33.09.69.39.96.65l-.45.35c-.22-.26-.58-.54-1-.73l.37-.25-.53-.02v-1.99c-.12.17-.26.32-.39.44l-.28-.19v1.83h-.55v-1.71c-.12.15-.26.33-.42.48l-.25-.18v.69c0,.44-.02,1.7-.91,2.82l-.48-.4c.34-.43.56-.83.68-1.28.15-.58.12-1.16.12-1.8v-2.96h2.64Z"/>
  <path class="st0" d="M170.47,26.13v1.2s1.67,0,1.67,0v-1.2s-1.67,0-1.67,0ZM170.47,25.56h1.67v-1.13h-1.68v1.13ZM168.18,27.33h1.67v-1.2h-1.67v1.2ZM168.18,25.56h1.67v-1.13h-1.67v1.13ZM172.77,23.86v5.83c0,.23-.18.58-.48.63l-.89.02-.19-.61c.32.02.59.04.83,0,.09,0,.12-.07.12-.16v-1.67h-1.7v1.85h-.61v-1.85h-1.71c-.11,1-.27,1.64-1.14,2.66l-.5-.37c.32-.39.55-.71.72-1.09.23-.53.33-1.18.33-1.78v-3.47h5.2Z"/>
  <path class="st0" d="M179.2,25.77c-.4-.58-.92-.92-1.52-1.23l.37-.41c.6.27,1.15.65,1.57,1.22l-.41.42ZM179.01,27.66c-.34-.58-.83-1.02-1.44-1.32l.42-.41c.58.31,1.08.72,1.45,1.27l-.43.46ZM179.95,30.5v-2.14s-2.41.57-2.41.57l-.16-.57,2.57-.62v-4.12s.58,0,.58,0v3.97s.92-.21.92-.21l.12.57-1.04.25v2.3h-.59ZM176.01,27.46c-.17.35-.53.9-1.04,1.41l-.51-.36c.79-.72,1.26-1.58,1.54-2.41h-1.16v-.56h1.17v-.88c-.27.05-.62.12-1.02.14l-.3-.58c1.07,0,1.85-.28,2.62-.67l.34.45c-.37.21-.72.37-1.04.48v1.05s1.16,0,1.16,0v.56h-1.17v.55l.2-.13c.48.28.9.73,1.15,1.22l-.48.36c-.24-.47-.57-.85-.87-1.05v3.5h-.6v-3.08Z"/>
  <path class="st0" d="M186.52,27.2c.24.58.44,1.04.82,1.42.34-.34.74-.92.89-1.41h-1.7ZM184.87,30.02c.81-.23,1.48-.56,2.02-1.01-.46-.49-.78-1.17-1-1.8h-.38s0-.57,0-.57h1.49s0-1.29,0-1.29h-1.63v-.57h1.63v-1.21h.58v1.21s1.81,0,1.81,0v.57h-1.8v1.29s1.36,0,1.36,0c-.11.99-.62,1.76-1.2,2.38.52.45,1.21.72,1.99.97l-.37.52c-.78-.23-1.46-.6-2.04-1.08-.49.37-1,.79-2,1.11l-.44-.51ZM182.98,29.93c.29.07.55.08.75.06.13,0,.2-.1.2-.2v-1.78s-.93.34-.93.34l-.4-.5,1.32-.46v-1.71s-1.04,0-1.04,0v-.56s1.05,0,1.05,0v-1.51h.58v1.5h.81v.57h-.8s0,1.48,0,1.48l.86-.3v.59l-.86.32v2.19c0,.3-.16.62-.61.62h-.65l-.29-.65Z"/>
  <path class="st0" d="M196.2,24.46h-1.07s0,2.12,0,2.12h1.07v-2.12ZM195.14,27.12c0,1.95-.4,2.38-1.29,3.43l-.48-.39c.61-.58,1.04-1.22,1.13-1.99.04-.36.06-.78.05-1.06h-.88v-.54h.88v-2.11s-.65,0-.65,0v-.54h3.82v.54s-.9,0-.9,0v2.11h1.13v.54h-1.13v3.41s-.6,0-.6,0v-3.41s-1.07,0-1.07,0ZM192.98,26.57c-.28,0-.56,0-.84,0v2.1h.84v-2.1ZM190.78,27.35c.93-1.31,1.08-1.95,1.21-2.77h-1v-.52s2.76,0,2.76,0v.53h-1.11c-.08.44-.27,1.13-.41,1.5h1.32v3.68h-.6v-.61h-.73v.77s-.58,0-.58,0v-2.69c-.1.12-.22.31-.37.52l-.47-.4Z"/>
  <path class="st0" d="M203.76,26.73c-.44,0-.67-.19-.67-.47v-1.06h.58v.84c0,.12.12.14.36.14h1.61v.55h-1.88ZM202,23.45c.39.18.99.57,1.25.75l-.23.23h2.64s0,1.5,0,1.5h-.6v-.94h-5.01v.97h-.62v-1.52h3.12c-.17-.15-.68-.43-.98-.59l.44-.39ZM202.09,25.33c-.11.53-.58,1.08-1.1,1.36-.45.24-.94.38-1.51.44l-.32-.57c.68-.05,1.25-.2,1.73-.51.3-.23.51-.56.65-.97l.55.24ZM199.84,27.43h1.99c.05-.25.09-.55.12-.86l.02-.23.6.08c-.02.38-.06.74-.11,1h2.14c-.12.67-.18,1.28-.26,1.91-.02.14.03.28.17.28h.46c.12,0,.19-.02.23-.11.1-.26.21-.66.29-1.04l.58.26c-.12.38-.24.71-.38,1.04-.15.26-.48.4-.76.4-.38,0-.86.11-1.09-.32-.1-.18-.12-.4-.1-.61.04-.43.12-.88.17-1.25h-1.55c-.12.47-.23,1.01-.6,1.44-.6.69-1.57.93-2.36,1.14l-.34-.59c.74-.15,1.49-.37,1.95-.67.44-.29.62-.72.74-1.32h-1.9v-.55Z"/>
  <path class="st0" d="M213.1,26.3h-2.93v-.57h2.93v.57ZM213.12,25.65v-.69h-2.95v.73h-.59s0-1.29,0-1.29h1.79c-.15-.19-.54-.4-.93-.49l.36-.43c.48.09.9.37,1.23.8l-.14.1,1.81.02v1.25s-.58,0-.58,0ZM209.74,27.04h3.82s0,.57,0,.57h-1.07v1.81c.02.16.07.2.23.19h.44c.2,0,.3-.26.39-1.12l.57.29c-.21.88-.28,1.39-.97,1.39h-.63c-.51.02-.61-.35-.61-.64v-1.92h-.56c-.08.9-.09,2.34-2.25,2.98l-.38-.51c1.67-.41,2.04-1.33,2.02-2.48h-.98v-.57ZM208.12,27.9c.27.12.64.3.8.07.23-.46.04-1.04-.34-1.39l-.33-.32.66-1.77h-.8s0,3.41,0,3.41ZM207.53,30.57v-6.65h2.01v.5l-.62,1.71c.15.21.37.44.48.72.23.43.26,1.11-.04,1.5-.23.3-.55.41-1.19.23l-.05-.4-.02,2.4h-.58Z"/>
</svg>