<?xml version="1.0" encoding="utf-8"?>
<!-- Generator: Adobe Illustrator 22.0.1, SVG Export Plug-In . SVG Version: 6.00 Build 0)  -->
<svg version="1.1" id="Grafiken" xmlns="http://www.w3.org/2000/svg" xmlns:xlink="http://www.w3.org/1999/xlink" x="0px" y="0px"
	 viewBox="0 0 260 260" style="enable-background:new 0 0 260 260;" xml:space="preserve">
<style type="text/css">
	.st0{fill-rule:evenodd;clip-rule:evenodd;}
	.st1{fill-rule:evenodd;clip-rule:evenodd;fill:#0099DE;}
	.st2{fill-rule:evenodd;clip-rule:evenodd;fill:#247BA0;}
	.st3{fill-rule:evenodd;clip-rule:evenodd;fill:#CCCCCC;}
	.st4{fill:#FFFFFF;}
	.st5{fill:none;stroke:#FFFFFF;stroke-width:2.5;stroke-miterlimit:10;}
	.st6{fill-rule:evenodd;clip-rule:evenodd;fill:#FFFFFF;}
	.st7{opacity:0.35;}
	.st8{opacity:0.35;fill:#FFFFFF;}
	.st9{fill:#2E4756;}
	.st10{fill:#247BA0;}
	.st11{fill-rule:evenodd;clip-rule:evenodd;fill:#2E4756;}
	.st12{opacity:0.23;}
	.st13{fill-rule:evenodd;clip-rule:evenodd;fill:none;stroke:#FFFFFF;stroke-miterlimit:10;}
	.st14{fill:#1D1D1B;}
	.st15{fill:#1976A4;}
	.st16{fill:#171B37;}
	.st17{fill:#70A2BB;}
	.st18{opacity:0.23;fill-rule:evenodd;clip-rule:evenodd;fill:#FFFFFF;}
	.st19{fill:#247B9E;}
	.st20{fill:#247B9E;stroke:#247B9E;stroke-width:0.298;stroke-miterlimit:10;}
	.st21{fill:#247B9E;stroke:#247B9E;stroke-width:0.5;stroke-miterlimit:10;}
	.st22{fill:#247B9E;stroke:#247B9E;stroke-width:0.25;stroke-miterlimit:10;}
	.st23{fill:none;}
	.st24{fill:#247B9D;}
	.st25{fill:#0099DE;}
	.st26{fill-rule:evenodd;clip-rule:evenodd;fill:#C8C8C8;}
	.st27{fill-rule:evenodd;clip-rule:evenodd;fill:none;stroke:#2E4756;stroke-width:2;stroke-miterlimit:10;}
	.st28{fill-rule:evenodd;clip-rule:evenodd;fill:#EFEFEF;}
	.st29{fill-rule:evenodd;clip-rule:evenodd;fill:#0089CE;}
	.st30{fill:#F2F2F2;}
	.st31{fill:#808080;}
	.st32{fill:#666666;}
	.st33{fill:#B3B3B3;}
</style>
<g>
	<polygon class="st0" points="259,175.1 231.3,175.1 204,142.7 204,175.1 181.2,175.1 181.2,43.1 204.4,43.1 204.4,128.6 229.3,98
		257.7,98 223.7,134.4 259,175.1 	"/>
	<path class="st0" d="M47,113.5l0.4-3.2c4.9-2.3,8.8-4.5,11.6-6.4L61.3,80c0.6-1.9,1.9-4.5,4-6.9c5.1-5.9,9.9-10.3,14.2-13.2
		c2.7-1.9,5.4-2.9,7.9-3.2c2.4-0.2,5.5,0.2,9.2,1.3c-1.1,3.4-2.2,7.3-3.1,11.5l-1.4,0.7c-1.6-1.8-3.2-3-4.7-3.6
		c-1.5-0.6-3.4-0.8-5.5-0.6c-3.9,0.4-6.6,1.9-8.1,4.7c-1.5,2.8-3.1,16.9-4.8,33.4l3.5-0.3c3.7-0.3,7.4-1.1,11.3-2.3l0.8,0.7
		c-0.8,3.2-1.5,5.7-1.9,7.4l-14.5,1l-1.8,11.4l-8.2,52.5c-1.3,8.3-6.4,30.2-12.3,35.8c-4.2,4-8.2,6.1-12,6.4
		c-1.4,0.1-1.9,0.2-3.9-0.3l0-9.3l1.5-0.5c2.4,2.5,6,2.8,8.7,2.5c2.5-0.2,5-3.3,6.2-5.6c0.4-0.7,0.9-1.8,1.4-3.5
		c1.9-7.3,3.5-23.2,4.5-32.1l6-56.2L47,113.5L47,113.5z"/>
	<path class="st0" d="M29.8,175l0-73.9c-6.9,2.7-13.9,3.6-22.1,0.1l0,73.8L29.8,175L29.8,175z"/>
	<path class="st0" d="M123.1,119c10.8,0,19.6,8.8,19.6,19.6c0,10.8-8.8,19.6-19.6,19.6c-10.8,0-19.6-8.8-19.6-19.6
		C103.6,127.8,112.4,119,123.1,119L123.1,119z M142.7,110.4L142.7,110.4l-0.1-9.3l21,0l-0.1,73.9l-21.2,0v-9.5l-0.1,0
		c-6.5,5.8-15.1,9.3-24.5,9.3c-20.4,0-37.1-16.7-37.1-37.1c0-20.4,16.7-37.1,37.1-37.1C127.3,100.7,136.1,104.4,142.7,110.4
		L142.7,110.4z"/>
	<path class="st1" d="M18.8,59.4c9.8,0,17.8,8,17.8,17.8c0,9.8-8,17.8-17.8,17.8C9,94.9,1,87,1,77.1C1,67.3,9,59.4,18.8,59.4z"/>
</g>
</svg>
