<?xml version="1.0" encoding="UTF-8"?>
<svg id="Layer_2" xmlns="http://www.w3.org/2000/svg" xmlns:xlink="http://www.w3.org/1999/xlink" version="1.1" viewBox="0 0 248.4 131.2">
  <!-- Generator: Adobe Illustrator 29.2.1, SVG Export Plug-In . SVG Version: 2.1.0 Build 116)  -->
  <defs>
    <style>
      .st0 {
        fill: none;
      }

      .st1 {
        fill: #fff;
      }

      .st2 {
        fill: #485865;
      }

      .st3 {
        fill: #7a003c;
      }

      .st4 {
        fill: #fdbf58;
      }

      .st5 {
        clip-path: url(#clippath);
      }
    </style>
    <clipPath id="clippath">
      <rect class="st0" width="248.4" height="131.2"/>
    </clipPath>
  </defs>
  <g class="st5">
    <path class="st2" d="M47.4,40.5c-.5-.4-1.3-.4-1.8-.4h-.2c-.8,0-1.5,0-2-.7-.6-.8-.6-3.2-.6-4.3v-.2s0-27.2,0-27.2c0-.2,0-.5,0-.8,0-1.2,0-3.1.4-3.8.3-.4,1.2-.4,1.9-.4.2,0,.3,0,.5,0,1.7,0,1.9-1.1,1.9-1.5s-.1-.7-.4-.9c-.4-.4-1-.3-1.5-.3-.1,0-.3,0-.4,0h-6.8c-.7,0-1.6,0-2,1.2l-12.1,30.2c-1.9-5.3-10.7-29.1-10.7-29.1,0-.2,0-.3-.1-.5-.3-.9-.5-1.8-1.8-1.8h-7c-.1,0-.2,0-.4,0-.5,0-1.1,0-1.5.3-.2.2-.4.5-.4.9s.2,1.5,1.9,1.5,2.2,0,2.6.4c.4.4.4,1.3.3,3l-1.9,29.2c-.2,3.5-.4,4.7-3.3,4.7s-2,.8-2,1.3.2,1.2,1.4,1.2,1.8,0,2.7-.1c.9,0,1.8-.1,2.7-.1s1.8,0,2.7.1c.9,0,1.8.1,2.8.1s1.8,0,1.8-1.2-.1-.6-.3-.8c-.5-.5-1.3-.5-1.9-.5h-.1c-1.2,0-2.1-.3-2.7-.9-1.1-1.2-1.1-3.4-.9-6.3l1.7-26.1c1.9,5.4,11.6,32.6,11.6,32.6h0c.1.6.4,1.6,1.3,1.6s1.1-.8,1.2-1.3v-.2c0,0,13.2-33.5,13.2-33.5v29.1c0,1.2,0,3.3-.8,4-.6.5-1.8.8-2.6.8h-.2c-.5,0-1.3,0-1.8.4-.2.2-.3.5-.3.9,0,.6.3,1.2,1.6,1.2s2.4,0,3.6-.1c1.2,0,2.4-.1,3.7-.1s1.9,0,2.9.1c1,0,2,.1,2.9.1s1.6-.7,1.6-1.2-.1-.6-.3-.9"/>
    <path class="st2" d="M73.3,20.3c-1,0-1.7-1.2-2.6-2.7-1.3-2.2-2.8-4.8-5.8-4.8s-4.7,1.4-6.2,2.7c-2.8,2.6-4.5,6.7-4.5,10.8,0,6.6,4.4,13.7,11.6,13.7s5.2-1,7.1-2.9h.1c.4-.6.7-1,1.2-1s.9.4.9,1-.2,1.1-2.1,2.8c-2.6,2.3-6,3.5-9.6,3.5-8,0-14.7-7.2-14.7-15.8s7.8-17,17-17,5.9.7,8.1,2.4c.8.6.8,1.8.7,2.8,0,.2,0,.4,0,.6s0,.2,0,.4c0,1.3.1,2.6-.5,3.2-.2.2-.4.3-.7.3"/>
    <path class="st2" d="M123.7,40.5c-.5-.4-1.3-.4-1.8-.4h-.2c-.8,0-1.5,0-2-.7-.6-.8-.6-3.2-.6-4.3v-.2s0-27.2,0-27.2c0-.2,0-.5,0-.8,0-1.2,0-3.1.4-3.8.3-.4,1.2-.4,1.9-.4.2,0,.3,0,.5,0,1.7,0,1.9-1.1,1.9-1.5s-.1-.7-.4-.9c-.4-.4-1-.3-1.5-.3-.1,0-.3,0-.4,0h-6.8c-.7,0-1.6,0-2,1.2l-12.1,30.2c-1.9-5.3-10.7-29.1-10.7-29.1,0-.2,0-.3-.1-.5-.3-.9-.5-1.8-1.8-1.8h-7c-.1,0-.2,0-.4,0-.5,0-1.1,0-1.5.3-.2.2-.4.5-.4.9s.2,1.5,1.9,1.5,2.2,0,2.6.4c.4.4.4,1.3.3,3l-1.9,29.2c-.2,3.5-.4,4.7-3.3,4.7s-2,.8-2,1.3.2,1.2,1.4,1.2,1.8,0,2.7-.1c.9,0,1.8-.1,2.7-.1s1.8,0,2.7.1c.9,0,1.8.1,2.8.1s1.8,0,1.8-1.2-.1-.6-.3-.8c-.5-.5-1.3-.5-1.9-.5h-.1c-1.2,0-2.1-.3-2.7-.9-1.1-1.2-1.1-3.4-.9-6.3l1.7-26.1c1.9,5.4,11.6,32.6,11.6,32.6h0c.1.6.4,1.6,1.3,1.6s1.1-.8,1.2-1.3v-.2c0,0,13.2-33.5,13.2-33.5v29.1c0,1.1,0,3.3-.8,4-.6.5-1.8.8-2.6.8h-.2c-.5,0-1.3,0-1.8.4-.2.2-.3.5-.3.9,0,.6.3,1.2,1.6,1.2s2.4,0,3.6-.1c1.2,0,2.4-.1,3.7-.1s1.9,0,2.9.1c1,0,2,.1,2.9.1s1.6-.7,1.6-1.2-.1-.6-.3-.9"/>
  </g>
  <path class="st2" d="M136.5,29.7c-2.5,1.4-4.8,3.1-4.8,6.1s2.2,3.6,4,3.6,4.1-1,5.7-2.6c1.4-1.6,1.5-2.7,1.5-4.9v-4.1s0-.1,0-.2c0-1,0-1.3-.1-1.3h0s0,0,0,0c0,0-.2,0-.3.1,0,0-.2,0-.3.1h0s-5.9,3.1-5.9,3.1M140.8,25.1q2.2-1.1,2.2-3.5v-3c0-3.6-.2-5.8-3.7-5.8s-5.4,1.6-7,5.5v.3c-.5.9-.9,1.9-2,2.4-.7.4-2,.9-2.9.9s-1.2-.4-1.2-1.2c0-1.9,1.5-4,2.8-5.2,3.1-3,7.6-4.9,11.8-4.9s4.9.7,6.1,1.9c1.5,1.3,1.4,3,1.4,4.6v.7s0,16.2,0,16.2h0c0,1.2,0,3.8,1,4.7.2.2.5.3.9.3.8,0,1.4-.6,1.8-1,.4-.4.7-.7,1.1-.7s.9.4.9,1c0,.9-1,1.9-1.6,2.4h0c-1.3,1-3,2.1-4.8,2.1s-3.3-2.2-3.9-3.7c-.2-.4-.4-1-.6-1.1h0s0,0,0,0c-.1,0-.5.4-.8.7-1.7,1.5-5.2,4.5-9.6,4.5s-6.4-2-6.4-5.8,5.6-7.8,9.3-9.8l.4-.2,5-2.5Z"/>
  <path class="st2" d="M155.9,33.8h0c0-.7.2-1.9,1.2-1.9s1.4,1.3,1.7,2.9c.5,2.8,1.3,6.6,6.7,6.6s7.4-2.2,7.4-6.3-3-5.2-5.9-6.2l-.6-.2c-4-1.4-9.5-3.3-9.5-8.9s1.2-4.9,3.6-6.7c2.1-1.6,4.6-2.3,7.8-2.3s5.1.5,6.8,1.2c1.1.6,1,1.8,1,2.8,0,.2,0,.4,0,.6s0,.2,0,.3c.1,1.2.2,2.6-.4,3.2-.2.2-.4.3-.7.3-.8,0-1.1-.8-1.6-1.9-.8-1.9-1.9-4.6-6.3-4.6s-5.5,1.7-5.5,4.7,3.1,4.6,6.7,5.9c4.3,1.6,9.3,3.4,9.3,9.8s-7.4,10.5-12.6,10.5-6.1-.9-8.4-2.1c-1.1-.5-1.1-1.5-1.1-2.5v-.3s.2-4.7.2-4.7Z"/>
  <path class="st2" d="M197.1,38.5c0-.4-.4-.9-.9-.9s-.6.2-1.1.7c-.8.7-2,1.7-3.5,1.7s-1.4-.2-1.9-.7c-1.5-1.4-1.5-4.7-1.5-6.8h0V14.9c0-.7.1-.9.2-1,.2-.1.6-.1,1-.1.2,0,.4,0,.7,0h3.6c.3,0,.5,0,.7,0,.6,0,1,0,1.3-.3.3-.3.4-.8.4-1.3s0-1.4-1-1.4h-6.3c-.5,0-.6,0-.6-1v-4.9c0-1-.5-1.2-.9-1.2-.6,0-.9.6-1,.9-1.4,3.2-3.2,4.9-6,6.8h-.1c-.3.4-.8.7-.8,1.3s0,.5.3.7c.4.4,1.2.4,1.9.3,0,0,.2,0,.2,0,.1,0,.3,0,.4,0,.3,0,.6,0,.7,0,0,0,.1.2.1.8v18.7c0,2.7,0,5.7,1.5,7.8,1.1,1.4,2.9,2.3,4.9,2.3s4.5-1,6.2-2.7c.4-.3,1.4-1.3,1.4-2.2"/>
  <path class="st2" d="M204.5,17.1c1.8-2.8,4.8-4.4,8-4.4s3.8.3,5.2,2c.9,1.1,1.6,2.6,1.6,3.8s-.6,2-2.1,2.3c-1.8.5-5.4.5-7.3.5h-5.2c0,0-.2,0-.3,0-.4,0-1.1,0-1.3-.2,0,0-.1-.1-.1-.3,0-.9.9-3,1.5-3.7M223.9,35.1c-.4,0-.7.3-1.3.9-1.3,1.2-3.7,3.6-8.1,3.6-7.9,0-12-7-12-14s0-1.3.3-1.5c.2-.2.8-.2,1.6-.2h.3s19.4,0,19.4,0c.4,0,1.2-.2,1.2-1.6,0-2.4-1-5.4-2.3-7.2-2.1-2.8-5.6-4.4-9.6-4.4s-8.6,1.6-11.8,4.7c-3.2,3-4.7,6.7-4.7,11.8,0,9.1,6.6,16.3,15,16.3s7.4-1.2,10.4-4h0c1.8-1.7,2.6-2.7,2.6-3.4s-.4-1-.9-1"/>
  <path class="st2" d="M244.3,11c-3.4,0-5.7,3-6.9,4.7-.2.2-.4.5-.5.7,0-.1,0-.3,0-.6,0,0,0-.1,0-.2v-3.4h0c0-.4,0-.9-.3-1.2-.1-.1-.3-.3-.7-.3-.6,0-1,.5-1.3.8,0,0-.1.2-.2.2-1,1.3-3.7,3-5.1,3.4,0,0-.2,0-.3,0-.6.2-1.5.5-1.5,1.5s.5,1,1.2,1h.8c.7,0,1.3.1,1.5.4.5.6.5,3.1.5,3.9v.2s0,12.9,0,12.9c0,.4,0,.8,0,1.1,0,2.6,0,3.9-2.5,4.1,0,0-.2,0-.3,0-.6,0-1.8,0-1.8,1.4s.5,1.1,1.3,1.1,2,0,3-.1c1,0,2-.1,3.1-.1s1.9,0,2.9,0c1,0,2.1.1,3.1.1s1.2-.5,1.2-1.2c0-1.2-1.2-1.2-1.9-1.3-.1,0-.2,0-.3,0-2.5-.2-2.6-1.5-2.5-4.1,0-.4,0-.7,0-1.1v-11.2c0-2.5,0-4.2,1.4-6.4.7-.9,1.7-2.3,2.9-2.3s1,.4,1.5,1.1c.6.7,1.3,1.6,2.6,1.6s3.1-1.3,3.1-3.2-1.8-3.7-4.1-3.7"/>
  <path class="st2" d="M21.5,58.3v-.2c0-.9,0-3-.4-3.7-.3-.7-1-.7-1.9-.7h0c-.3,0-.8,0-1.1-.3-.1-.1-.3-.3-.3-.6s0-.5.3-.7c.2-.2.6-.3,1-.3.6,0,1.2,0,1.8,0,.6,0,1.1,0,1.7,0s1,0,1.5,0c.5,0,1,0,1.5,0,1.1,0,1.2.7,1.2,1,0,.7-.6,1-1.7,1s-1.5.7-1.5,2.4c0,.2,0,.4,0,.7v12.8c0,2.6,0,4.8-2.2,6.9-1.7,1.5-4.1,2.3-7.5,2.3s-5.2-.3-7.4-2c-2.4-1.8-2.4-4.3-2.4-6.9v-13.7c0-1.1,0-1.8-.3-2.1-.2-.2-.8-.3-1.7-.3s-1.4-.3-1.4-1,0-.5.3-.7c.2-.2.5-.3.8-.3.7,0,1.5,0,2.2,0,.7,0,1.4,0,2.1,0s1.4,0,2.2,0c.7,0,1.5,0,2.2,0s1.1.4,1.1,1-.5,1-1.4,1-1.5.1-1.7.3c-.3.3-.3,1-.3,2.1v.5s0,11.6,0,11.6v.4c0,1.8,0,4.4.7,5.7,1.3,2.3,4.8,2.5,5.8,2.5,1.5,0,4.2-.3,5.9-2.1,1.3-1.4,1.3-3.1,1.3-5v-11.4Z"/>
  <path class="st2" d="M46.7,76.6h-.2c-1.3-.1-1.4-.7-1.3-2.3,0-.2,0-.4,0-.7v-6.8c0-1.9,0-3.9-1.2-5.6-1.1-1.6-2.8-2.4-4.9-2.4s-4.5,1.7-5.6,2.7c0,0-.2.2-.3.2v-1.9h0c0-.3,0-.6-.2-.9,0,0-.3-.2-.5-.2-.5,0-.7.3-.9.6h-.1c-.6.9-2.1,1.9-3,2.1h-.1c-.4.2-1,.4-1,1.1s.4.8.9.8h.5c.5,0,.7,0,.8.2.1.1.3.6.3,2.2h0v7.9c0,.2,0,.5,0,.7,0,1.6,0,2.1-1.3,2.3h-.2c-.4,0-1.3,0-1.3,1s.3.8,1,.8,1.2,0,1.8,0c.6,0,1.2,0,1.8,0s1.1,0,1.7,0c.6,0,1.2,0,1.9,0s.9-.3.9-.9c0-.8-.9-.9-1.3-.9h-.2c-1.3-.1-1.4-.7-1.3-2.3,0-.2,0-.4,0-.7v-6.9c0-1.6.1-2.4,1.1-3.5.9-1,2.2-1.6,3.5-1.6s2.6.6,3.2,1.6c.6,1,.6,2.6.6,3.9v6.6c0,.2,0,.5,0,.7,0,1.6,0,2.2-1.3,2.3h-.2c-.4,0-1.3,0-1.3,1s.3.8,1,.8,1.2,0,1.8,0c.6,0,1.2,0,1.8,0s1.1,0,1.7,0c.6,0,1.2,0,1.9,0s.9-.3.9-.9c0-.8-.9-.9-1.3-.9"/>
  <path class="st2" d="M56.1,73.6c0,.2,0,.5,0,.7,0,1.6,0,2.1,1.3,2.3h.2c.4,0,1.3.1,1.3,1s-.4.9-.9.9-1.3,0-1.9,0c-.6,0-1.2,0-1.7,0s-1.2,0-1.8,0c-.6,0-1.2,0-1.8,0s-1-.4-1-.8c0-.9.9-1,1.3-1h.2c1.3-.1,1.4-.7,1.3-2.3,0-.2,0-.4,0-.7v-7.7h0c0-1.7-.1-2.2-.3-2.4,0,0-.3-.2-.8-.2h-.5c-.5,0-.9-.3-.9-.8,0-.7.7-.9,1-1h.1c.8-.3,2.4-1.3,3-2h.1c.2-.4.5-.7.9-.7s.4.1.5.2c.2.2.2.6.2.8h0v13.8ZM52.3,53.7c0-1.4.9-2.5,2.2-2.5s2,1.2,2,2.4-.9,2.5-2.1,2.5-2.1-1-2.1-2.4"/>
  <path class="st2" d="M79.3,59.5c-.2-.2-.4-.2-.6-.2h-.1s-5.6,0-5.6,0c-.3,0-1,0-1,.8s1.1.9,1.5.9,1.1,0,1.1.7-.2.9-.4,1.3c0,.1,0,.2-.1.3,0,0-3,7-4.1,9.6-1-2.6-3.5-9.3-3.5-9.3h0c-.2-.6-.5-1.5-.5-1.9s.6-.7,1-.7h.1c.3,0,.8,0,1.2-.2.2-.1.2-.3.2-.5s0-.5-.2-.6c-.3-.2-.6-.2-.9-.2h0s-6.9,0-6.9,0h0c-.2,0-.5,0-.7.2-.1.1-.2.3-.2.6,0,.6.4.9,1.1.9,1.2,0,1.4.5,1.9,1.9v.3c.1,0,5.6,14.4,5.6,14.4l.2.5c.1.4.4.7.8.7.5,0,.8-.6,1-1h0c0-.1,0-.1,0-.1h0s5.5-12.8,5.5-12.8c0-.2.2-.4.2-.6.6-1.4,1.2-3,2.5-3.2h.1c.3,0,1.2-.1,1.2-.9s0-.4-.2-.5"/>
  <path class="st2" d="M84.6,62.9c1.1-1.6,2.8-2.6,4.6-2.6s2.2.2,3,1.1c.5.6.9,1.5.9,2.1s-.3,1-1.1,1.2c-1.1.3-3.2.3-4.3.3h-3.3c-.1,0-.6,0-.7,0h0c0-.6.5-1.7.9-2.2M96.1,73.4c-.3,0-.5.2-.9.6-.8.7-2.2,2.1-4.7,2.1-4.6,0-7-4.1-7-8.2s0-.7.1-.8c0,0,.5,0,.8,0h.2s11.6,0,11.6,0c.2,0,.9,0,.9-1.1s-.6-3.3-1.4-4.4c-1.3-1.7-3.4-2.7-5.9-2.7s-5.2,1-7.2,2.9c-2,1.9-2.9,4.1-2.9,7.2,0,5.6,4,9.9,9.1,9.9s4.5-.7,6.4-2.4c1.4-1.3,1.6-1.8,1.6-2.1s-.3-.8-.7-.8"/>
  <path class="st2" d="M109.7,59c-2.1,0-3.5,1.8-4.3,2.8v-2h0c0-.3,0-.6-.2-.9,0,0-.3-.2-.5-.2-.4,0-.7.3-.9.6h-.1c-.6.9-2.1,1.9-3,2.1h-.1c-.4.2-1,.4-1,1.1s.4.8.9.8h.5c.5,0,.7,0,.8.2.1.1.3.6.3,2.2h0v7.9c0,.2,0,.5,0,.7,0,1.6,0,2.1-1.3,2.3h-.2c-.4,0-1.3,0-1.3,1s.3.8,1,.8,1.2,0,1.8,0c.6,0,1.2,0,1.8,0s1.1,0,1.7,0c.6,0,1.2,0,1.9,0s.9-.3.9-.9c0-.8-.9-.9-1.3-.9h-.2c-1.3-.1-1.4-.7-1.3-2.3,0-.2,0-.4,0-.7v-6.7c0-1.5,0-2.5.8-3.7.4-.5,1-1.3,1.6-1.3s.5.2.7.6c.3.4.8,1,1.7,1s2-.9,2-2.1-1.1-2.4-2.6-2.4"/>
  <path class="st2" d="M113.9,72.8h0c0-.4.1-1.3.9-1.3s1,.9,1.2,1.9c.3,1.7.7,3.8,3.8,3.8s4.2-1.3,4.2-3.6-1.3-2.8-3.4-3.6h-.3c-2.5-1-5.8-2.1-5.8-5.6s.8-3,2.2-4.2c1.3-1,2.8-1.4,4.8-1.4s3.1.3,4.1.7c.8.4.7,1.2.7,1.9,0,.1,0,.3,0,.4v.2c0,.8.1,1.6-.3,2-.1.2-.3.2-.5.2-.6,0-.8-.6-1.1-1.2-.5-1.1-1.1-2.6-3.6-2.6s-3.1.9-3.1,2.6,1.8,2.6,3.9,3.3c2.7,1,5.7,2.1,5.7,6s-3.9,6.4-7.7,6.4-3.7-.5-5.1-1.3c-.8-.4-.8-1-.8-1.7v-.2s.1-2.8.1-2.8Z"/>
  <path class="st2" d="M134.7,56.1c1.3,0,2.1-1,2.1-2.5s-.8-2.4-2-2.4-2.2,1.1-2.2,2.5.9,2.4,2.1,2.4"/>
  <path class="st2" d="M137.9,76.6h-.2c-1.3-.1-1.4-.7-1.3-2.3,0-.2,0-.4,0-.7v-13.7h0c0-.3,0-.6-.2-.9,0,0-.3-.2-.5-.2-.5,0-.7.3-.9.6h-.1c-.6.9-2.1,1.9-3,2.1h-.1c-.4.2-1,.4-1,1.1s.4.8.9.8h.5c.5,0,.7,0,.8.2.1.1.3.6.3,2.2h0v7.9c0,.2,0,.5,0,.7,0,1.6,0,2.1-1.3,2.3h-.2c-.4,0-1.3,0-1.3,1s.3.8,1,.8,1.2,0,1.8,0c.6,0,1.2,0,1.8,0s1.1,0,1.7,0c.6,0,1.2,0,1.9,0s.9-.3.9-.9c0-.8-.9-.9-1.3-.9"/>
  <path class="st2" d="M150.7,75.6c0-.3-.3-.7-.7-.7s-.5.2-.8.5c-.5.4-1.2,1-2,1s-.7-.1-1-.4c-.8-.8-.8-2.7-.8-4h0v-10.5c0-.4,0-.5,0-.5,0,0,.3,0,.5,0,.1,0,.3,0,.4,0h2.1c.2,0,.3,0,.4,0,.4,0,.7,0,.9-.2.2-.2.3-.6.3-.9s0-1-.8-1h-3.7c-.1,0-.2,0-.2,0,0,0,0,0,0-.4v-2.9c0-.8-.5-.9-.7-.9-.5,0-.7.5-.8.6-.8,1.9-1.9,2.8-3.5,4h0c-.2.2-.5.5-.5.9s0,.4.2.5c.3.3.8.3,1.3.2h0c0,0,.2,0,.2,0,0,0,.2,0,.3,0,0,0,0,.1,0,.3v11.2c0,1.6,0,3.5.9,4.8.7.9,1.8,1.4,3.1,1.4s2.7-.6,3.8-1.7c.3-.2.9-.9.9-1.5"/>
  <path class="st2" d="M170.9,59.3h-6.1c-.5,0-1,.4-1,.9s.9.7,1.3.7c1.1,0,1.6.4,1.6,1.1s-.3,1.1-.5,1.5h0c0,0-2.8,7.1-3.9,9.8-1.1-2.7-3.9-10-3.9-10h0c-.2-.5-.4-1.1-.4-1.5,0-.8,1.4-.8,1.5-.8.9,0,1.4-.2,1.4-.7s-.5-.9-1-.9h-7.4c-.7,0-1.2.4-1.2.9s.9.7,1.4.7c.9,0,1.3.9,1.8,2.2l.2.5,5,12.8c0,.1.1.3.2.4.2.4.3.8.3,1.2s-.1.5-.2.8c0,0,0,.2,0,.2l-1.3,3.3c0,.1,0,.2-.1.3-.2.5-.3.8-.6.9-.4,0-.9,0-1.3,0h-.3c-1.7,0-1.7,1.4-1.7,2s.2.9.5,1.2c.5.5,1.4.5,2,.5h0c1.7,0,1.9-.4,2.3-1.9h0c0,0,7.7-19.6,7.7-19.6.3-.8,1.3-3.3,2.1-4.3.3-.5,1-.7,1.3-.8h.2c.4,0,1-.1,1-.7s-.4-1-1-1"/>
  <path class="st1" d="M241.7,96.6c-.9,10.4-11.6,27.6-29.3,32.9h-.3c0,0,0,.1,0,.1h0s0,0,0,0h0s-.3-.1-.3-.1c-17.7-5.3-28.4-22.5-29.4-32.8,0,0,0-43.5,0-43.5h59.6v43.3ZM180.5,51.7s0,45,0,45.1c1,10.8,12.1,28.6,30.4,34.1l1,.2.9-.2c18.3-5.5,29.5-23.5,30.4-34.4v-44.8h-62.7Z"/>
  <path class="st4" d="M216.7,91.2h0s0,0,0,0c0,0-.5.6-1.1.5,0,.2.1.4,0,.7-.3.4-.7.3-.8.3h-.1s0-.1,0-.1c0,0,0,0,0-.2,0-.1,0-.3-.3-.5-.1,0-.4-.1-.6-.1h0s0,0,0,0h-1.5v3.9c0,.1,0,.4.1.6.2.2.4.3.5.2.1,0,.2,0,.2,0h0c0,0,0,0,0,0,0,.2.1.5-.3.8-.3.2-.5.1-.7,0,.2.6-.5,1.1-.5,1.1h0s0,0,0,0h0s-.6-.5-.5-1.1c-.2,0-.4.1-.7,0-.4-.3-.3-.6-.3-.8h0c0-.1,0,0,0,0,0,0,.1,0,.2,0,.1,0,.3,0,.5-.2,0-.1.1-.4.1-.5h0s0,0,0,0v-3.9h-1.6c-.1,0-.4,0-.6,0-.3.2-.3.4-.3.5,0,.1,0,.2,0,.2h0c0,0-.1.1-.1.1-.2,0-.6.1-.8-.3-.2-.2-.1-.5,0-.7-.6.2-1.1-.5-1.1-.5h0c0,0,0,0,0,0,0,0,.5-.6,1.1-.5,0-.2-.1-.4,0-.7.3-.4.7-.3.8-.3h.1s0,.1,0,.1c0,0,0,0,0,.2,0,.1,0,.3.3.5.1,0,.5.1.6.1h1.6v-2.2h0s0,0,0,0c0-.1,0-.4-.1-.5-.2-.2-.4-.3-.5-.2-.1,0-.2,0-.2,0h0c0,0,0,0,0,0,0-.2-.1-.5.3-.8.3-.2.5-.1.7,0-.2-.6.5-1.1.5-1.1h0s0,0,0,0h0s.6.5.5,1.1c.2,0,.4-.1.7,0,.4.3.3.6.3.8h0c0,.1,0,0,0,0,0,0-.1,0-.2,0-.1,0-.3,0-.5.2,0,.1-.1.4-.1.6v2.2h1.5c.1,0,.5,0,.6-.1.2-.2.3-.4.3-.5,0-.1,0-.2,0-.2h0c0,0,.1-.1.1-.1.2,0,.6-.1.8.3.2.2.1.5,0,.7.6-.2,1.1.5,1.1.5h0ZM217.9,91c-.4-.8-.9-1-1.3-1.2,0-.1-.1-.2-.2-.4-.5-.8-1.4-.9-2.1-.6-.2,0-.4.2-.5.2v-.2c.1,0,.2,0,.2,0,.1-.1.2-.3.3-.6.2-.6.1-1.5-.6-2-.1,0-.2-.1-.4-.2-.1-.4-.4-.9-1.2-1.3h-.2c0-.1-.2,0-.2,0-.8.4-1.1.8-1.2,1.3-.1,0-.3.1-.4.2-.8.5-.9,1.4-.6,2,.1.3.2.5.3.6h0s.2.2.2.2c-.1,0-.3-.1-.5-.2-.6-.2-1.5-.1-2.1.6,0,.1-.1.2-.2.4-.4.1-.9.4-1.3,1.2v.2c-.1,0,0,.2,0,.2.4.8.9,1,1.3,1.2,0,.1.1.2.2.4.5.8,1.4.9,2.1.6.4-.1.5-.2.6-.3h0s.1-.1.2-.2v2l-.2-.2-.3.4h0c-.1.2-.2.3-.3.7-.2.6-.1,1.5.6,2,.1,0,.2.1.4.2.1.4.4.9,1.2,1.3h.2c0,.1.2,0,.2,0,.8-.4,1.1-.8,1.2-1.3.1,0,.2-.1.4-.2.8-.5.9-1.4.6-2-.1-.3-.2-.5-.3-.6h0s-.3-.5-.3-.5l-.2.2v-2l.2.2h0c.1.1.3.2.6.4.6.2,1.5.1,2.1-.6,0-.1.1-.2.2-.4.4-.1.9-.4,1.3-1.2v-.2c.1,0,0-.2,0-.2Z"/>
  <path class="st4" d="M193.9,108.1c.2-.5.6-.8,1.3-.8s.5,0,.7,0c.1,0,.2,0,.3,0h.3c0,0,.1,0,.1,0,0-.1-.2-.3-.4-.4-.4-.1-.8-.5-.9-.9,0-.2,0-.5.2-.8.2-.2.5-.4.8-.4s.2,0,.4,0c.5.2.8.6.8,1.1,0,.3.2,1,.6,1.2.1,0,.3,0,.5,0,1.3,0,2.8-2,2.9-2v-.2c.1,0,.3,0,.3,0,0,0,.6.2,1.4.2s.3,0,.5,0h.4c0,0-.2.4-.2.4,0,0-.5,1.3-2.9,2.5-.2,0-.2.2-.2.2,0,0,0,0,.1,0,.1,0,.2,0,.3,0,.1,0,.2,0,.3,0,.2,0,.5-.2.8-.2s.3,0,.4,0c.3.1.4.4.5.7.1.4,0,.8-.4,1.1-.2.1-.4.2-.7.2s-.5,0-.7-.2c0,0-.3-.2-.4-.3,0,0-.2-.1-.4-.1-.3,0-.6,0-.7.1-.4.2-.8.9-1,1.9-.2.9-.6,1.6-1.3,1.8-.1,0-.3,0-.4,0-.3,0-.6,0-.7-.3-.4-.4-.6-.8-.6-1.2,0-.9,1-1.5,1.4-1.8h.1c.5-.4,1-.9.8-1.3,0,0-.2-.2-.4-.2,0,0-.2,0-.3,0-.5,0-1,.2-1.4.5-.3.2-.6.4-1,.4s-.6,0-.8-.2c-.5-.3-.6-.8-.4-1.4M193.5,105.6s.2-1.5,1.9-.9c0,0-.4.2-.5.6,0,0-.8-.6-1.4.3M193.2,111.1s-1.5-1.4.2-2.7c0,0-.2.4.2,1,0,0-1,.4-.3,1.7M189.5,99.6s5.7,1.7,8-3.9c-3.8,2.9-6.3,2.6-7.4,2.1-1.5-.7-1.8-2.9-1.8-2.9,2.6,1.1,6.3-.7,8.3-3-5.3.8-7.6-.7-8.1-1.6-.9-1.4-1.7-3.6-1.7-3.6,1.4,1.3,6.2,2.9,8.9,1.5-5.5-2.6-7.9-3.5-8.4-4.7-.6-1.5-.6-4.1-.6-4.1,1,1.8,5.7,3.6,9.2,4.1-5.6-3.6-7.9-6-8.1-7.4-.2-1.6.2-4.1.2-4.1,1,2.8,9.7,7.2,9.7,7.2,0,.6,0,1.2,0,1.7,0,0-1,.3-2.1,1.3,0,0,.5,1.4,1.1,2.2,0,0-1.3.9-1.7,1.9,0,0,0,.7,1.5,1.8,0,0-.4.4-1,1.7,0,0,.9.9,1.9,1.3,0,0-.5,1-.4,2.1,0,0,1.2,1.1,2.5,1.1,0,0,.1.7.9,1.8.3.4,1.4,1.3,1.4,1.3,0,0,1.9-.7,2.4-1.2v.3c.1,0,.2.5,1,1.6,0,0-1.4,5.6-8.9,5.7,4.4-1.4,4.6-5.5,4.6-5.5-4.4,4.7-7.2,5.2-8.5,4.5-1.5-.8-2.8-3-2.8-3M200.6,75.8c-.4,6.9,5.1,5.1,4.7,8.6-.4,2.9-3.6.8-3.6.8-.6,4,1.8,4.4,1.8,4.4,0,0-.1,1-.2,2,0,1.2.1,1.3,0,1.9,0,1.2-.3,1.2-1.4,1.8,0,0-.4-.4-.7-.8-.7-1.3.5-3.2.5-3.2-1.3,1.5-3.1,1-3.1,1,.1-1.3,1.9-2.5,1.9-2.5-1.6.3-2.9-.6-2.9-.6.5-.8,2.2-1.9,2.2-1.9-1.7-.1-2.9-1.1-2.9-1.1.5-.7,2.4-1.6,2.4-1.6-.9-.5-1.8-2-1.8-2,1.3-.7,2.8-.5,2.8-.5-2.4-1.7.2-6.3.2-6.3M204.8,76.7c0,.3.4.8.7,1.1.5.4,4.7.1,5.2.1-.4-.8-2.3-2.2-3.4-2.2-1.1,0-1.4,1-1.4,1-.5-.5-.6-1.4.1-2.1.6-.6,3.5-.8,3.7-.9.1-.2.3-.6,1-.5.7.1,1.3,1.2,3.2.7,0,0,1.6-.1,1.2-1-.1-.4-1-.4-1-.4,0,0,1.9-.3,1.7,1.2-.1,1.1-1.8.9-1.9,2.8,0,.3-.1,4,1.9,5.4,0,0-2.5-.2-3.5-2.7,0,0,0,1.9-.6,1.9-.6,0-.8-1.8-.8-1.8-.2,2.4-3.1,2.2-3.1,2.2,2-.3,1.4-1.3,1.2-1.6-.3-.5-1.1-.2-1.4-.2-1.3.4-1.2-.5-1.2-.5h3.3c.9,0,.8-.8.9-1.1-.4,0-4.5.1-4.8.1-.3,0-.5,0-1-.3-.5-.3-.3-1.4-.3-1.4M223.2,75.8s2.6,4.6.2,6.3c0,0,1.5-.1,2.8.5,0,0-.9,1.5-1.8,2,0,0,1.9.9,2.4,1.6,0,0-1.2,1-2.9,1.1,0,0,1.7,1.1,2.2,1.9,0,0-1.3.9-2.9.6,0,0,1.8,1.2,1.9,2.5,0,0-1.8.5-3.1-1,0,0,1.2,1.9.5,3.2-.2.4-.7.8-.7.8-1.1-.5-1.3-.6-1.4-1.8,0-.6.1-.7,0-1.9,0-1-.2-2-.2-2,0,0,2.4-.4,1.8-4.4,0,0-3.3,2.1-3.6-.8-.4-3.5,5.1-1.7,4.7-8.6M226.1,79.1s8.7-4.4,9.7-7.2c0,0,.4,2.5.2,4.1-.1,1.4-2.5,3.8-8.1,7.4,3.4-.5,8.1-2.3,9.2-4.1,0,0,0,2.6-.6,4.1-.5,1.2-2.9,2.1-8.4,4.7,2.7,1.4,7.5-.2,8.9-1.5,0,0-.8,2.3-1.7,3.6-.6.9-2.8,2.3-8.1,1.6,2,2.4,5.7,4.1,8.3,3,0,0-.3,2.2-1.8,2.9-1.1.5-3.6.8-7.4-2.1,2.3,5.6,8,3.9,8,3.9,0,0-1.3,2.2-2.8,3-1.3.7-4.1.1-8.5-4.5,0,0,.3,4.1,4.6,5.5-7.6-.2-8.9-5.7-8.9-5.7.7-1,.8-1.6.8-1.6v-.3c.6.5,2.5,1.2,2.5,1.2,0,0,1.1-.9,1.4-1.3.7-1,.9-1.8.9-1.8,1.3,0,2.5-1.1,2.5-1.1,0-1.1-.4-2.1-.4-2.1.9-.4,1.9-1.3,1.9-1.3-.6-1.3-1-1.7-1-1.7,1.5-1.1,1.5-1.8,1.5-1.8-.4-.9-1.7-1.9-1.7-1.9.6-.7,1.1-2.2,1.1-2.2-1.1-1-2.1-1.3-2.1-1.3.2-.6.1-1.1,0-1.7M230.6,111.1c.7-1.3-.3-1.7-.3-1.7.4-.6.2-1,.2-1,1.7,1.3.2,2.7.2,2.7M228.9,105.3c0-.4-.5-.6-.5-.6,1.7-.6,1.9.9,1.9.9-.6-.9-1.4-.3-1.4-.3M229.5,109.5c-.2.2-.5.2-.8.2s-.7-.1-1-.4c-.4-.3-.9-.5-1.4-.5s-.2,0-.3,0c-.2,0-.4.1-.4.2-.2.4.3.9.8,1.2h.1c.4.4,1.4,1,1.4,1.9,0,.4-.2.8-.6,1.2-.2.2-.5.3-.7.3s-.3,0-.4,0c-.7-.2-1.1-.9-1.3-1.8-.2-1-.5-1.7-1-1.9-.2,0-.5-.1-.7-.1s-.3,0-.4.1c-.1,0-.4.3-.4.3-.2.1-.5.2-.7.2s-.5,0-.7-.2c-.4-.3-.5-.7-.4-1.1,0-.4.3-.6.5-.7.1,0,.3,0,.4,0,.3,0,.6.1.8.2,0,0,.2,0,.3,0s.3,0,.3,0c0,0,0,0,0,0,0,0,0,0-.2-.2-2.4-1.1-2.9-2.4-2.9-2.5l-.2-.4h.4c.2,0,.3,0,.5,0,.8,0,1.4-.2,1.4-.2h.2c0,0,.1,0,.1,0,0,0,1.6,2,2.9,2,.2,0,.3,0,.5,0,.4-.2.6-.8.6-1.2,0-.5.3-.9.8-1.1.1,0,.2,0,.4,0,.3,0,.6.1.8.4.3.3.3.7.2.8-.1.5-.6.8-.9.9-.2,0-.4.2-.4.4,0,0,0,0,.1,0,0,0,.3,0,.3,0,.1,0,.2,0,.3,0,.2,0,.4,0,.7,0,.7,0,1.1.3,1.3.8.2.6,0,1.1-.4,1.4M227.5,115.5c1.1-1,.3-1.7.3-1.7.6-.4.5-.9.5-.9,1.1,1.8-.8,2.6-.8,2.6M220.4,119s1.5-4.6-.8-5.7c0,0-2.1,2-5-1.9-.6-.8-.9-1.7-.9-1.7,1.2.7,3.2.1,3.2.1,0,0,0,.5,1.7,1.3,2.7,1.1,5.5,3.9,1.8,7.9M218.2,119.3c-1.1.9-2-1.6-2-1.6,0,0-.1,2.3-2.1,2.3,0,0,3-1.7-.1-5.7.3,2.8-.7,5.4-2.1,5.4s-2.4-2.6-2.1-5.4c-3.1,4-.1,5.7-.1,5.7-2,0-2.1-2.3-2.1-2.3,0,0-.9,2.5-2,1.6-1.7-1.3,1.3-2.7,1.3-2.7-1.7-.1-2-1.1-2-1.1,4.4.5,6.3-4,6.3-4,.3.3.5.3.7.4.2-.1.5-.2.7-.4,0,0,1.9,4.4,6.3,4,0,0-.3.9-2,1.1,0,0,3,1.3,1.3,2.7M206,99.4h0s0,0,0,0c.2.3,1.5,2.1,1.9,3.3,0,0-2.9,2.5-2.4,5.2,0,0-1-2-.3-3.4,0-.1.4-1,.4-1,0,0-2.6,1.2-4.2.3,0,0,1.8.2,3.8-2.9.7-1.1.8-1.4.8-1.5M217.6,96.6c-3.6,6.2-6.2,7.1-1.2,11.3,0,0-3.2.9-4-1.8,0,0,.2,3-.6,3.8-.8-.8-.6-3.7-.6-3.7-.7,2.7-4,1.8-4,1.8,5.1-4.3,2.4-5.1-1.2-11.3-3.5-6,.3-8.7,2-13,.8,0,2.1-.4,2.7-1,0,0,.3.5,1,.7.7-.2,1.1-.7,1.1-.7.5.6,2,1,2.7,1,1.7,4.4,5.5,7.1,2,13M218.2,103.5s.3.8.4,1c.7,1.5-.3,3.4-.3,3.4.5-2.7-2.4-5.2-2.4-5.2.4-1.2,1.7-3,1.9-3.3,0,0,0,0,0,0h0c0,.1.1.4.8,1.5,2,3.1,3.8,2.9,3.8,2.9-1.7.9-4.2-.3-4.2-.3M220.2,109.8s0,0-.2,0c-.3.1-.5.4-.4,1.1,0,0-1-1,.4-1.8h.2c0,0-.2.3,0,.6M203.5,109.1h.1c1.4.9.4,1.9.4,1.9.1-.7-.1-1-.4-1.1-.1,0-.2,0-.2,0,.2-.3,0-.7,0-.7M203.4,119c-3.7-4-.9-6.8,1.8-7.9,1.8-.7,1.7-1.3,1.7-1.3,0,0,2,.6,3.2-.1,0,0-.3.9-.9,1.7-3,3.9-5,1.9-5,1.9-2.4,1.1-.8,5.7-.8,5.7M195.5,112.9s0,.4.5.9c0,0-.8.7.3,1.7,0,0-1.9-.8-.8-2.6M211.9,128.1c17.7-5.3,27.4-22.5,28.2-31.5v-26.2h-56.5v26.2c.8,9,10.5,26.2,28.3,31.5"/>
  <path class="st4" d="M211,75.4c0-.1,0-.2,0-.3h.4s.1,0,.1,0h0c0-.1-.1-.6-.1-.6h0c0-.1-.1,0-.1,0l-2.3.9h1.3c0,0,0,.2,0,.2,0,.3.2.5.5.5s.5-.2.5-.5"/>
  <path class="st3" d="M194.9,105.3c0-.4.5-.6.5-.6-1.7-.6-1.9.9-1.9.9.6-.9,1.4-.3,1.4-.3"/>
  <path class="st3" d="M193.4,108.5c-1.7,1.3-.2,2.7-.2,2.7-.7-1.3.3-1.7.3-1.7-.4-.6-.2-1-.2-1"/>
  <path class="st3" d="M196,113.8c-.6-.4-.5-.9-.5-.9-1.1,1.8.8,2.6.8,2.6-1.1-1-.3-1.7-.3-1.7"/>
  <path class="st3" d="M220,109.2c-1.4.8-.4,1.8-.4,1.8-.1-.7.1-1,.4-1.1.1,0,.2,0,.2,0-.2-.3,0-.7,0-.7h-.2Z"/>
  <path class="st3" d="M228.4,104.7s.4.2.5.6c0,0,.8-.6,1.4.3,0,0-.2-1.5-1.9-.9"/>
  <path class="st3" d="M230.4,108.5s.2.4-.2,1c0,0,1,.4.3,1.7,0,0,1.5-1.4-.2-2.7"/>
  <path class="st3" d="M227.8,113.8s.8.7-.3,1.7c0,0,1.9-.8.8-2.6,0,0,0,.4-.5.9"/>
  <path class="st3" d="M209.3,111.4c.6-.8.9-1.7.9-1.7-1.2.7-3.2.1-3.2.1,0,0,0,.5-1.7,1.3-2.7,1.1-5.5,3.9-1.8,7.9,0,0-1.5-4.6.8-5.7,0,0,2.1,2,5-1.9"/>
  <path class="st3" d="M200.4,82.1s-1.5-.1-2.8.5c0,0,.9,1.5,1.8,2,0,0-1.9.9-2.4,1.6,0,0,1.2,1,2.9,1.1,0,0-1.7,1.1-2.2,1.9,0,0,1.3.9,2.9.6,0,0-1.8,1.2-1.9,2.5,0,0,1.8.5,3.1-1,0,0-1.2,1.9-.5,3.2.2.4.7.8.7.8,1.1-.5,1.3-.6,1.4-1.8,0-.6-.1-.7,0-1.9,0-1,.2-2,.2-2,0,0-2.4-.4-1.8-4.4,0,0,3.3,2.1,3.6-.8.4-3.5-5.1-1.7-4.7-8.6,0,0-2.6,4.6-.2,6.3"/>
  <path class="st3" d="M200.8,98.1s-.3,4.1-4.6,5.5c7.6-.2,8.9-5.7,8.9-5.7-.7-1-.9-1.6-.9-1.6v-.3c-.6.5-2.5,1.2-2.5,1.2,0,0-1.1-.9-1.4-1.3-.7-1-.9-1.8-.9-1.8-1.3,0-2.5-1.1-2.5-1.1,0-1.1.4-2.1.4-2.1-.9-.4-1.9-1.3-1.9-1.3.6-1.3,1-1.7,1-1.7-1.5-1.1-1.5-1.8-1.5-1.8.4-.9,1.7-1.9,1.7-1.9-.6-.7-1.1-2.2-1.1-2.2,1.1-1,2.1-1.3,2.1-1.3-.2-.6-.1-1.1,0-1.7,0,0-8.7-4.4-9.7-7.2,0,0-.4,2.5-.2,4.1.1,1.4,2.5,3.8,8.1,7.4-3.4-.5-8.1-2.3-9.2-4.1,0,0,0,2.6.6,4.1.5,1.2,2.9,2.1,8.4,4.7-2.7,1.4-7.5-.2-8.9-1.5,0,0,.8,2.3,1.7,3.6.6.9,2.8,2.3,8.1,1.6-2,2.4-5.7,4.1-8.3,3,0,0,.3,2.2,1.8,2.9,1.1.5,3.6.8,7.4-2.1-2.3,5.6-8,3.9-8,3.9,0,0,1.3,2.2,2.8,3,1.3.7,4.1.1,8.5-4.5"/>
  <path class="st3" d="M201.3,103.8c1.7.9,4.2-.3,4.2-.3,0,0-.3.8-.4,1-.7,1.5.3,3.4.3,3.4-.5-2.7,2.4-5.2,2.4-5.2-.4-1.2-1.7-3-1.9-3.3,0,0,0,0,0,0h0c0,.1-.1.4-.8,1.5-2,3.1-3.8,2.9-3.8,2.9"/>
  <path class="st3" d="M222.4,103.8s-1.8.2-3.8-2.9c-.7-1.1-.8-1.4-.8-1.5h0s0,0,0,0c-.2.3-1.5,2.1-1.9,3.3,0,0,2.9,2.5,2.4,5.2,0,0,1-2,.3-3.4,0-.1-.4-1-.4-1,0,0,2.6,1.2,4.2.3"/>
  <path class="st3" d="M196.1,109.4c.4-.3.9-.5,1.4-.5s.2,0,.3,0c.2,0,.4.1.4.2.2.4-.3.9-.8,1.2h-.1c-.4.4-1.4,1-1.4,1.9,0,.4.2.8.6,1.2.2.2.5.3.7.3s.3,0,.4,0c.7-.2,1.1-.9,1.3-1.8.2-1,.5-1.7,1-1.9.1,0,.4-.1.7-.1s.3,0,.4.1c.1,0,.4.3.4.3.2.1.5.2.7.2s.5,0,.7-.2c.4-.3.5-.7.4-1.1,0-.4-.3-.6-.5-.7-.1,0-.3,0-.4,0-.3,0-.6.1-.8.2,0,0-.2,0-.3,0s-.2,0-.3,0c0,0-.1,0-.1,0,0,0,0,0,.2-.2,2.4-1.1,2.9-2.4,2.9-2.5l.2-.4h-.4c-.2,0-.3,0-.5,0-.8,0-1.4-.2-1.4-.2h-.2c0,0-.1,0-.1,0,0,0-1.6,2-2.9,2s-.3,0-.5,0c-.4-.2-.6-.9-.6-1.2,0-.5-.3-.9-.8-1.1-.1,0-.2,0-.4,0-.3,0-.6.1-.8.4-.3.3-.3.6-.2.8.1.4.5.8.9.9.2,0,.4.2.4.4,0,0,0,0-.1,0h-.3s-.2,0-.3,0c-.2,0-.4,0-.7,0-.7,0-1.1.3-1.3.8-.2.6,0,1.1.4,1.4.2.2.5.2.8.2s.7-.1,1-.4"/>
  <path class="st3" d="M203.6,109.9c.3.1.5.4.4,1.1,0,0,1-1-.4-1.8h-.1c0,0,.2.3,0,.6,0,0,0,0,.2,0"/>
  <path class="st3" d="M218.6,111.1c-1.8-.7-1.7-1.3-1.7-1.3,0,0-2,.6-3.2-.1,0,0,.3.9.9,1.7,3,3.9,5,1.9,5,1.9,2.4,1.1.8,5.7.8,5.7,3.7-4,.9-6.8-1.8-7.9"/>
  <path class="st3" d="M222,85.2c.6,4-1.8,4.4-1.8,4.4,0,0,.1,1,.2,2,0,1.2-.1,1.3,0,1.9,0,1.2.3,1.2,1.4,1.8,0,0,.4-.4.7-.8.7-1.3-.5-3.2-.5-3.2,1.3,1.5,3.1,1,3.1,1-.1-1.3-1.9-2.5-1.9-2.5,1.6.3,2.9-.6,2.9-.6-.5-.8-2.2-1.9-2.2-1.9,1.7-.1,2.9-1.1,2.9-1.1-.5-.7-2.4-1.6-2.4-1.6.9-.5,1.8-2,1.8-2-1.3-.7-2.8-.5-2.8-.5,2.4-1.7-.2-6.3-.2-6.3.4,6.9-5.1,5.1-4.7,8.6.4,2.9,3.6.8,3.6.8"/>
  <path class="st3" d="M228.1,82.1s-.5,1.4-1.1,2.2c0,0,1.3.9,1.7,1.9,0,0,0,.7-1.5,1.8,0,0,.4.4,1,1.7,0,0-.9.9-1.9,1.3,0,0,.5,1,.4,2.1,0,0-1.2,1.1-2.5,1.1,0,0-.1.7-.9,1.8-.3.4-1.4,1.3-1.4,1.3,0,0-1.9-.7-2.4-1.2v.3c-.1,0-.2.5-1,1.6,0,0,1.4,5.6,8.9,5.7-4.4-1.4-4.6-5.5-4.6-5.5,4.4,4.7,7.2,5.2,8.5,4.5,1.5-.8,2.8-3,2.8-3,0,0-5.7,1.7-8-3.9,3.9,2.9,6.3,2.6,7.4,2.1,1.5-.7,1.8-2.9,1.8-2.9-2.6,1.1-6.3-.7-8.3-3,5.3.8,7.6-.7,8.1-1.6.9-1.4,1.7-3.6,1.7-3.6-1.4,1.3-6.2,2.9-8.9,1.5,5.5-2.6,7.9-3.5,8.4-4.7.6-1.5.6-4.1.6-4.1-1,1.8-5.7,3.6-9.2,4.1,5.6-3.6,7.9-6,8.1-7.4.2-1.6-.2-4.1-.2-4.1-1,2.8-9.7,7.2-9.7,7.2,0,.6,0,1.2,0,1.7,0,0,1,.3,2.1,1.3"/>
  <path class="st3" d="M228.6,107.3c-.3,0-.5,0-.7,0-.1,0-.2,0-.3,0s-.3,0-.3,0c0,0-.1,0-.1,0,0-.1.2-.3.4-.4.3-.1.8-.4.9-.9,0-.2,0-.5-.2-.8-.2-.2-.5-.4-.8-.4s-.3,0-.4,0c-.5.2-.8.6-.8,1.1,0,.3-.2,1-.6,1.2-.1,0-.3,0-.5,0-1.3,0-2.8-2-2.9-2v-.2c-.1,0-.3,0-.3,0,0,0-.6.2-1.4.2s-.3,0-.5,0h-.4c0,0,.2.4.2.4,0,0,.5,1.3,2.9,2.5.2,0,.2.2.2.2,0,0,0,0,0,0,0,0-.2,0-.3,0s-.2,0-.3,0c-.2,0-.5-.2-.8-.2s-.3,0-.4,0c-.3.1-.4.4-.5.7-.1.4,0,.8.4,1.1.2.1.4.2.7.2s.5,0,.7-.2c0,0,.3-.2.4-.3,0,0,.2-.1.4-.1s.5,0,.7.1c.4.2.8.9,1,1.9.2.9.6,1.6,1.3,1.8.1,0,.3,0,.4,0,.3,0,.6,0,.7-.3.4-.4.6-.8.6-1.2,0-.9-1-1.5-1.4-1.8h-.1c-.5-.4-1-.9-.8-1.3,0,0,.2-.2.4-.2,0,0,.2,0,.3,0,.5,0,1,.2,1.4.5.3.2.6.4,1,.4s.6,0,.8-.2c.5-.3.6-.8.4-1.4-.2-.5-.6-.8-1.3-.8"/>
  <path class="st3" d="M218.9,115.6c-4.4.5-6.3-4-6.3-4-.3.3-.5.3-.7.4-.2-.1-.5-.2-.7-.4,0,0-1.9,4.4-6.3,4,0,0,.3.9,2,1.1,0,0-3,1.3-1.3,2.7,1.1.9,2-1.6,2-1.6,0,0,.1,2.3,2.1,2.3,0,0-3-1.7.1-5.7-.3,2.8.7,5.4,2.1,5.4s2.4-2.6,2.1-5.4c3.1,4,.1,5.7.1,5.7,2,0,2.1-2.3,2.1-2.3,0,0,.9,2.5,2,1.6,1.7-1.3-1.3-2.7-1.3-2.7,1.7-.1,2-1.1,2-1.1"/>
  <path class="st3" d="M210.5,75.9c-.3,0-.5-.2-.5-.5v-.2c0,0-1.2,0-1.2,0l2.3-.9h.1s0,0,0,0v.5c.1,0,.2.1.2.1h-.1s-.4,0-.4,0c0,0,0,.2,0,.3,0,.3-.2.5-.5.5M205.1,78.1c.5.3.7.3,1,.3.3,0,4.3,0,4.8-.1,0,.3,0,1.1-.9,1.1h-3.3s0,.8,1.2.5c.3,0,1.1-.3,1.4.2.2.3.8,1.3-1.2,1.6,0,0,2.9.2,3.1-2.2,0,0,.2,1.8.8,1.8.6,0,.6-1.9.6-1.9,1,2.5,3.5,2.7,3.5,2.7-2.1-1.4-2-5.1-1.9-5.4.1-1.9,1.8-1.7,1.9-2.8.2-1.5-1.7-1.2-1.7-1.2,0,0,.8,0,1,.4.3.9-1.2,1-1.2,1-1.9.5-2.5-.6-3.2-.7-.7-.1-.8.3-1,.5-.1.2-3.1.3-3.7.9-.7.7-.6,1.6-.1,2.1,0,0,.3-1,1.4-1,1.1,0,2.9,1.4,3.4,2.2-.5,0-4.6.3-5.2-.1-.3-.2-.7-.7-.7-1.1,0,0-.2,1,.3,1.4"/>
  <path class="st3" d="M216.6,92.6c0,.1-.1.2-.2.4-.5.8-1.4.9-2.1.6-.4-.1-.5-.2-.6-.3h0s-.2-.2-.2-.2v2l.2-.2.3.4h0c.1.2.2.3.3.7.2.6.1,1.5-.6,2-.1,0-.2.1-.4.2-.1.4-.4.9-1.2,1.3h-.2c0,.1-.2,0-.2,0-.8-.4-1.1-.9-1.2-1.3-.1,0-.2-.1-.4-.2-.8-.5-.9-1.4-.6-2,.1-.3.2-.5.3-.6h0s.3-.5.3-.5l.2.2v-2c-.1,0-.2.2-.2.2h0c-.1.1-.3.2-.6.4-.6.2-1.5.1-2.1-.6,0-.1-.1-.2-.2-.4-.4-.1-.9-.4-1.3-1.2v-.2c-.1,0,0-.2,0-.2.4-.8.9-1,1.3-1.2,0-.1.1-.2.2-.4.5-.8,1.4-.9,2.1-.6.2,0,.4.2.5.2l-.2-.2h0c-.1-.2-.2-.3-.3-.7-.2-.6-.1-1.5.6-2,.1,0,.2-.1.4-.2.1-.4.4-.9,1.2-1.3h.2c0-.1.2,0,.2,0,.8.4,1.1.9,1.2,1.3.1,0,.2.1.4.2.8.5.9,1.4.6,2-.1.3-.2.5-.3.6h0s-.1.2-.1.2c.1,0,.2-.1.5-.2.6-.2,1.5-.1,2.1.6,0,.1.1.2.2.4.4.1.9.4,1.3,1.2v.2c.1,0,0,.2,0,.2-.4.8-.9,1-1.3,1.2M215.6,83.6c-.7,0-2.2-.4-2.7-1,0,0-.3.5-1.1.7-.7-.2-1-.7-1-.7-.6.6-1.9.9-2.7,1-1.7,4.4-5.5,7.1-2,13,3.6,6.2,6.2,7.1,1.2,11.3,0,0,3.2.9,4-1.8,0,0-.1,2.9.6,3.7.8-.8.6-3.8.6-3.8.7,2.7,4,1.8,4,1.8-5.1-4.3-2.4-5.1,1.2-11.3,3.5-6-.3-8.6-2-13"/>
  <path class="st3" d="M215.6,90.7c0-.2.1-.4,0-.7-.3-.4-.7-.3-.8-.3h-.1s0,.1,0,.1c0,0,0,0,0,.2,0,.1,0,.3-.3.5-.1,0-.5.1-.6.1h-1.5v-2.2c0-.1,0-.4.1-.6.2-.2.4-.3.5-.2.1,0,.2,0,.2,0h0c0,0,0,0,0,0,0-.2.1-.5-.3-.8-.3-.2-.5-.1-.7,0,.2-.6-.5-1.1-.5-1.1h0s0,0,0,0h0s-.6.5-.5,1.1c-.2,0-.4-.1-.7,0-.4.3-.3.6-.3.8h0c0,.1,0,0,0,0,0,0,.1,0,.2,0,.1,0,.3,0,.5.2,0,.1.1.4.1.5h0v2.2h-1.6c-.1,0-.5,0-.6-.1-.3-.2-.3-.4-.3-.5,0-.1,0-.2,0-.2h0c0,0-.1-.1-.1-.1-.2,0-.6-.1-.8.3-.2.2-.1.5,0,.7-.6-.2-1.1.5-1.1.5h0c0,0,0,0,0,0,0,0,.5.6,1.1.5,0,.2-.1.4,0,.7.3.4.7.3.8.3h.1s0-.1,0-.1c0,0,0,0,0-.2,0-.1,0-.3.3-.5.1,0,.4-.1.6-.1h0s0,0,0,0h1.6v3.9h0c0,.1,0,.4-.1.6-.2.2-.4.3-.5.2-.1,0-.2,0-.2,0h0c0,0,0,0,0,0,0,.2-.1.5.3.8.3.2.5.1.7,0-.2.6.5,1.1.5,1.1h0s0,0,0,0h0s.6-.5.5-1.1c.2,0,.4.1.7,0,.4-.3.3-.6.3-.8h0c0-.1,0,0,0,0,0,0-.1,0-.2,0-.1,0-.3,0-.5-.2,0-.1-.1-.4-.1-.6v-3.9h1.5c.1,0,.4,0,.6,0,.2.2.3.4.3.5,0,.1,0,.2,0,.2h0c0,0,.1.1.1.1.2,0,.6.1.8-.3.2-.2.1-.5,0-.7.6.2,1.1-.5,1.1-.5h0c0,0,0,0,0,0,0,0-.5-.6-1.1-.5"/>
  <path class="st2" d="M240.1,96.6c-.8,9-10.5,26.2-28.2,31.5-17.7-5.3-27.4-22.5-28.3-31.5v-26.2h56.5v26.2ZM195.9,65.6l-2.6-.2c0,.2-.2.9-.2,1.6,0,.5.3.7.5.8l.4.3h-2.6l.4-.3c.2-.1.5-.3.5-.8,0-.7,0-1.4-.2-1.6l-2.6.2.6-.9-2.6-2.4.8-.2-.5-1.8,1.7.4.3-.9,1,1.1-.3-2.8,1,.8,1.1-2.1,1.1,2.1,1-.8-.3,2.8,1-1.1.3.9,1.7-.4-.5,1.8.8.2-2.6,2.4.6.9ZM222,59v9.3h-8.4c0,0-.6-1.3-1.7-1.3s0,0,0,0c-1.1,0-1.6,1.2-1.7,1.2h0c0,0-8.3,0-8.3,0v-9.3h1.7v-1.4h1.3s1.7,0,2.6-.3c1.6-.6,2.9-.7,3.8-.2,0,0,0,0,.1,0,0,0,0,0,.1,0,0,0,0,0,0,0,.1,0,.2.2.3.3.1-.2.3-.3.5-.4,0,0,0,0,.1,0,.9-.5,2.2-.5,3.8.2.9.3,2.6.3,2.6.3h1.4v1.4h1.7ZM233.9,65.6l-2.6-.2c0,.2-.2.9-.2,1.6,0,.5.3.7.5.8l.4.3h-2.6l.4-.3c.2-.1.5-.3.5-.8,0-.7-.1-1.4-.2-1.6l-2.6.2.6-.9-2.6-2.4.8-.2-.5-1.8,1.7.4.3-.9,1,1.1-.3-2.8,1,.8,1.1-2.1,1.1,2.1,1-.8-.3,2.8,1-1.1.3.9,1.7-.4-.5,1.8.8.2-2.6,2.4.6.9ZM182,53.3s0,43.4,0,43.5c.9,10.3,11.7,27.5,29.4,32.8h.3c0,0,0,.1,0,.1h0s0,0,0,0h0s.3-.1.3-.1c17.7-5.3,28.4-22.5,29.3-32.9v-43.3h-59.6Z"/>
  <path class="st4" d="M197.2,62l.5-1.8-1.7.4-.3-.9-1,1.1.3-2.8-1,.8-1.1-2.1-1.1,2.1-1-.8.3,2.8-1-1.1-.3.9-1.7-.4.5,1.8-.8.2,2.6,2.4-.6.9,2.6-.2c0,.2.2.9.2,1.6,0,.5-.3.7-.5.8l-.4.3h2.6l-.4-.3c-.2-.1-.5-.3-.5-.8,0-.7.1-1.4.2-1.6l2.6.2-.6-.9,2.6-2.4-.8-.2Z"/>
  <path class="st4" d="M228.2,64.7l-.6.9,2.6-.2c0,.2.2.9.2,1.6,0,.5-.3.7-.5.8l-.4.3h2.6l-.4-.3c-.2-.1-.5-.3-.5-.8,0-.7,0-1.4.2-1.6l2.6.2-.6-.9,2.6-2.4-.8-.2.5-1.8-1.7.4-.3-.9-1,1.1.3-2.8-1,.8-1.1-2.1-1.1,2.1-1-.8.3,2.8-1-1.1-.3.9-1.7-.4.5,1.8-.8.2,2.6,2.4Z"/>
  <path class="st3" d="M212,67.1c1.1,0,1.7,1.2,1.7,1.2h0c0,0,8.3,0,8.3,0v-9.3h-1.7v7.9h-.1c-.1,0-2.5,0-3,0-.3,0-.8-.2-1.4-.4-1-.4-2.4-.9-3.3-.7,0,0-.1,0-.1,0,0,0-.1,0-.2.1,0,0,0,0,0,0,0,0,0,0-.1,0h0c0,.1,0,0,0,0-.1-.1-.2-.2-.4-.2,0,0,0,0-.1,0-.9-.2-2.2.3-3.3.7-.6.2-1,.4-1.4.4-.3,0-1.1,0-1.8,0-.6,0-1.2,0-1.2,0h-.1v-7.9h-1.7v9.3h8.4c0,0,.6-1.3,1.7-1.3,0,0,0,0,0,0"/>
  <path class="st3" d="M212,59l.6-.7v-1s0,0-.1,0c-.2.1-.3.2-.5.4-.1-.1-.2-.2-.3-.3,0,0,0,0,0,0,0,0,0,0-.1,0,0,0,0,0-.1,0v1l.6.7Z"/>
  <path class="st3" d="M212.1,65.2c0,0-.1,0-.2,0,0,0-.1,0-.2,0-.1,0-.3,0-.4-.1v.8s0,0,.1,0c.1,0,.3.1.4.2h0c0,.1,0,0,0,0,0,0,0,0,.1,0,0,0,0,0,0,0,0,0,.1,0,.2-.1,0,0,0,0,.1,0v-.8c-.2,0-.3,0-.4.1"/>
  <path class="st4" d="M219,57.7s-1.7,0-2.6-.3c-1.6-.6-2.9-.7-3.8-.2v8.7c.9-.2,2.2.3,3.3.7.6.2,1,.4,1.4.4.5,0,2.9,0,3,0h.1v-9.3h-1.4Z"/>
  <path class="st3" d="M212,65.2s0,0,.2,0c.1,0,.3,0,.4-.1v-6.8l-.6.7-.6-.7v6.8c.2,0,.3,0,.4.1,0,0,.1,0,.2,0"/>
  <path class="st4" d="M207.6,57.4c-.9.3-2.6.3-2.6.3h-1.3v9.3h.1s.6,0,1.2,0c.7,0,1.5,0,1.8,0,.3,0,.8-.2,1.4-.4,1-.4,2.4-.9,3.3-.7v-8.7c-.9-.5-2.2-.5-3.8.2"/>
</svg>