<svg xmlns="http://www.w3.org/2000/svg" width="416.125" height="72.554" viewBox="0 0 416.125 72.554">
  <g id="组_13853" data-name="组 13853" transform="translate(-50 -207)">
    <g id="组_2227" data-name="组 2227" transform="translate(50 207)">
      <g id="组_2226" data-name="组 2226">
        <path id="路径_29810" data-name="路径 29810" d="M115.5,369.479a34.156,34.156,0,0,1,34.156-34.163h0a34.157,34.157,0,0,1,34.161,34.163h0a34.158,34.158,0,0,1-34.161,34.155h0A34.157,34.157,0,0,1,115.5,369.479Z" transform="translate(-113.381 -333.196)" fill="#ffc400"/>
        <path id="路径_29811" data-name="路径 29811" d="M113.6,369.7a36.282,36.282,0,0,1,36.277-36.283h0A36.284,36.284,0,0,1,186.157,369.7h0a36.278,36.278,0,0,1-36.279,36.271h0A36.276,36.276,0,0,1,113.6,369.7Zm11.586-24.69a34.8,34.8,0,0,0-10.222,24.69h0a34.777,34.777,0,0,0,10.222,24.682h0a34.817,34.817,0,0,0,24.691,10.226h0a34.823,34.823,0,0,0,24.69-10.226h0A34.794,34.794,0,0,0,184.793,369.7h0a34.819,34.819,0,0,0-10.225-24.69h0a34.809,34.809,0,0,0-24.69-10.221h0a34.8,34.8,0,0,0-24.691,10.221Z" transform="translate(-113.601 -333.416)" fill="#1a1311"/>
        <path id="路径_29812" data-name="路径 29812" d="M115.5,369.479a34.156,34.156,0,0,1,34.156-34.163h0a34.157,34.157,0,0,1,34.161,34.163h0a34.158,34.158,0,0,1-34.161,34.155h0A34.157,34.157,0,0,1,115.5,369.479Zm10.486-23.671a33.363,33.363,0,0,0-9.81,23.671h0a33.381,33.381,0,0,0,9.81,23.668h0a33.38,33.38,0,0,0,23.67,9.8h0a33.384,33.384,0,0,0,23.67-9.8h0a33.37,33.37,0,0,0,9.808-23.668h0a33.352,33.352,0,0,0-9.808-23.671h0A33.358,33.358,0,0,0,149.657,336h0a33.354,33.354,0,0,0-23.67,9.809Z" transform="translate(-113.381 -333.196)" fill="#494412"/>
        <path id="路径_29813" data-name="路径 29813" d="M115.5,369.479a34.156,34.156,0,0,1,34.156-34.163h0a34.157,34.157,0,0,1,34.161,34.163h0a34.158,34.158,0,0,1-34.161,34.155h0A34.157,34.157,0,0,1,115.5,369.479Zm10.486-23.671a33.363,33.363,0,0,0-9.81,23.671h0a33.381,33.381,0,0,0,9.81,23.668h0a33.38,33.38,0,0,0,23.67,9.8h0a33.384,33.384,0,0,0,23.67-9.8h0a33.37,33.37,0,0,0,9.808-23.668h0a33.352,33.352,0,0,0-9.808-23.671h0A33.358,33.358,0,0,0,149.657,336h0a33.354,33.354,0,0,0-23.67,9.809Z" transform="translate(-113.381 -333.196)" fill="#1a1311"/>
        <g id="组_2217" data-name="组 2217" transform="translate(4.128 4.25)">
          <path id="路径_29814" data-name="路径 29814" d="M119.027,376.085l1.559-.7.063.147a1.75,1.75,0,0,0-.74.9,1.358,1.358,0,0,0,0,1.01.874.874,0,0,0,.427.485.618.618,0,0,0,.523.025.561.561,0,0,0,.247-.19,1.286,1.286,0,0,0,.186-.46,7.384,7.384,0,0,0,.088-.925,3.725,3.725,0,0,1,.294-1.444,1.416,1.416,0,0,1,.706-.635,1.445,1.445,0,0,1,1.213.037,1.83,1.83,0,0,1,.922,1,2.4,2.4,0,0,1,.135.445,3.375,3.375,0,0,1,.042.575.857.857,0,0,0,.046.308.4.4,0,0,0,.152.162.558.558,0,0,0,.285.075l.054.122-1.781.753-.052-.126a2.2,2.2,0,0,0,.893-1.078,1.523,1.523,0,0,0,0-1.117.969.969,0,0,0-.479-.537.69.69,0,0,0-.591-.025.709.709,0,0,0-.285.223,1.1,1.1,0,0,0-.182.4,3.986,3.986,0,0,0-.1.8,6.636,6.636,0,0,1-.147,1.152,1.76,1.76,0,0,1-.316.643,1.314,1.314,0,0,1-.541.408,1.369,1.369,0,0,1-1.136-.013,1.594,1.594,0,0,1-.841-.885,2.178,2.178,0,0,1-.137-.471,2.718,2.718,0,0,1-.015-.469,1.027,1.027,0,0,0-.028-.379.215.215,0,0,0-.117-.121.671.671,0,0,0-.3.016Z" transform="translate(-117.1 -332.935)" fill="#1a1311"/>
          <path id="路径_29815" data-name="路径 29815" d="M117.8,371.393a2.529,2.529,0,0,1,2.084-3.162,2.705,2.705,0,0,1,1.785.256,2.537,2.537,0,0,1,1.341,1.921,2.582,2.582,0,0,1-.546,2.264,2.711,2.711,0,0,1-1.619.9,2.579,2.579,0,0,1-2.006-.429A2.46,2.46,0,0,1,117.8,371.393Zm.234-.086a1.159,1.159,0,0,0,.893.922,3.86,3.86,0,0,0,1.711-.01,3.266,3.266,0,0,0,1.821-.79,1.051,1.051,0,0,0,.271-.956,1.1,1.1,0,0,0-.3-.6,1.558,1.558,0,0,0-.853-.368,4.091,4.091,0,0,0-1.388.06,4.548,4.548,0,0,0-1.459.453,1.428,1.428,0,0,0-.612.595A1.122,1.122,0,0,0,118.031,371.307Z" transform="translate(-117.251 -333.632)" fill="#1a1311"/>
          <path id="路径_29816" data-name="路径 29816" d="M117.3,366.952l.167-2.633.138.009-.009.131a.9.9,0,0,0,.037.411.383.383,0,0,0,.158.17,2,2,0,0,0,.543.08l2.5.158a2.669,2.669,0,0,0,.915-.043.856.856,0,0,0,.391-.315,1.086,1.086,0,0,0,.185-.585,1.24,1.24,0,0,0-.143-.711,1.127,1.127,0,0,0-.488-.466,3.07,3.07,0,0,0-1.133-.215l-2.086-.134a1.365,1.365,0,0,0-.493.036.438.438,0,0,0-.212.169,1,1,0,0,0-.117.463l-.136-.01.11-1.769.138.012-.01.1a.707.707,0,0,0,.065.364.466.466,0,0,0,.249.22,1.183,1.183,0,0,0,.427.078l1.941.125a5.171,5.171,0,0,1,1.293.2,1.454,1.454,0,0,1,.7.627,2.083,2.083,0,0,1,.258,1.272,2.383,2.383,0,0,1-.243,1.01,1.481,1.481,0,0,1-.663.659,2.15,2.15,0,0,1-1.027.138l-2.5-.162a1.8,1.8,0,0,0-.549.017.378.378,0,0,0-.184.159,1.127,1.127,0,0,0-.087.444Z" transform="translate(-117.3 -334.384)" fill="#1a1311"/>
          <path id="路径_29817" data-name="路径 29817" d="M119.332,355.67l1.329.4-.037.128a2.268,2.268,0,0,0-.739.06.985.985,0,0,0-.433.292,1.23,1.23,0,0,0-.213.462l-.109.367,3.786,1.138a1.737,1.737,0,0,0,.485.1.4.4,0,0,0,.214-.109.673.673,0,0,0,.17-.306l.047-.16.131.038-.766,2.55-.129-.039.046-.161a.711.711,0,0,0,.028-.366.378.378,0,0,0-.132-.2,1.638,1.638,0,0,0-.448-.179l-3.784-1.135-.113.366a1.119,1.119,0,0,0-.009.789,1.484,1.484,0,0,0,.715.653l-.039.129-1.329-.4Z" transform="translate(-117.218 -335.084)" fill="#1a1311"/>
          <path id="路径_29818" data-name="路径 29818" d="M123.292,353.831l1.368.8a1.747,1.747,0,0,0,.452.211.391.391,0,0,0,.234-.06.665.665,0,0,0,.234-.254l.083-.145.119.069-1.343,2.3-.118-.069.086-.148a.7.7,0,0,0,.111-.346.354.354,0,0,0-.083-.22,1.527,1.527,0,0,0-.394-.282l-2.909-1.7a1.615,1.615,0,0,0-.449-.213.389.389,0,0,0-.232.055.644.644,0,0,0-.237.257l-.086.148-.116-.068,1.341-2.3.118.069-.085.145a.686.686,0,0,0-.109.348.364.364,0,0,0,.079.223,1.612,1.612,0,0,0,.4.278l1.251.733.917-1.574-1.253-.73a1.684,1.684,0,0,0-.446-.214.358.358,0,0,0-.234.057.712.712,0,0,0-.24.258l-.083.143-.117-.068,1.346-2.3.115.069-.083.143a.676.676,0,0,0-.112.348.371.371,0,0,0,.079.227,1.78,1.78,0,0,0,.4.279L126.2,352a1.719,1.719,0,0,0,.451.216.4.4,0,0,0,.234-.06.682.682,0,0,0,.235-.257l.085-.143.117.069-1.343,2.3-.118-.068.083-.144a.662.662,0,0,0,.11-.346.365.365,0,0,0-.08-.227,1.542,1.542,0,0,0-.391-.278l-1.37-.8Z" transform="translate(-116.985 -335.83)" fill="#1a1311"/>
          <path id="路径_29819" data-name="路径 29819" d="M125.415,346.761l1.5,1.439.071-.071a.813.813,0,0,0,.267-.725,1.919,1.919,0,0,0-.46-.831l.093-.095,1.943,1.856-.095.1a2.033,2.033,0,0,0-.651-.358.839.839,0,0,0-.5-.013,1.237,1.237,0,0,0-.458.338l1.042,1a2.225,2.225,0,0,0,.4.334.317.317,0,0,0,.206.009.622.622,0,0,0,.262-.183l.212-.223a1.648,1.648,0,0,0,.251-2.2l.1-.1,1.016,1.291-3.052,3.191-.1-.094.117-.125a.677.677,0,0,0,.19-.313.334.334,0,0,0-.028-.234,1.643,1.643,0,0,0-.319-.362l-2.434-2.327a2.775,2.775,0,0,0-.325-.286.363.363,0,0,0-.246-.041.618.618,0,0,0-.345.208l-.119.122-.1-.09,2.953-3.09,1.09,1.046-.093.1a1.86,1.86,0,0,0-.786-.324,1.168,1.168,0,0,0-.646.163,3.006,3.006,0,0,0-.6.529Z" transform="translate(-116.539 -336.336)" fill="#1a1311"/>
          <path id="路径_29820" data-name="路径 29820" d="M132.724,344.743l-1.49.977.09.545a1.115,1.115,0,0,0,.141.407.342.342,0,0,0,.324.174,1.368,1.368,0,0,0,.47-.2l.073.115-1.422.934-.075-.115a.741.741,0,0,0,.251-.444,3.05,3.05,0,0,0-.065-.894l-.716-4.416.06-.041,3.839,2.507a2.6,2.6,0,0,0,.782.4.568.568,0,0,0,.379-.082l.075.11-2.069,1.359-.073-.113.087-.056a.8.8,0,0,0,.3-.3.206.206,0,0,0-.028-.193.407.407,0,0,0-.1-.108c-.016-.013-.1-.076-.251-.177Zm-.263-.17-1.58-1.04.306,1.878Z" transform="translate(-115.791 -336.695)" fill="#1a1311"/>
          <path id="路径_29821" data-name="路径 29821" d="M137.288,338.541l.647,1.58-.148.056a1.749,1.749,0,0,0-.879-.769,1.377,1.377,0,0,0-1.011-.03.9.9,0,0,0-.5.412.633.633,0,0,0-.038.527.554.554,0,0,0,.179.251,1.288,1.288,0,0,0,.455.2,7.642,7.642,0,0,0,.924.118,3.649,3.649,0,0,1,1.432.343,1.394,1.394,0,0,1,.612.722,1.454,1.454,0,0,1-.074,1.21,1.838,1.838,0,0,1-1.031.892,2.4,2.4,0,0,1-.449.121,3.641,3.641,0,0,1-.575.02.9.9,0,0,0-.306.04.366.366,0,0,0-.171.146.519.519,0,0,0-.081.28l-.126.051-.7-1.8.127-.05a2.215,2.215,0,0,0,1.048.929,1.539,1.539,0,0,0,1.119.029.977.977,0,0,0,.554-.46.7.7,0,0,0,.044-.593.675.675,0,0,0-.216-.29,1.041,1.041,0,0,0-.388-.2,4.473,4.473,0,0,0-.791-.124,5.8,5.8,0,0,1-1.147-.184,1.749,1.749,0,0,1-.635-.334,1.29,1.29,0,0,1-.386-.551,1.369,1.369,0,0,1,.046-1.135,1.592,1.592,0,0,1,.915-.814,2.041,2.041,0,0,1,.473-.122,3.437,3.437,0,0,1,.471,0,1.064,1.064,0,0,0,.378-.015.2.2,0,0,0,.124-.115.675.675,0,0,0,0-.306Z" transform="translate(-115.284 -337.071)" fill="#1a1311"/>
          <path id="路径_29822" data-name="路径 29822" d="M143.995,337.248l.224,1.369-.136.022a2.3,2.3,0,0,0-.373-.638,1.063,1.063,0,0,0-.455-.262,1.25,1.25,0,0,0-.507.015l-.379.059.633,3.9a1.685,1.685,0,0,0,.121.482.419.419,0,0,0,.192.145.668.668,0,0,0,.349.017l.166-.025.02.133-2.628.427-.02-.136.165-.027a.668.668,0,0,0,.338-.136.337.337,0,0,0,.119-.206,1.419,1.419,0,0,0-.032-.479l-.635-3.9-.377.061a1.1,1.1,0,0,0-.712.338,1.465,1.465,0,0,0-.276.925l-.135.025-.221-1.371Z" transform="translate(-114.731 -337.221)" fill="#1a1311"/>
          <path id="路径_29823" data-name="路径 29823" d="M148.656,337.224l2.6.443-.023.134-.131-.023a.859.859,0,0,0-.408,0,.327.327,0,0,0-.184.14,1.631,1.631,0,0,0-.138.532l-.424,2.472a2.66,2.66,0,0,0-.05.915.866.866,0,0,0,.272.423,1.1,1.1,0,0,0,.561.245,1.294,1.294,0,0,0,.724-.066,1.155,1.155,0,0,0,.512-.438,3.169,3.169,0,0,0,.336-1.1l.349-2.06a1.3,1.3,0,0,0,.014-.5.443.443,0,0,0-.143-.231,1.079,1.079,0,0,0-.449-.164l.023-.133,1.744.3-.022.133-.1-.017a.679.679,0,0,0-.366.025.5.5,0,0,0-.248.222,1.249,1.249,0,0,0-.119.419l-.326,1.917a5.187,5.187,0,0,1-.336,1.268,1.45,1.45,0,0,1-.7.627,2.055,2.055,0,0,1-1.291.122,2.349,2.349,0,0,1-.981-.346,1.507,1.507,0,0,1-.584-.729,2.13,2.13,0,0,1-.03-1.035l.42-2.473a1.566,1.566,0,0,0,.041-.55.342.342,0,0,0-.137-.2,1.055,1.055,0,0,0-.432-.135Z" transform="translate(-113.664 -337.224)" fill="#1a1311"/>
          <path id="路径_29824" data-name="路径 29824" d="M156.8,339.179l1.122,3.884.837-2.01a1.035,1.035,0,0,0,.119-.629.725.725,0,0,0-.483-.433l.056-.125,1.564.652-.05.126a1.308,1.308,0,0,0-.444-.068.416.416,0,0,0-.241.137,1.435,1.435,0,0,0-.258.451l-1.638,3.933-.122-.05-1.561-5.281-1.262,3.031a.693.693,0,0,0-.04.621.751.751,0,0,0,.373.319l.11.049-.05.125-1.682-.7.054-.124a.829.829,0,0,0,.612.067.817.817,0,0,0,.373-.465l1.391-3.337-.052-.176a.955.955,0,0,0-.158-.366.746.746,0,0,0-.3-.206l.05-.127Z" transform="translate(-113.141 -337.079)" fill="#1a1311"/>
          <path id="路径_29825" data-name="路径 29825" d="M160.5,346.788l-.076.115-2.232-1.446.075-.115.141.093a.665.665,0,0,0,.342.126.32.32,0,0,0,.225-.074,1.452,1.452,0,0,0,.3-.376l1.831-2.828a1.716,1.716,0,0,0,.234-.439.4.4,0,0,0-.047-.237.638.638,0,0,0-.248-.247l-.141-.094.076-.113,2.234,1.446-.075.115-.141-.092a.669.669,0,0,0-.345-.126.367.367,0,0,0-.225.068,1.617,1.617,0,0,0-.3.385l-1.834,2.825a1.559,1.559,0,0,0-.23.44.38.38,0,0,0,.046.235.671.671,0,0,0,.243.249Z" transform="translate(-112.555 -336.768)" fill="#1a1311"/>
          <path id="路径_29826" data-name="路径 29826" d="M168.129,347.042l-.094.1a.825.825,0,0,0-.569-.125,4.626,4.626,0,0,0-.952.326L162.554,349l-.091-.091,1.517-4.162a5.174,5.174,0,0,0,.286-.921.62.62,0,0,0-.183-.4l.092-.1L165.957,345l-.094.1-.06-.056a.879.879,0,0,0-.388-.251.183.183,0,0,0-.177.064.539.539,0,0,0-.09.138c-.026.058-.09.228-.192.509l-.95,2.6,2.283-.959a5.172,5.172,0,0,0,.547-.256.816.816,0,0,0,.194-.142.352.352,0,0,0,.055-.405,1.166,1.166,0,0,0-.269-.344l.095-.1Z" transform="translate(-112.06 -336.516)" fill="#1a1311"/>
          <path id="路径_29827" data-name="路径 29827" d="M169.887,349.7l-1.715,1.174.055.086a.818.818,0,0,0,.653.41,1.9,1.9,0,0,0,.906-.279l.078.111-2.216,1.515-.079-.107a2.07,2.07,0,0,0,.485-.564.841.841,0,0,0,.118-.494,1.282,1.282,0,0,0-.236-.516l-1.194.816a2.032,2.032,0,0,0-.406.323.279.279,0,0,0-.054.2.6.6,0,0,0,.126.293l.176.257a1.65,1.65,0,0,0,2.1.7l.079.115-1.471.73-2.494-3.644.11-.076.1.141a.672.672,0,0,0,.268.248.346.346,0,0,0,.239.023,1.737,1.737,0,0,0,.417-.24l2.78-1.9a2.988,2.988,0,0,0,.344-.258.383.383,0,0,0,.094-.233.635.635,0,0,0-.135-.381l-.095-.138.112-.078,2.413,3.523-1.245.855-.075-.115a1.862,1.862,0,0,0,.479-.7,1.171,1.171,0,0,0-.028-.663,3.116,3.116,0,0,0-.4-.7Z" transform="translate(-111.788 -335.982)" fill="#1a1311"/>
          <path id="路径_29828" data-name="路径 29828" d="M170.494,355.823l-1.344.54a1.514,1.514,0,0,0-.464.244.371.371,0,0,0-.09.23,1.185,1.185,0,0,0,.123.473l-.128.052-.984-2.446.126-.054a1.27,1.27,0,0,0,.243.429.43.43,0,0,0,.227.1,1.592,1.592,0,0,0,.5-.148L171.8,354a1.529,1.529,0,0,0,.463-.244.355.355,0,0,0,.09-.232,1.19,1.19,0,0,0-.122-.472l.126-.049.891,2.206a5.1,5.1,0,0,1,.387,1.311,1.383,1.383,0,0,1-.175.828,1.275,1.275,0,0,1-.652.556,1.2,1.2,0,0,1-1.022-.025,1.663,1.663,0,0,1-.6-.54l-1.15,1.781a2.88,2.88,0,0,0-.267.478.629.629,0,0,0,.014.376l-.126.054-.6-1.483,1.552-2.411Zm2.321-.934-2.059.828.084.2a2.512,2.512,0,0,0,.383.7.782.782,0,0,0,.472.254,1.225,1.225,0,0,0,.658-.1,1.168,1.168,0,0,0,.69-.576,1.2,1.2,0,0,0-.077-.929Z" transform="translate(-111.463 -335.393)" fill="#1a1311"/>
          <path id="路径_29829" data-name="路径 29829" d="M175.308,362.392l-1.674.34-.028-.16a1.74,1.74,0,0,0,.918-.717,1.366,1.366,0,0,0,.218-.99.9.9,0,0,0-.308-.568.641.641,0,0,0-.506-.137.581.581,0,0,0-.286.134,1.291,1.291,0,0,0-.281.41,7.562,7.562,0,0,0-.29.885,3.607,3.607,0,0,1-.6,1.339,1.414,1.414,0,0,1-.827.467,1.45,1.45,0,0,1-1.174-.3,1.836,1.836,0,0,1-.682-1.181,2.051,2.051,0,0,1-.036-.46,3.854,3.854,0,0,1,.088-.57.838.838,0,0,0,.018-.311.34.34,0,0,0-.111-.19.56.56,0,0,0-.262-.136l-.023-.131,1.9-.345.025.134a2.183,2.183,0,0,0-1.107.857,1.5,1.5,0,0,0-.237,1.093.961.961,0,0,0,.344.627.694.694,0,0,0,.9,0,1.136,1.136,0,0,0,.267-.345,4.522,4.522,0,0,0,.267-.757,5.713,5.713,0,0,1,.4-1.092,1.777,1.777,0,0,1,.445-.56,1.321,1.321,0,0,1,.616-.28,1.4,1.4,0,0,1,1.108.262,1.589,1.589,0,0,1,.626,1.049,1.814,1.814,0,0,1,.027.49,2.223,2.223,0,0,1-.085.458,1.007,1.007,0,0,0-.052.379.176.176,0,0,0,.088.139.622.622,0,0,0,.3.057Z" transform="translate(-111.248 -334.648)" fill="#1a1311"/>
          <path id="路径_29830" data-name="路径 29830" d="M170.392,366.83h-.135l-.062-2.662.138,0,0,.168a.682.682,0,0,0,.087.357.36.36,0,0,0,.184.144,1.707,1.707,0,0,0,.483.032l3.368-.079a1.832,1.832,0,0,0,.493-.05.407.407,0,0,0,.171-.172.652.652,0,0,0,.064-.344l0-.167.136,0,.063,2.663-.138.006,0-.17a.668.668,0,0,0-.089-.355.346.346,0,0,0-.184-.148,1.589,1.589,0,0,0-.482-.029l-3.369.074a1.6,1.6,0,0,0-.493.058.342.342,0,0,0-.169.169.7.7,0,0,0-.068.342Z" transform="translate(-111.163 -334.111)" fill="#1a1311"/>
          <path id="路径_29831" data-name="路径 29831" d="M174.713,372.731l-1.37-.205.02-.131a2.186,2.186,0,0,0,.72-.166,1.04,1.04,0,0,0,.392-.352,1.387,1.387,0,0,0,.142-.488l.056-.377-3.907-.586a1.65,1.65,0,0,0-.5-.031.385.385,0,0,0-.2.139.7.7,0,0,0-.125.328l-.025.165-.133-.02.394-2.634.132.021-.022.167a.653.653,0,0,0,.028.364.361.361,0,0,0,.156.176,1.586,1.586,0,0,0,.47.11l3.9.585.06-.381a1.1,1.1,0,0,0-.106-.78,1.443,1.443,0,0,0-.8-.546l.022-.134,1.373.208Z" transform="translate(-111.21 -333.658)" fill="#1a1311"/>
          <path id="路径_29832" data-name="路径 29832" d="M172.495,379.086l-.126-.049a.772.772,0,0,0,0-.416,4.024,4.024,0,0,0-.6-.869l-1.337-1.705-1.151-.444a1.776,1.776,0,0,0-.479-.139.4.4,0,0,0-.22.09.648.648,0,0,0-.185.277l-.1.267-.127-.046,1.024-2.67.129.047-.1.249a.665.665,0,0,0-.052.362.351.351,0,0,0,.117.208,1.581,1.581,0,0,0,.433.213l.954.367,2.488-.33a3.212,3.212,0,0,0,.9-.2.611.611,0,0,0,.252-.323l.129.05-.881,2.285-.126-.047.039-.1a.556.556,0,0,0,.052-.312.194.194,0,0,0-.1-.132,2.37,2.37,0,0,0-.759.03l-1.905.257,1.1,1.421a2.122,2.122,0,0,0,.586.593.207.207,0,0,0,.2-.029.9.9,0,0,0,.275-.4l.131.05Z" transform="translate(-111.397 -333.029)" fill="#1a1311"/>
        </g>
        <path id="路径_29833" data-name="路径 29833" d="M148.755,392.76l-.477.818-.474-.818-.4-.7-20.024-34.68h41.8l-20.025,34.68Z" transform="translate(-112.002 -330.635)" fill="#466a1e"/>
        <path id="联合_16" data-name="联合 16" d="M21.624,24.129h-14l-.74.041L0,12.277H3.341V9.913H5.711A8,8,0,0,1,8.035,5.937a9.819,9.819,0,0,1,4.74-2.148V2.694h-.44V2.511a3.716,3.716,0,0,1,.9-.463,6.65,6.65,0,0,1,1.2-.311V0h.378V1.737a6.826,6.826,0,0,1,1.2.311,3.878,3.878,0,0,1,.9.463v.183h-.449V3.789A8,8,0,0,1,21.2,5.937a7.571,7.571,0,0,1,2.327,3.975H25.9v2.365h3.233L22.506,23.8l-.5.307Z" transform="translate(21.656 26.943)" fill="#ffc400" stroke="#1a1311" stroke-width="0.834"/>
        <path id="路径_29835" data-name="路径 29835" d="M130.924,350.738a25.187,25.187,0,0,1,40.5,6.908H126.026A25.3,25.3,0,0,1,130.924,350.738Zm0,35.6a25.159,25.159,0,0,1-5.109-28.212l20.478,35.466A25.085,25.085,0,0,1,130.924,386.335Zm20.233,7.254,20.479-35.466a25.173,25.173,0,0,1-20.479,35.466Z" transform="translate(-112.446 -332.261)" fill="#fff"/>
        <g id="组_2218" data-name="组 2218" transform="translate(13.343 42.061)">
          <path id="路径_29836" data-name="路径 29836" d="M126.784,374.78h-.408v-2.606a2.162,2.162,0,0,1-.387.282,2.842,2.842,0,0,1-.431.211v-.4a2.451,2.451,0,0,0,.6-.392,1.51,1.51,0,0,0,.364-.445h.263Z" transform="translate(-125.557 -371.066)" fill="#1a1311"/>
          <path id="路径_29837" data-name="路径 29837" d="M127.447,374.011l.394-.037a.68.68,0,0,0,.191.4.527.527,0,0,0,.362.125.631.631,0,0,0,.33-.087.689.689,0,0,0,.233-.231,1.38,1.38,0,0,0,.152-.389,2.038,2.038,0,0,0,.061-.5c0-.018,0-.046,0-.081a.925.925,0,0,1-.336.316.9.9,0,0,1-.46.122.933.933,0,0,1-.7-.3,1.1,1.1,0,0,1-.285-.789,1.129,1.129,0,0,1,.3-.817,1,1,0,0,1,.749-.309,1.065,1.065,0,0,1,.595.176,1.079,1.079,0,0,1,.408.5,2.447,2.447,0,0,1,.141.938,3.058,3.058,0,0,1-.138,1.017,1.2,1.2,0,0,1-.413.577,1.068,1.068,0,0,1-.643.2.88.88,0,0,1-.936-.826Zm1.675-1.471a.8.8,0,0,0-.187-.559.588.588,0,0,0-.451-.206.619.619,0,0,0-.474.222.827.827,0,0,0-.2.578.714.714,0,0,0,.192.516.629.629,0,0,0,.474.2.6.6,0,0,0,.467-.2A.777.777,0,0,0,129.122,372.54Z" transform="translate(-125.345 -371.066)" fill="#1a1311"/>
          <path id="路径_29838" data-name="路径 29838" d="M129.5,373.137a3.071,3.071,0,0,1,.122-.951,1.191,1.191,0,0,1,.362-.556.93.93,0,0,1,.6-.2.989.989,0,0,1,.47.108.911.911,0,0,1,.335.311,1.712,1.712,0,0,1,.206.5,3.33,3.33,0,0,1,.075.787,3.051,3.051,0,0,1-.121.946,1.178,1.178,0,0,1-.359.557.924.924,0,0,1-.606.2.911.911,0,0,1-.757-.345A2.194,2.194,0,0,1,129.5,373.137Zm.421,0a2.092,2.092,0,0,0,.192,1.091.547.547,0,0,0,.948,0,3.2,3.2,0,0,0,0-2.184.568.568,0,0,0-.478-.27.526.526,0,0,0-.451.238A2.12,2.12,0,0,0,129.918,373.137Z" transform="translate(-125.1 -371.066)" fill="#1a1311"/>
          <path id="路径_29839" data-name="路径 29839" d="M133.763,374.388v.392h-2.2a.734.734,0,0,1,.048-.282,1.5,1.5,0,0,1,.269-.444,4.365,4.365,0,0,1,.536-.5,4.631,4.631,0,0,0,.734-.705.848.848,0,0,0,.191-.492.55.55,0,0,0-.174-.411.626.626,0,0,0-.454-.166.642.642,0,0,0-.472.176.667.667,0,0,0-.179.491l-.422-.042a1.045,1.045,0,0,1,.325-.718,1.119,1.119,0,0,1,.758-.247,1.061,1.061,0,0,1,.759.266.875.875,0,0,1,.28.66,1,1,0,0,1-.083.393,1.516,1.516,0,0,1-.271.407,6.474,6.474,0,0,1-.631.586c-.246.205-.4.347-.473.42a1.329,1.329,0,0,0-.173.222Z" transform="translate(-124.86 -371.066)" fill="#1a1311"/>
          <path id="路径_29840" data-name="路径 29840" d="M158.838,372.053c.007-.058.01-.1.011-.127s0-.05,0-.074-.006-.1-.012-.206q.812.03.925.03h.711c0-.048.006-.085.008-.114v-.113l-.012-.345.209.019a1.968,1.968,0,0,0,.212-.019l-.017.311-.008.134,0,.126h.773c.059,0,.368-.01.93-.03q-.013.08-.017.127a.451.451,0,0,0,0,.075c0,.018.008.087.019.205-.389-.02-.7-.029-.93-.029h-.782l-.018.389h.993c.085,0,.225-.008.421-.025-.006.1-.01.189-.017.269s-.008.137-.008.172v1.954a.4.4,0,0,1-.056.225.307.307,0,0,1-.17.115c-.076.021-.248.059-.517.113-.006-.047-.012-.091-.019-.132a.766.766,0,0,0-.042-.145,1.214,1.214,0,0,0-.17-.26,2.862,2.862,0,0,0,.449.07c.07.007.113-.007.128-.037a.31.31,0,0,0,.022-.129v-1.9h-2.459v1.853c0,.175,0,.277.006.307l.02.294a2.376,2.376,0,0,0-.382,0c.009-.128.015-.225.019-.29s.006-.172.006-.318v-1.74c0-.086,0-.161-.008-.223l-.017-.2c.2.017.356.025.454.025h.972l.012-.389h-.706C159.534,372.024,159.225,372.033,158.838,372.053Zm1.209,1.93h.42l0-.328h-.389c-.135,0-.28.008-.437.021,0-.045.007-.079.009-.1l.007-.054a1.065,1.065,0,0,0-.016-.146c.161.015.306.021.437.021h.088l-.021-.088c-.007-.017-.023-.056-.052-.118a.941.941,0,0,0-.116-.18l-.1-.109a.988.988,0,0,0,.348-.143l.317.579a1.117,1.117,0,0,0-.233.059h.441c.052-.093.1-.191.151-.3s.077-.17.088-.2l.059-.155a1.181,1.181,0,0,0,.335.169l-.117.175c-.05.076-.113.177-.189.3h.118a4.028,4.028,0,0,0,.406-.021c-.009.041-.014.074-.017.095a.312.312,0,0,0,0,.052c0,.012.008.064.019.154-.14-.013-.276-.021-.406-.021h-.4v.328h.374c.193,0,.385-.009.578-.025-.008.045-.013.082-.017.108a.291.291,0,0,0,0,.061c0,.014.008.074.018.173-.2-.014-.394-.025-.587-.025h-.365v.331c0,.118,0,.192,0,.223l.017.219-.189-.013-.063,0-.123.009c.009-.1.015-.174.017-.228s0-.125,0-.214v-.331h-.415c-.19,0-.376.01-.558.025.006-.047.01-.085.012-.113v-.124l-.012-.106C159.671,373.973,159.857,373.982,160.047,373.982Z" transform="translate(-121.695 -371.104)" fill="#1a1311"/>
          <path id="路径_29841" data-name="路径 29841" d="M162.7,374.627a3.183,3.183,0,0,0,.843-.7l.071-.084a3.094,3.094,0,0,0,.324.227l-.114.084c-.039.029-.114.1-.227.2s-.233.215-.365.324l-.248.2-.059.051a1.2,1.2,0,0,0-.113-.123l-.193-.138Zm-.076-2.975q.445.033.563.033h1.221c-.026-.081-.039-.125-.042-.134l-.16-.352a2.329,2.329,0,0,0,.458-.046l.146.531h1.1q.126,0,.579-.033c-.008.062-.013.11-.015.143s0,.059,0,.08a1.573,1.573,0,0,0,.019.193c-.3-.023-.5-.034-.579-.034h-2.726c-.084,0-.272.01-.563.034l.012-.125a.417.417,0,0,0,0-.073C162.638,371.852,162.632,371.779,162.624,371.652Zm.6,2.007c0-.071.008-.137.015-.2s.011-.111.011-.143v-.59c0-.009,0-.074-.013-.2l-.012-.165c.217.017.381.026.491.026h1.731c.118,0,.27-.009.454-.026-.011.1-.019.176-.023.232s-.006.1-.006.129v.59a1.64,1.64,0,0,0,.012.218l.017.127c-.1,0-.186-.009-.269-.016s-.144-.01-.179-.01h-.681v1.157a.4.4,0,0,1-.035.188.29.29,0,0,1-.139.107,2.624,2.624,0,0,1-.506.1,1.863,1.863,0,0,0-.08-.249l-.092-.163.1.012c.2.029.313.014.34-.04a.507.507,0,0,0,.042-.223v-.894h-.681C163.662,373.633,163.5,373.642,163.22,373.658Zm.4-.319h1.917v-.6h-1.917Zm1.527.789a1.481,1.481,0,0,0,.31-.22l.924.706a4.175,4.175,0,0,0-.345.3l-.062-.075a4.738,4.738,0,0,0-.722-.634Z" transform="translate(-121.257 -371.098)" fill="#1a1311"/>
        </g>
        <path id="联合_17" data-name="联合 17" d="M21.831,24.4l-.206-.145h-14l-.208.145-.171-.3-.2.3L0,12.277H3.341V9.913H5.711A8,8,0,0,1,8.035,5.937a9.819,9.819,0,0,1,4.74-2.148V2.694h-.44V2.511a3.716,3.716,0,0,1,.9-.463,6.65,6.65,0,0,1,1.2-.311V0h.378V1.737a6.826,6.826,0,0,1,1.2.311,3.878,3.878,0,0,1,.9.463v.183h-.449V3.789A8,8,0,0,1,21.2,5.937a7.571,7.571,0,0,1,2.327,3.975H25.9v2.365h3.347L22.239,23.7l-.238.41Z" transform="translate(21.656 26.943)" fill="#ffc400"/>
        <path id="路径_29843" data-name="路径 29843" d="M126.483,383.672a.914.914,0,0,1,.138-.095.7.7,0,0,1,.252-.088.688.688,0,0,1,.3-.007.852.852,0,0,1,.222.061,1,1,0,0,1,.143.083.848.848,0,0,1,.109.087.6.6,0,0,1,.076.085,1.233,1.233,0,0,1,.1.154,1.125,1.125,0,0,1,.07.192,1.675,1.675,0,0,1,.022.231.564.564,0,0,1-.041.247,1.681,1.681,0,0,1-.11.22.81.81,0,0,1-.182.2.735.735,0,0,1-.277.142,1.052,1.052,0,0,1-.25.041,1.4,1.4,0,0,1-.208-.017.653.653,0,0,1-.2-.069,1.324,1.324,0,0,1-.166-.112.612.612,0,0,1-.124-.115.667.667,0,0,1-.1-.154,1.217,1.217,0,0,1-.078-.2.791.791,0,0,1-.021-.273.9.9,0,0,1,.07-.273.611.611,0,0,1,.115-.2A.867.867,0,0,1,126.483,383.672Z" transform="translate(-112.144 -327.608)" fill="#1a1311"/>
        <path id="路径_29844" data-name="路径 29844" d="M164.729,385.092a1.385,1.385,0,0,1-.121-.118.871.871,0,0,1-.135-.224.751.751,0,0,1-.065-.3.9.9,0,0,1,.014-.232c.016-.054.035-.1.053-.155a1,1,0,0,1,.065-.121c.022-.035.044-.065.063-.095.044-.045.086-.085.137-.128a.836.836,0,0,1,.171-.112c.066-.022.139-.048.223-.07a.628.628,0,0,1,.25,0,1.991,1.991,0,0,1,.238.066.743.743,0,0,1,.23.138.841.841,0,0,1,.193.242,1.131,1.131,0,0,1,.092.239.994.994,0,0,1,.023.2.64.64,0,0,1-.03.212,1.255,1.255,0,0,1-.073.19.884.884,0,0,1-.087.138.716.716,0,0,1-.137.132.867.867,0,0,1-.182.117.664.664,0,0,1-.267.073,1.322,1.322,0,0,1-.278-.007.79.79,0,0,1-.214-.073A1.363,1.363,0,0,1,164.729,385.092Z" transform="translate(-107.706 -327.602)" fill="#1a1311"/>
        <g id="组_2221" data-name="组 2221" transform="translate(21.596 15.37)">
          <g id="组_2220" data-name="组 2220">
            <path id="路径_29845" data-name="路径 29845" d="M149.573,352.737a2.678,2.678,0,0,1,1.164.808,1.476,1.476,0,0,1,.407.92c.035.314-.095.258-.163.258a3.194,3.194,0,0,1-.694-.248c-.4-.29-.371-1.165-.751-1.517C149.458,352.89,149.467,352.719,149.573,352.737Z" transform="translate(-131.033 -346.544)" fill="#1a1311"/>
            <g id="组_2219" data-name="组 2219">
              <path id="路径_29846" data-name="路径 29846" d="M158.745,350.98a2.869,2.869,0,0,0-.321-.119,1.383,1.383,0,0,0-.535.1c-.134.03-.267.019-.408.058,0,0-.006-.132,0-.193a9.93,9.93,0,0,1,.336-1.479,1.277,1.277,0,0,0-.02-.922.556.556,0,0,0-.459-.292,1.492,1.492,0,0,0-.854.326.394.394,0,0,0-.158.177c-.095.108-.047.138.107.108.126-.028.294-.131.452-.18a.439.439,0,0,1,.213-.023.315.315,0,0,1,.161.125,1.111,1.111,0,0,1,.112.469c.009.138.027.26-.1.3a2.209,2.209,0,0,1-.454.055c-.026,0-.23.129-.321.119-.046-.012-.064-.157-.153-.291a.179.179,0,0,0-.156-.074,3.033,3.033,0,0,1,.106-.391c.021-.093-.04-.087-.04-.087a2.943,2.943,0,0,0-.36.338.253.253,0,0,1-.142.027,1.49,1.49,0,0,1,0-.352c.029-.273.084-.587.084-.587s.128-.092.267-.181l.3-.165c.113-.109.346-.062.462-.121s.08-.23.112-.349a.208.208,0,0,0-.271-.113c-.256.089-.528.379-.653.347-.049-.011-.059-.2-.109-.31-.056-.081-.152-.081-.222-.113a.645.645,0,0,1-.133.05,12.253,12.253,0,0,0-.094,2.068c0,.052.083.183.126.183a.439.439,0,0,0,.133.019.76.76,0,0,1,.212.058,1.92,1.92,0,0,1,.087.59,1.738,1.738,0,0,1-.241.622s-.156.035-.165-.1c-.021-.152-.008-.453-.03-.616-.013-.086,0-.309-.018-.4-.021-.058-.068-.024-.071-.009a3.508,3.508,0,0,0-.061.653c-.019.237-.047.431-.047.431.009.146.047.521.055.584l-.186.071-.167-.013c-.115-.975-.145-1.836-.285-2.68h-.107l-.187.179c-.029.086-.1.727-.1.727a14.924,14.924,0,0,0,.22,1.48c-.01,0,0,.391,0,.391l-.08.023h-.076l-.174-.069a6.983,6.983,0,0,0-.251-1.732c-.038-.074-.223-.363-.344-.4-.06-.028-.119.172-.119.172.023.2.083.261.119.475.065.513.121,1.081.157,1.551.013.055.068.089.08.15a3.189,3.189,0,0,1,.412.077c.1.034.172.106.279.114a.6.6,0,0,0,.25-.056l.131-.161a1.253,1.253,0,0,1,.485-.056.336.336,0,0,0,.269.129c.071-.014.141-.163.288-.26a.8.8,0,0,1,.33-.085,1.727,1.727,0,0,1,.382.111,2.4,2.4,0,0,0,.4.043c.2,0,.189-.134.269-.177a1.243,1.243,0,0,1,.548-.1c.848-.057-1.452,1.27-.689,1.142a1.574,1.574,0,0,0,.625-.249,3.38,3.38,0,0,0,.521-.312c.075-.048.248-.065.349-.125a1.372,1.372,0,0,1,.088-.2c.052-.1.137-.217.155-.276C159.066,351.015,158.911,351.043,158.745,350.98Zm-1.682-.117c0,.094.008.2-.086.226l-.183.028a1.247,1.247,0,0,1-.362-.017.228.228,0,0,1-.18-.209,1.928,1.928,0,0,1,.118-.57c.032-.127,0-.237.032-.386l.06-.077h.094l.071.077c.059.2-.041.445.038.638.065.156.179.046.362.1C157.063,350.661,157.134,350.766,157.063,350.863Zm.176-.654c-.017.08-.017.171-.04.179-.1.04-.175.075-.208.01a.634.634,0,0,1,.018-.3c.011-.062-.018-.129,0-.184a.3.3,0,0,1,.109-.173,1.752,1.752,0,0,1,.2-.04.422.422,0,0,1,.064.144C157.379,349.955,157.266,350.091,157.239,350.209Z" transform="translate(-130.554 -347.188)" fill="#1a1311"/>
              <path id="路径_29847" data-name="路径 29847" d="M158.243,354.385c-.051-.1-.277-.243-.34-.36a.345.345,0,0,0-.354-.108,3.224,3.224,0,0,1-.571.036.664.664,0,0,1-.232-.036.574.574,0,0,0-.2-.532.356.356,0,0,0-.214-.007.274.274,0,0,1-.154-.02l-.01-.142a4.2,4.2,0,0,1,.576-.763,2.393,2.393,0,0,0,.239-.165c.1-.086.023-.224,0-.352a3,3,0,0,1-.492-.011,1.376,1.376,0,0,0-.442-.063c-.17.04-.312.29-.547.385-.013.011-.025.026-.039.039-.131.1-.232.186-.232.186a.116.116,0,0,0,.128.132c.143,0,.419-.1.6-.125a.316.316,0,0,1,.206.044,4.69,4.69,0,0,1-.269.536c-.07.114-.153.143-.163.253s.121.2.175.333a.746.746,0,0,1,.087.26l-.078.028c-.156.054-.379.013-.556.074a1,1,0,0,0-.671.581,1.153,1.153,0,0,0,.019.555.992.992,0,0,0,.269.423.862.862,0,0,0,.323.111,1.348,1.348,0,0,0,.473,0c.529-.142.839-.72,1-1.386,0,0,.154-.008.27-.01a1.572,1.572,0,0,1,.653.106c.153.027.3.239.547.239A.371.371,0,0,0,158.243,354.385Zm-2.595,1.09a.47.47,0,0,1-.568-.141c-.251-.308-.2-.5-.2-.5a.523.523,0,0,1,.334-.4,1.122,1.122,0,0,1,.527-.141c.133-.008.358-.052.417.085A1.056,1.056,0,0,1,155.648,355.475Z" transform="translate(-130.433 -346.646)" fill="#1a1311"/>
              <path id="路径_29848" data-name="路径 29848" d="M139.578,351.577c.008.019.112-.067.181.052a3.447,3.447,0,0,1,.239.321,5.234,5.234,0,0,0,.122,1.806c0,.016-.056.225-.056.225s.026.143-.183.084l-.2-.246C139.024,353.239,139.542,352.52,139.578,351.577Z" transform="translate(-132.209 -346.68)" fill="#1a1311"/>
              <path id="路径_29849" data-name="路径 29849" d="M152.892,351.22s.1-.17.162-.122a1.088,1.088,0,0,1,.22.347c.221.845-.314,1.116-.671,1.4.022.017-.3.089-.235-.352C152.414,352.207,152.821,351.8,152.892,351.22Z" transform="translate(-130.7 -346.735)" fill="#1a1311"/>
              <path id="路径_29850" data-name="路径 29850" d="M146.3,350.978a.268.268,0,0,1,.2.014c.023.028.015.069.05.11.042.065.095.1.092.135s-.086.03-.162.026C146.27,351.234,146.15,350.993,146.3,350.978Z" transform="translate(-131.411 -346.75)" fill="#1a1311"/>
              <path id="路径_29851" data-name="路径 29851" d="M138.52,350.674a2.158,2.158,0,0,1-.138-.382.417.417,0,0,0-.5-.318,17.935,17.935,0,0,1-1.941.359v-.368a1.47,1.47,0,0,0,.516-.282.457.457,0,0,0-.048-.312c-.054-.087-.221-.078-.244-.161a7.13,7.13,0,0,1-.074-1.222c-.1-.335-.5-.359-.664-.391-.446-.08-.613.2-.479.512a1.2,1.2,0,0,0,.158.288l.02.886s-.066.018-.33.075a2.592,2.592,0,0,0-.676.192.3.3,0,0,0,.018.243.444.444,0,0,0,.249.144,4.2,4.2,0,0,0,.745.056v.488a11.606,11.606,0,0,0-1.585.291c-.029.49,1.579.249,1.579.249v.5s-.9.212-1.293.272a5.958,5.958,0,0,0-.615-.295c-.3-.026-.262.137-.262.137a14.882,14.882,0,0,1,.518,1.426.813.813,0,0,0,.43.06,3.854,3.854,0,0,0,.631-.152c.321-.058.573-.078.573-.078v.425a3.579,3.579,0,0,0-.464.4,7.333,7.333,0,0,1-1.368,1.3c-.065.052-.24.2-.189.25a2.1,2.1,0,0,0,.5-.062,2.341,2.341,0,0,0,.662-.417c.251-.2.617-.73.863-.912l.019.435a11.355,11.355,0,0,1-.019,1.153c-.092.083-.363.023-.863.023l-.021.153a6.851,6.851,0,0,0,.729.41l.123.19a.457.457,0,0,0,.53-.127c.036-.29-.064-2.44,0-2.537.1-.18.33-.559.352-.58a3.221,3.221,0,0,1,.494-.352c.129-.066.5-.522.782-.757.4-.333.785-.6,1.186-.893.028-.015.055-.074.084-.092A1.251,1.251,0,0,0,138.52,350.674Zm-3.373,1.877-.519.089a3.441,3.441,0,0,1-.571.088s-.1-.3-.1-.358c0-.107-.046-.2.059-.277a1.244,1.244,0,0,1,.588-.132c.266-.009.548-.037.548-.037Zm1.359-.509c-.258.135-.733.348-.687.259l.007-.5a4.09,4.09,0,0,0,.6-.1c0-.019.093-.125.06-.244-.032-.1-.147-.152-.134-.152a1.519,1.519,0,0,0-.565.045s-.015-.4-.015-.472a4.411,4.411,0,0,1,1.088-.26c.211.007.609-.035.629.067C137.558,350.987,136.62,351.988,136.507,352.043Z" transform="translate(-132.952 -347.142)" fill="#1a1311"/>
              <path id="路径_29852" data-name="路径 29852" d="M141.544,348.59s.093-.136.169-.126a1,1,0,0,1,.454.276.392.392,0,0,1-.084.212,3.853,3.853,0,0,0-.014.443,4.642,4.642,0,0,0,.641-.09c.176-.055.3-.123.523-.19-.008,0,.1.044.1.128s-.108.2-.108.21a9.3,9.3,0,0,1-1.258.415c-.03.013-.292.93-.555,1.59a6.036,6.036,0,0,1-.371.627c-.023.061.054.1.039.114.008-.01.368-.132.368-.132a4.53,4.53,0,0,1,.4-.217c.074.019-.3.455-.492.641a.421.421,0,0,0-.038.234,1.3,1.3,0,0,0,.373-.047c.008-.012.1-.223.112-.251.087-.117.44-.347.487-.481s-.127-.467-.127-.467v-.17l.124-.122s.171-.078.243-.106c.109-.03.408-.046.708-.078.23-.028.61-.065.971-.117a3.7,3.7,0,0,1,.525-.113.608.608,0,0,1,.451.091,1.341,1.341,0,0,1,.106.294c.026.185.026.434.032.591,0,.1.131.138.131.225,0,.17-.144.325-.205.5s-.018.363-.064.558c-.083.282-.658,1.773-.769,1.955a.51.51,0,0,1-.312.249s-.218.022-.218.028c-.142-.25-.077-.138-.273-.307a8.049,8.049,0,0,0-.6-.6s.086-.1.141-.1c.278,0,.518.022.8.022a.3.3,0,0,0,.17-.147,6.86,6.86,0,0,0,.574-1.709,5.483,5.483,0,0,0,.019-1.012s-.058-.1-.114-.1a1.5,1.5,0,0,0-.241-.032,14.3,14.3,0,0,0-1.575.106,1.726,1.726,0,0,0,.011.423c-.147.135-.562.31-.624.5v.241c.275-.05.525-.2.709-.22.074-.01.131.1.131.1a1.434,1.434,0,0,1-.187.1c-.181.087-.286.117-.53.228v.518a1.059,1.059,0,0,1,.491-.074c.259.066.1.182.032.257-.187.086-.5.237-.5.237a7.492,7.492,0,0,1-.077.758c-.046.324-.138.623-.166.813-.164.085-.189.214-.29.248a1.011,1.011,0,0,1-.321.071.14.14,0,0,1-.09-.045s-.07-.013.045-.19c.069-.1.279-.275.267-.275.03-.189.08-.382.1-.586.019-.157.014-.571.014-.571l-.656.108-.319.009c0-.011-.1-.155-.1-.155a1.279,1.279,0,0,0,.193-.043c.123-.04.271-.079.271-.079s.429-.236.636-.338l-.02-.43a4.168,4.168,0,0,0-.71.29l-.247-.12c-.1-.252.08-.4-.076-.664-.045-.056-.33-.209-.407-.3a3.613,3.613,0,0,0,1.127-2.3,3.91,3.91,0,0,1-.552,0,4.059,4.059,0,0,1-.471-.052s-.141-.219-.126-.295c.006-.046.193-.076.193-.076a6.5,6.5,0,0,0,.9.009s.125-.075.138-.085C141.582,349.126,141.529,348.694,141.544,348.59Z" transform="translate(-132.095 -347.04)" fill="#1a1311"/>
              <path id="路径_29853" data-name="路径 29853" d="M148.494,348.478s.025-.158.068-.158a.458.458,0,0,1,.215.073.684.684,0,0,1,.078.086c0,.835-.006,1.971.039,2.709a.139.139,0,0,0,.107.122,3.516,3.516,0,0,0,.4-.074c.156-.036.33-.107.5-.135a2.069,2.069,0,0,0,.759-.251c.143-.076.244-.31.377-.4.2-.075.315.247.355.318a1.432,1.432,0,0,1,.133.406.278.278,0,0,1-.147.247c-.123.051-.34.021-.464.059l-.334.136c-.55.147-.941.345-1.406.46-.176.046-.348.036-.511.076a8.245,8.245,0,0,1-.4,2.052c-.277.565-.568.565-1.424.565-.057,0-.312.023-.373.023l-.044-.132.056-.128a3.257,3.257,0,0,0,1.123-.828,3.711,3.711,0,0,0,.531-1.407.536.536,0,0,0,0-.163,5.447,5.447,0,0,1-.819-.25,1.664,1.664,0,0,1-.492-.4s.061-.087.107-.087c.11,0,.2-.037.311-.037.419-.007.839.029,1.023.016a.138.138,0,0,0,.1-.047s.02-.739.071-1.309C148.453,349.641,148.494,348.478,148.494,348.478Z" transform="translate(-131.39 -347.057)" fill="#1a1311"/>
              <path id="路径_29854" data-name="路径 29854" d="M136.059,353.509l.007-.132.1-.027,1.346.347.41.17.16.282-.042.25-.153.115-.054.133-.071.234-.157.026-.218-.138-.1-.255-.082-.315-.2-.185-.439-.192-.361-.182Z" transform="translate(-132.591 -346.473)" fill="#1a1311"/>
            </g>
          </g>
        </g>
        <g id="组_2222" data-name="组 2222" transform="translate(20.858 61.453)">
          <path id="路径_29855" data-name="路径 29855" d="M137.755,389.551c.054.049.056.065.023.14.02.01.039.026.056.035,0,.23.161.3,0,.586-.041,0-.03,0-.069.039a.134.134,0,0,0-.042-.026c-.076.08-.123.022-.217.028a.736.736,0,0,0-.073.037c-.057-.026-.107-.049-.163-.071,0-.007,0-.012.008-.019-.033-.027-.048,0-.048,0-.052-.041-.108-.08-.164-.122a.38.38,0,0,0,0-.048c-.052-.047-.1-.094-.153-.135.01-.016.017-.029.025-.039a.136.136,0,0,0-.02-.015c.017-.029.035-.065.057-.1-.009,0-.016,0-.02-.009.036-.03.069-.063.1-.09l-.02-.016a1.022,1.022,0,0,1,.132-.179.24.24,0,0,1-.03-.045c.02-.031.037-.065.054-.095l-.017-.01a.168.168,0,0,1,.095-.125c.047-.048.059-.049.123-.035a.873.873,0,0,1,.278.136c0,.019,0,.033,0,.052.03.017.064.035.1.055-.006.007-.007.013-.012.017C137.771,389.539,137.767,389.51,137.755,389.551Z" transform="translate(-131.754 -388.393)" fill="#1a1311"/>
          <path id="路径_29856" data-name="路径 29856" d="M135.99,389.444c-.032.069-.066.136-.091.205a.453.453,0,0,1-.1,0,1.113,1.113,0,0,0-.083.1.355.355,0,0,1-.05,0c-.02.031-.038.067-.056.1a.089.089,0,0,1-.02-.011.645.645,0,0,1-.035.057l-.018-.009c-.006.011-.016.026-.023.038l-.017-.01c-.009.013-.015.027-.023.039a.136.136,0,0,0-.02-.012c-.037.032-.016.061-.025.087a.045.045,0,0,1-.016-.013c-.029.031-.052.06-.078.088l-.087-.025c-.071.069-.113.02-.208-.042-.01-.058-.032-.04-.055-.084a.312.312,0,0,1,.006-.049l-.061-.03c.008-.008.007-.017.012-.02-.01-.033-.007-.008.006-.051-.03-.016-.054-.029-.077-.044a.035.035,0,0,1,.008-.018,1.716,1.716,0,0,1-.143-.287c.015-.026.029-.05.047-.077a.361.361,0,0,1,.079-.234l.02.011c.01-.013.013-.027.023-.039a.046.046,0,0,1,.018.012.592.592,0,0,0,.044-.077.388.388,0,0,1,.079,0,.376.376,0,0,1,.025-.038c.014-.009.036-.006.06-.02.031.034.016.01.027.045.016.014.03.031.049.052-.013.016-.023.038-.036.055a.811.811,0,0,0,.078.046.236.236,0,0,0,0,.049l.1.084c.006-.008.007-.012.011-.016a.4.4,0,0,1,.061.03c0-.008,0-.012.009-.022a1.105,1.105,0,0,0,.165.071c.006,0,.007-.012.009-.016a.322.322,0,0,1,.039.018s.009-.013.014-.016a.292.292,0,0,0,.052.03.754.754,0,0,0,.075-.036.4.4,0,0,1,.177.053C135.967,389.44,135.957,389.413,135.99,389.444Z" transform="translate(-132.006 -388.422)" fill="#1a1311"/>
          <path id="路径_29857" data-name="路径 29857" d="M133.942,389.37a.184.184,0,0,0,.038.025.686.686,0,0,0-.037.077c-.01.019.041.027,0,.08,0,0-.013-.007-.017-.013-.023.028-.05.058-.077.085a.1.1,0,0,1-.05,0,.769.769,0,0,1-.084.107.137.137,0,0,1-.019-.012.147.147,0,0,1-.026.039.035.035,0,0,1-.016-.013c-.008.013-.014.029-.022.041a.356.356,0,0,0-.048,0l-.035.054a.036.036,0,0,1-.019-.009c-.008.011-.015.027-.021.038a.029.029,0,0,1-.018-.011c-.018.031-.038.064-.058.1l-.019-.01c-.033.059-.069.116-.1.174-.006-.006-.017-.007-.018-.013a.2.2,0,0,0-.022.039.6.6,0,0,0-.081.009c-.058.035-.092.15-.122.211a.6.6,0,0,0,.277.137.05.05,0,0,0,.012-.022c.017.006.029.018.041.021a.068.068,0,0,0,.01-.02c.044.025.089.055.135.079l.012-.019a.576.576,0,0,1,.058.032l.009-.019a.236.236,0,0,1,.057.035.082.082,0,0,1,.013-.019c.047.017.093.035.144.056a.153.153,0,0,0,.011-.02c.065.038.127.075.2.113,0-.01,0-.013.01-.023a.241.241,0,0,0,.058.035.057.057,0,0,1,.009-.019c.039.025.077.044.116.068a.045.045,0,0,1,.01-.019c.083.046.166.094.25.144a.222.222,0,0,1,.039-.027c.059.031.118.065.172.1a.429.429,0,0,0,.047-.028c.061.038.127.076.19.109.006-.006,0-.012.01-.019.032.02.065.037.1.057l.016-.02a.368.368,0,0,0,.037.021.049.049,0,0,1,.012-.019c.044.023.089.054.134.078.006-.008.006-.013.01-.02.031.008.061.016.086.025l.013-.019c.032.013.07.022.108.036,0,0,.007-.013.009-.018a.142.142,0,0,1,.118.018c.023-.029.05-.059.076-.088a.13.13,0,0,0,.038.025c.127-.082.172-.09.347.018.02.059.113.083.15.137-.006.009-.009.013-.009.02a.16.16,0,0,0,.038.022.242.242,0,0,0,0,.05.25.25,0,0,0,.037.02c0,.006-.009.014-.008.018a.7.7,0,0,0,.1.087c0,.027,0,.055,0,.08l.058.035c0,.007-.009.01-.009.016.016.033.022.033.061.07-.021.081.025.091.035.164a.05.05,0,0,0,.016.013c-.037.081-.071.16-.11.241-.065.007-.126.016-.191.021a1.964,1.964,0,0,1-.581-.281l.012-.02c-.046-.039-.069.02-.1,0a.029.029,0,0,1,.011-.02,3.186,3.186,0,0,0-.684-.367c-.093-.052-.182-.1-.269-.155-.007.008-.009.013-.016.02a.262.262,0,0,0-.057-.032s-.009.011-.011.018l-.1-.057a.1.1,0,0,1-.009.022c-.032-.02-.065-.039-.1-.056a.081.081,0,0,0-.012.017c-.068-.04-.142-.079-.21-.122,0,0-.027.027-.069-.008a.067.067,0,0,0-.047-.057c0,.006-.006.014-.011.021-.023-.018-.048-.029-.074-.046a.088.088,0,0,0-.016.022.445.445,0,0,0-.078-.046l-.009.018-.09-.023c0,.006-.007.01-.006.016a.818.818,0,0,1-.1-.054.238.238,0,0,1-.016.021,1.369,1.369,0,0,0-.145-.059c0,.007,0,.012-.009.018a.308.308,0,0,1-.058-.034c0,.007-.006.016-.009.02-.032-.018-.07-.037-.1-.054-.013.008-.027.016-.041.026l-.124-.046a.946.946,0,0,0-.1.042,1.509,1.509,0,0,1-.135-.077c-.07.014-.137.023-.2.041-.017.015-.036.032-.055.046-.032-.02-.064-.04-.094-.057,0,.01-.007.013-.012.02a1.424,1.424,0,0,1-.219-.155.334.334,0,0,0,.012-.065.043.043,0,0,0-.02-.01c.008-.013.015-.026.026-.042a.079.079,0,0,1-.027-.041c.006-.027.013-.055.021-.085-.007-.006-.012-.006-.02-.013.02-.041.031-.085.047-.125-.008-.013-.018-.027-.027-.041a.336.336,0,0,1,.116-.164.491.491,0,0,0,.055,0c.015-.025.029-.051.044-.077.007,0,.009.008.019.01s.014-.025.022-.039c.027,0,.054,0,.079,0,.019-.033.037-.065.052-.1.007.006.012,0,.02.009.051-.066.1-.134.143-.2a.139.139,0,0,1,.048,0c.061-.031.074-.074.129-.132a.06.06,0,0,1,.016.012c0-.008.011-.014.013-.021s-.014-.009-.02-.008c.075-.114.146-.229.219-.338.054-.055.116-.107.166-.158a.044.044,0,0,0-.016-.013c.039-.1.079-.2.123-.31-.071-.068-.042-.113.022-.218a.035.035,0,0,1,.019.017c.023-.019.038-.036.055-.05a.274.274,0,0,1,.134.075.161.161,0,0,1-.006.051.517.517,0,0,1,.077.046s0,.011,0,.017l.12.1,0,.047c.028.036.059.069.094.108a.245.245,0,0,0-.016.066c.008.017.017.032.023.046a.085.085,0,0,1-.019.032A.538.538,0,0,1,133.942,389.37Z" transform="translate(-132.29 -388.48)" fill="#1a1311"/>
        </g>
        <g id="组_2223" data-name="组 2223" transform="translate(38.512 62.675)">
          <path id="路径_29858" data-name="路径 29858" d="M151.752,389.578a.416.416,0,0,0,.007.042.094.094,0,0,1,.018,0,.262.262,0,0,1,.029.061c.023,0,.045.01.067.013s.019.04.049.059a.429.429,0,0,0,.018.17c-.022.018-.042.031-.063.048a.16.16,0,0,1,0,.023.124.124,0,0,0-.04,0c0,.009,0,.013,0,.022-.044,0-.087.007-.128.011,0,.013-.01.028-.016.046-.016,0-.027,0-.046,0,0,.006,0,.012,0,.019l-.079.03a.182.182,0,0,0,0,.025c-.086.006-.169.011-.252.021l-.006-.021-.143.037a.052.052,0,0,1,0-.023l-.1.012,0,.021c-.023,0-.046,0-.066,0,0,.01,0,.016.006.023l-.044.006a.029.029,0,0,0,0,.017c-.048,0-.087.013-.126.013,0,.007,0,.011,0,.023l-.335.049.006.046a.46.46,0,0,0-.169.016c0,.084,0,.171,0,.257-.007,0-.015,0-.023,0-.008.057.032.1.035.127-.006,0-.011,0-.018,0,0,.036,0,.073.008.107-.008,0-.013,0-.019,0a.184.184,0,0,0-.018.044.383.383,0,0,0-.062.028c0,.011,0,.026,0,.041-.077.023-.146.064-.156.143l-.186.081c-.011.084-.06.112-.156.123-.011.059,0,.045-.06.069-.038.054-.046.018-.1.055,0,0,0,.012.007.019a.256.256,0,0,0-.06.028c-.01.059-.007.047-.059.067a.057.057,0,0,0,0,.023c-.036,0-.069.007-.108.008-.007.016-.011.032-.016.046a.129.129,0,0,0-.041.007c0,.006,0,.011,0,.02-.027.02-.035.018-.085.028,0,.119-.054.145-.059.261a.7.7,0,0,0,.192.007.06.06,0,0,0,0-.025l.124-.031c.029,0,0,.029.021.017a1.106,1.106,0,0,1,.554-.054.341.341,0,0,0,.007.067c-.03,0-.058,0-.085.006-.006.02-.011.044-.018.066-.041.011-.081.023-.126.035a.418.418,0,0,0-.012.045.453.453,0,0,1-.086,0c-.007.016-.01.029-.017.046-.054,0-.1.011-.15.016a.025.025,0,0,1,0,.02.573.573,0,0,1-.1.028.037.037,0,0,1,0,.025l-.081.03a.057.057,0,0,1,0,.019l-.126.012a.176.176,0,0,1,0,.024.131.131,0,0,1-.042,0l0,.022c-.033,0-.073.007-.106.012,0,.006,0,.012,0,.02l-.044,0c-.009.02-.022.044-.035.066a.092.092,0,0,1-.04,0,.163.163,0,0,1,0,.021c-.027,0-.058.007-.081.012a.02.02,0,0,0,0,.018.822.822,0,0,1-.084.009l0,.02-.124.013a.2.2,0,0,1-.019.045c-.113.02-.222.037-.336.052a.028.028,0,0,1,0-.019.082.082,0,0,0-.023,0,.422.422,0,0,0-.006-.064c-.025-.018-.06-.037-.087-.055a.628.628,0,0,1-.033-.127.062.062,0,0,1-.025,0,.4.4,0,0,0-.006-.063.034.034,0,0,1-.021,0,.264.264,0,0,0,0-.04h-.019c-.007-.07-.015-.14-.021-.211a.193.193,0,0,0,.074-.112c.187-.02.527-.191.548-.33.106-.025.05-.059.156-.081.017-.06,0-.049.06-.073.021-.022,0-.009.042-.022.011-.088.008-.027.057-.07,0-.007,0-.016,0-.021a.15.15,0,0,1,.083-.03c.007-.057.021-.05.03-.108a.728.728,0,0,1,.085-.007.267.267,0,0,1,.04-.066c.025-.023.084-.027.1-.055,0-.023,0-.041-.007-.066.037-.073.073.02.068-.134,0,0-.012,0-.018,0a.332.332,0,0,0-.03-.059c-.017,0-.042,0-.063,0,0,0,0-.013,0-.021a.168.168,0,0,1-.041,0l0-.017c-.02,0-.041.017-.061.023a.142.142,0,0,0,0,.021.3.3,0,0,0-.045-.014.045.045,0,0,1,0,.021.878.878,0,0,0-.144.016c0-.008,0-.019-.006-.025a.306.306,0,0,0-.148-.006c0,.006,0,.011,0,.021l-.067-.015a.067.067,0,0,1-.062.027.156.156,0,0,0,0-.022.228.228,0,0,0-.062.009.31.31,0,0,0-.021-.044c-.018,0-.031,0-.048,0,0,0,0-.017,0-.023l-.042.007a.159.159,0,0,0,0-.023c-.025.006-.042.006-.067.009a.038.038,0,0,0,0-.022.185.185,0,0,0-.09-.036.249.249,0,0,1,0-.04.679.679,0,0,0-.069-.037.03.03,0,0,0,0-.02h-.042c-.033-.022-.031-.108-.037-.166a.261.261,0,0,0,.065-.008c0-.019.008-.044.012-.063.174-.026.353-.048.528-.074l0-.021c.038,0,.073,0,.109-.009,0-.009-.006-.016-.006-.022l.192-.018a.032.032,0,0,0,0-.019l.3-.05a.053.053,0,0,0,0,.019.048.048,0,0,1,.018,0,.119.119,0,0,0,.018-.048.868.868,0,0,1,.337-.071.173.173,0,0,1,0-.042c.117.031.212-.019.376-.038.012-.04,0-.019.021-.046a.733.733,0,0,1,.243-.149c.047,0,.1-.01.144-.016a.031.031,0,0,0,0-.02c.076-.02.153-.043.228-.062a.041.041,0,0,0,0-.023.316.316,0,0,1,.064,0l0-.025.066.018a.063.063,0,0,1,0-.023c.013,0,.026,0,.04,0,.008-.017.012-.033.018-.048.088-.006.166-.016.253-.022A1.608,1.608,0,0,1,151.752,389.578Z" transform="translate(-148.109 -389.575)" fill="#1a1311"/>
          <path id="路径_29859" data-name="路径 29859" d="M151.962,391.378a.14.14,0,0,1,0,.044c.065.011.05,0,.071.059.058.05.037.253.032.314a.237.237,0,0,1-.066.028.283.283,0,0,1-.184.042c-.008-.012-.02-.026-.028-.04s-.042,0-.063,0c-.02-.056-.012-.046-.069-.058,0-.006,0-.013,0-.021-.088-.017-.177-.039-.259-.059a.4.4,0,0,1-.034-.081c-.066-.015-.129-.03-.2-.047-.01-.014-.017-.029-.028-.044a.162.162,0,0,1-.04.008.065.065,0,0,0,0-.022c-.04,0-.084.009-.126.016a.046.046,0,0,1,0-.025.335.335,0,0,1-.041,0c0-.007,0-.016-.007-.022-.054.006-.11.01-.169.018a.364.364,0,0,1-.023-.041l-.147.016a.137.137,0,0,1,0-.021.049.049,0,0,1-.018,0,.46.46,0,0,1-.012-.106.877.877,0,0,0,.138-.1c.015,0,.029,0,.041,0,.012-.026.027-.045.036-.069.06-.006.115-.013.173-.016a.086.086,0,0,1,0-.023.076.076,0,0,0,.022,0l0,.018c.069,0,.141-.011.21-.019v.025c.029,0,.058-.007.085-.009,0,.009,0,.013,0,.02.028,0,.057,0,.085-.006,0,.007,0,.011,0,.018.095-.01.186-.013.277-.023.007.012.016.027.025.041l.108,0a.189.189,0,0,0,.03.044.131.131,0,0,1,.036,0c.031.02.01.052.031.085a.038.038,0,0,1,.02,0C151.9,391.359,151.9,391.369,151.962,391.378Z" transform="translate(-147.826 -389.394)" fill="#1a1311"/>
          <path id="路径_29860" data-name="路径 29860" d="M150.885,392.363a.1.1,0,0,0,.038-.006.435.435,0,0,0,.068.233c.017.048.028.042.049.078a.431.431,0,0,0,.064-.025.033.033,0,0,1,0-.023c.041,0,.084-.007.126-.012l-.006-.019c.03,0,.06-.007.088-.012,0-.01.009-.027.015-.042.073-.012.141-.026.21-.042a.065.065,0,0,0,.006.022.1.1,0,0,0,.018,0,.327.327,0,0,1,.018-.046c.051,0,.1,0,.152.007,0,.009,0,.013,0,.023a.375.375,0,0,1,.062-.008.258.258,0,0,0,.028.04.614.614,0,0,1,.065,0,.02.02,0,0,0,0,.018l.042,0c0,.008,0,.017,0,.021.078.056.01.017.049.08.021.006.031.012.048.016,0,.036,0,.071.008.108-.036.037-.012.051-.032.088l-.021,0a.191.191,0,0,1-.021.044c-.054.047-.055-.036-.075.071a1.447,1.447,0,0,0-.416.126l-.229.042c0,.007,0,.013,0,.018a.708.708,0,0,1-.164.083.292.292,0,0,0-.015.063c-.01,0-.014,0-.022.007,0,.034-.007.068-.012.108a.03.03,0,0,0-.02,0c-.012.094-.025.186-.035.28l-.04.025a1.059,1.059,0,0,0-.077.328l-.042.006c-.037.03-.006.191,0,.253a.581.581,0,0,0,.278-.026c0-.007,0-.012,0-.018.045-.006.087-.012.129-.016l0-.021c.045,0,.085-.007.129-.011a.275.275,0,0,1,.014-.042.286.286,0,0,1,.046-.007c-.006-.007,0-.011,0-.017a.981.981,0,0,1,.126-.013l-.006-.025.107-.006c0-.011,0-.018,0-.026.035,0,.07,0,.107-.008a.035.035,0,0,1,0-.021l.677-.045,0,.018a.8.8,0,0,0,.128.029.237.237,0,0,1,.006.048l.067.013c0,.007,0,.017,0,.021.065.03.086.02.115.1.009,0,.015,0,.021,0,.007.046.01.1.016.146-.006,0-.016,0-.021,0a.219.219,0,0,0,.006.043.13.13,0,0,1-.059.067.437.437,0,0,1-.312.095.068.068,0,0,0,0-.021.634.634,0,0,1-.067.006.039.039,0,0,0,0-.02l-.191.018v-.019c-.058,0-.116-.007-.172-.007v.019a.514.514,0,0,1-.081.011,2.055,2.055,0,0,0-.571.035.037.037,0,0,0,0,.019.039.039,0,0,1-.047-.016.056.056,0,0,0-.023,0c0,.007.006.013,0,.018-.028,0-.033-.011-.086-.011a.1.1,0,0,1,0,.041c-.218.023-.434.046-.656.063a.186.186,0,0,0,.006.025c-.017,0-.027,0-.047,0a.048.048,0,0,1,.006.027l-.148.012a.238.238,0,0,1-.018.047.636.636,0,0,0-.08.028.387.387,0,0,0-.018.046.685.685,0,0,1-.085.027c0,.014,0,.029.006.046-.068,0-.143.013-.211.018a.06.06,0,0,1,0,.02.551.551,0,0,1-.1-.01.12.12,0,0,1,0,.02.27.27,0,0,1-.041.007.062.062,0,0,0,0,.019c-.036,0-.074.009-.109.011l0,.022c-.03.009-.057.019-.081.026,0,.012,0,.016,0,.025-.076.009-.156.013-.232.019,0,.009,0,.018,0,.023a.265.265,0,0,1-.041,0,.026.026,0,0,0,0,.022c-.046.006-.087.009-.129.011a.128.128,0,0,1,0,.041c-.074.019-.24.022-.379.039-.029-.045-.049-.042-.068-.1-.016,0-.029,0-.046,0a.169.169,0,0,1,0-.041.756.756,0,0,1-.086,0c-.032-.03-.067-.064-.095-.095a.191.191,0,0,0-.041.007c0-.012,0-.018-.006-.025s-.029-.01-.044-.013a.786.786,0,0,0-.008-.088.043.043,0,0,0-.019.007c0-.047,0-.087.009-.133a.085.085,0,0,1,.018,0c0-.008,0-.014,0-.023.044-.008.083-.021.126-.03a.042.042,0,0,1,0-.023.836.836,0,0,0,.094-.095l.128.009c.019.021.034.04.049.06l.126-.013a.072.072,0,0,1,0,.027.161.161,0,0,1,.041-.009l0,.019c.062,0,.127.006.192.006a.081.081,0,0,0,0,.022s.016,0,.021,0a.022.022,0,0,1,0-.019.216.216,0,0,1,.061-.007l0-.025c.078,0,.154-.013.233-.025,0,0,0-.01,0-.017.019,0,.039,0,.064-.007a.069.069,0,0,1,0-.025c.085-.006.167-.012.252-.022,0-.014.012-.028.018-.045h.041a.029.029,0,0,0,0-.022l.3-.07c0-.027-.01-.057-.012-.085.023-.02,0,0,.02-.021.023,0,.042,0,.064-.008a4.444,4.444,0,0,1-.062-.653.242.242,0,0,1-.089-.038v-.019a.154.154,0,0,0-.046,0c0-.006,0-.014,0-.02l-.231.063a.232.232,0,0,1-.016.045c-.164-.006-.327-.01-.494-.02a.371.371,0,0,1-.022-.058c-.122.008-.156-.037-.262-.036-.031-.085-.095-.106-.126-.205a.268.268,0,0,0,.095-.113.658.658,0,0,0,.335-.058.417.417,0,0,0,.069.017l.015-.043c.057,0,.112-.012.171-.015,0-.016.015-.031.018-.045a2.219,2.219,0,0,1,.231-.022s-.009-.022.04-.027c.016.013,0,.031.023.021.007-.016.012-.032.019-.047a.158.158,0,0,1,.04,0,.07.07,0,0,0,0-.025c.064,0,.127-.012.191-.019a.037.037,0,0,0,0-.019l.042-.006c0-.006,0-.011,0-.02.06-.037.041.02.08-.051a.04.04,0,0,1,.02,0l.01-.127.019-.007a.544.544,0,0,0-.008-.084.157.157,0,0,1,.023,0c0-.073,0-.146,0-.217h.018c0-.036,0-.07-.006-.107.006,0,.012,0,.018,0,0-.094,0-.186,0-.277.036-.025.027-.032.078-.048a.224.224,0,0,1,.185-.061.173.173,0,0,0,.008.02.232.232,0,0,1,.06-.007l.023.041c.037.016.074.033.114.054C150.818,392.235,150.866,392.251,150.885,392.363Z" transform="translate(-148.077 -389.29)" fill="#1a1311"/>
        </g>
        <g id="组_2224" data-name="组 2224" transform="translate(44.454 60.625)">
          <path id="路径_29861" data-name="路径 29861" d="M156.191,387.919c.055,0,.1-.009.155-.015.036.049.055.049.1.077l.022-.01a.757.757,0,0,1,.146.31.038.038,0,0,0-.022.007.222.222,0,0,1,.013.038.037.037,0,0,1-.018.008.254.254,0,0,0-.019.122c-.013.008-.025.01-.038.017-.013.069-.06.081-.051.161a.243.243,0,0,0-.139.055.237.237,0,0,0,.016.041c-.052.019-.107.04-.158.057a.3.3,0,0,0,.015.041l-.057.026.007.017a.13.13,0,0,0-.011.095c-.048.038-.031.059-.042.068-.036.012-.075.03-.118.047,0,0,.007.011-.027.033-.044-.036-.071-.04-.109-.095a.083.083,0,0,1-.038.016.285.285,0,0,1-.036-.145c.007-.008.01-.006.018-.009a.466.466,0,0,0-.031-.08c.02-.025.047-.047.066-.07a.448.448,0,0,1-.01-.086.293.293,0,0,0,.027-.037c0-.01-.01-.027-.015-.039l.018-.008a.028.028,0,0,0-.032-.031l-.01-.02.02-.007c-.027-.062-.048-.118-.069-.175a.055.055,0,0,1,.021-.011.12.12,0,0,1-.014-.041.032.032,0,0,1,.016-.005.623.623,0,0,0-.05-.119c0-.006,0-.012,0-.02s.015,0,.02-.008l-.011-.018a.03.03,0,0,1-.017,0c-.011-.028-.021-.049-.03-.076,0-.006.012-.009.018-.009-.022-.035-.042-.073-.066-.109a.428.428,0,0,0,.037-.084c.019-.006.035-.016.055-.021.074-.066.133-.054.23-.07C156.035,387.813,156.131,387.828,156.191,387.919Z" transform="translate(-153.177 -387.738)" fill="#1a1311"/>
          <path id="路径_29862" data-name="路径 29862" d="M155.105,388.712c.037.055.074.111.108.165a.13.13,0,0,0-.021.008.322.322,0,0,1,.02.039c-.006.006-.012,0-.017.007a.745.745,0,0,0,.047.118.03.03,0,0,0-.02.009.307.307,0,0,0,.02.057l-.02.011a.126.126,0,0,1,.014.039l-.03.035c-.016.08.015.131-.06.189-.027.077-.061.038-.126.092.007.01,0,.014.008.021l-.091.057a.279.279,0,0,0-.214-.027c-.084-.115-.166-.221-.252-.336-.017,0-.042,0-.067,0a1.531,1.531,0,0,1-.077-.151.268.268,0,0,1,.174-.071c.025.016.04.03.065.047a.576.576,0,0,0,.087-.017l.036.037c.049-.025.1-.043.154-.065,0-.007,0-.016,0-.02.03-.019.061-.039.088-.058a.034.034,0,0,0-.007-.021.148.148,0,0,1,.041-.016.091.091,0,0,1-.008-.02.333.333,0,0,1,.05-.042.113.113,0,0,0,0-.047C155.04,388.741,155.073,388.724,155.105,388.712Z" transform="translate(-153.329 -387.625)" fill="#1a1311"/>
          <path id="路径_29863" data-name="路径 29863" d="M156.661,388.885c.037.055.046.056.112.048a.45.45,0,0,1,.046.231c.013.08-.01.117-.1.153a.054.054,0,0,1,.01.022l-.206.059.011.022a.266.266,0,0,0-.059.02.05.05,0,0,0,.008.02l-.119.048c-.011.033-.02.067-.029.1-.09.1-.23-.027-.222.135-.019.051.039.111.07.181a.406.406,0,0,0,.128-.031c.046-.086.15-.032.217-.086a.968.968,0,0,1,.286-.2c.04.057.063.051.131.039a.349.349,0,0,1,.012.041.041.041,0,0,0,.02-.009.156.156,0,0,1,.012.02.167.167,0,0,1-.02.008c.011.028.019.051.03.081a.31.31,0,0,0-.055.02.742.742,0,0,0,.007.087.739.739,0,0,1-.074.052l.01.018-.139.056a.092.092,0,0,1,.01.021c-.086.039-.165.084-.25.122,0,.014,0,.032,0,.047l-.11.068a.2.2,0,0,0,0,.047l-.041.017c0,.006,0,.012.007.017-.018.03-.028.028-.069.05a.245.245,0,0,1,.02.109.058.058,0,0,0-.022.009c0,.05.047.041.054.067a.087.087,0,0,1-.022.009c0,.027.006.119.038.148a.3.3,0,0,0,.048,0,.177.177,0,0,0,.015.04.132.132,0,0,0,.018-.008c.02.054.045.1.061.158a1.07,1.07,0,0,0-.1.135c-.017,0-.028.011-.041.015a.522.522,0,0,0-.015.075.631.631,0,0,1-.055.042c0,.018,0,.031,0,.047-.02.009-.041.014-.059.025a.052.052,0,0,0,.007.02c-.029.02-.04,0-.048-.007-.071.033-.144.061-.214.09,0-.01-.008-.014-.01-.021l-.02.007-.017.01a.115.115,0,0,1,0,.019c-.01.034-.007,0,0,.047a.594.594,0,0,0-.047.044.092.092,0,0,0,.008.02.475.475,0,0,1-.061.02.43.43,0,0,0,0,.051l-.174.089a.079.079,0,0,0,.012.02l-.038.014a.035.035,0,0,0,.008.02c-.015.007-.028.01-.042.016a.229.229,0,0,1,0,.049.619.619,0,0,0-.057.025.119.119,0,0,1,0,.019.868.868,0,0,1-.089.058c0,.008,0,.011.007.022a.107.107,0,0,0-.04.016.077.077,0,0,1,.007.019l-.047.044c0,.022,0,.042,0,.067-.032.006-.068.011-.1.016a.268.268,0,0,0-.015-.036.133.133,0,0,1-.161-.054.736.736,0,0,1-.077.03c-.015-.017-.03-.035-.041-.05-.061-.026-.065-.122-.07-.175a.263.263,0,0,1,.088-.062l-.007-.017.251-.055c.006.008,0,.013.008.018.027.007.083.023.114,0l0-.019a.219.219,0,0,1,.038-.017c0-.017,0-.03,0-.047.065-.068.113-.019.177-.073l-.009-.02.079-.029-.007-.021c.015-.007.028-.007.038-.017a.046.046,0,0,0-.008-.02c.073-.027.147-.056.218-.085-.013-.035-.027-.062-.039-.1l.039-.016c-.007-.075-.012-.149-.02-.223a.843.843,0,0,0-.069-.108c-.026,0-.057.007-.085.011a.287.287,0,0,0-.013-.04c-.08.026-.166.049-.244.076l-.019.075a.162.162,0,0,1-.038.012.034.034,0,0,0,.009.021c-.132.056-.263.108-.4.16-.033-.03-.042-.021-.07-.065l-.041.017a.606.606,0,0,0-.031-.081c.039-.046.028-.083.086-.125a.031.031,0,0,0-.006-.018.7.7,0,0,0,.272-.113.211.211,0,0,0,.009-.045l.037-.019a.118.118,0,0,0,0-.045l.1-.039-.008-.021a.277.277,0,0,1,.057-.021l-.007-.023a.44.44,0,0,0,.1-.038c0-.006,0-.012,0-.017.013-.006.029-.014.042-.019,0,0-.007-.013-.009-.018.049-.042.1-.09.152-.132a.285.285,0,0,1,.009-.091c-.061-.017-.061-.05-.1-.1a.469.469,0,0,0-.187.007.186.186,0,0,1,.021.037l-.114.068a.06.06,0,0,1,.008.021c-.038.016-.079.03-.115.046,0,.008,0,.011.006.019a.156.156,0,0,0-.039.017.287.287,0,0,1-.008.045.538.538,0,0,1-.088.062.11.11,0,0,0,.009.021c-.059.02-.122.046-.179.068-.062-.041-.032,0-.075-.016-.015-.017-.028-.032-.041-.05-.016,0-.031-.006-.049-.006a.046.046,0,0,1-.006-.02c-.015.009-.028.009-.04.016a.273.273,0,0,1-.095-.123.348.348,0,0,1,.16-.112c0-.006,0-.012-.007-.018.1-.046.193-.088.29-.138a.091.091,0,0,1,0-.046c.011-.007.025-.01.04-.019-.009,0,0-.011-.009-.017a.962.962,0,0,1,.1-.041.048.048,0,0,0-.012-.018.192.192,0,0,0,.045-.017.031.031,0,0,1-.01-.019c.037-.011.066-.028.1-.04a.036.036,0,0,1-.007-.02l.057-.023-.011-.019.118-.047c0-.01,0-.016,0-.02a.633.633,0,0,1,.078-.03l-.01-.021c.034-.019.059-.04.095-.06,0,0-.008-.015-.01-.018.011-.032.007,0,.006-.047.03-.022.057-.042.088-.062,0-.006-.008-.013-.007-.02.045-.022.085-.046.129-.073a.049.049,0,0,1-.008-.022c.018,0,.041-.014.059-.02a.231.231,0,0,0,0-.046c.059-.031.112-.064.171-.094a.165.165,0,0,1,.007-.049c.011,0,.02-.01.035-.015a.343.343,0,0,0,.015-.075.213.213,0,0,0,.061-.023.163.163,0,0,0,.006-.047.431.431,0,0,1,.057-.023c0-.007,0-.014-.006-.02.054-.018.1-.041.16-.061l.006.018c.032-.021.061-.039.09-.059.006.009,0,.015.008.02C156.532,388.927,156.616,388.9,156.661,388.885Z" transform="translate(-153.299 -387.605)" fill="#1a1311"/>
          <path id="路径_29864" data-name="路径 29864" d="M157.4,389.865a.147.147,0,0,0,.041-.016,1.248,1.248,0,0,1,.086.173c-.046.067.008.106-.071.164l.008.02c-.036.017-.077.034-.116.049l.008.02a.147.147,0,0,0-.041.016l.007.017c-.05.021-.1.044-.154.062,0,.011,0,.015.009.025a1.11,1.11,0,0,0-.147.036.043.043,0,0,0,.007.019.23.23,0,0,0-.057.022.051.051,0,0,0,.008.02c-.015,0-.028.009-.042.013a.035.035,0,0,1,.007.022c-.045.02-.092.033-.135.054a.065.065,0,0,0,0,.02l-.019.008a.89.89,0,0,0,.042.1c.029.016.007,0,.035.029.089-.033.1-.012.173-.023a.518.518,0,0,1,.114.184c-.017.013-.032.028-.049.044.021.037.047.076.07.108a.427.427,0,0,0-.032.036c.006.017.009.028.015.042l-.021.007a.4.4,0,0,1,.028.059c-.008,0-.013,0-.021.01a.024.024,0,0,1,.008.017c-.017.009-.038.018-.06.028,0,.014,0,.028,0,.041a.21.21,0,0,0-.039.02.04.04,0,0,0,.008.019c-.021.008-.039.013-.061.023-.007.032-.016.068-.027.105-.045.02-.09.036-.137.052,0,.015,0,.034-.006.046a.261.261,0,0,1-.077.032.037.037,0,0,1,.006.02c-.04.064,0,.089-.1.135a.458.458,0,0,1-.089-.17l.057-.025a.158.158,0,0,1,.025-.055c-.012-.031-.029-.067-.044-.1.013-.012.021-.029.037-.034.014-.041,0-.031.04-.065-.007-.016-.009-.027-.015-.041l.04-.016c-.009-.057-.012-.047.037-.084-.021-.073,0-.072-.009-.135l.038-.017c-.013-.079.017-.095-.008-.181a.062.062,0,0,1-.018.011c-.007-.02-.012-.041-.02-.061l-.02.008c-.018-.016-.029-.031-.047-.049l-.185.048a.224.224,0,0,0-.016-.038.441.441,0,0,0-.058.023.273.273,0,0,1-.1-.145l.071-.046-.006-.02.078-.033a.441.441,0,0,0,.016-.078.329.329,0,0,0,.058-.021.038.038,0,0,0-.008-.021c.035-.011.064-.023.1-.037a.031.031,0,0,0-.008-.02l.06-.023a.045.045,0,0,0-.006-.019c.033-.027.03,0,.047,0l.1-.087c0-.018,0-.029.007-.051a1,1,0,0,0,.1-.086.086.086,0,0,1,.077-.1c-.006,0-.006-.01-.01-.019.077-.037.156-.074.232-.112,0,.006,0,.013.006.02a.669.669,0,0,1,.073-.052c0,.006.007.014.006.021.022-.012.04-.016.06-.028a.035.035,0,0,0,.007.019C157.394,389.852,157.372,389.833,157.4,389.865Z" transform="translate(-153.1 -387.497)" fill="#1a1311"/>
          <path id="路径_29865" data-name="路径 29865" d="M158.6,390.2a.36.36,0,0,1,.037-.018c.007.014.011.028.017.042a.337.337,0,0,1,.06-.023.6.6,0,0,0,.163.117c.006.035.01.069.018.106a.131.131,0,0,1-.023.009.636.636,0,0,1,.042.1s-.012,0-.02.007c-.023.068-.064.048-.06.138-.08.039-.161.081-.247.124-.015-.011-.022-.021-.037-.035a.523.523,0,0,1-.057.026c-.011-.011-.022-.02-.037-.032-.031.012-.065.026-.1.037a.139.139,0,0,0-.016-.035c-.069.056-.125.028-.242.072a.114.114,0,0,1-.016-.039,3.854,3.854,0,0,0-.729.243.265.265,0,0,1-.06-.09.271.271,0,0,0,.074-.051c-.017-.016-.056-.03-.056-.071a.04.04,0,0,0,.022-.007.154.154,0,0,0-.009-.022c.038-.016.08-.03.118-.044,0-.01,0-.012-.008-.021.022-.007.039-.017.059-.025a.058.058,0,0,0,0-.019c.042-.018.09-.037.136-.054a.236.236,0,0,0,0-.048.7.7,0,0,1,.315-.2.182.182,0,0,1,0,.021.453.453,0,0,0,.214-.038l-.007-.021a.638.638,0,0,1,.08-.031l-.008-.021c.011-.008.028-.008.036-.016a.05.05,0,0,0,0-.02c.035-.013.068-.026.1-.039a.037.037,0,0,1,0-.019.262.262,0,0,1,.212-.039C158.6,390.177,158.571,390.162,158.6,390.2Z" transform="translate(-152.985 -387.457)" fill="#1a1311"/>
          <path id="路径_29866" data-name="路径 29866" d="M155.736,392.234a.506.506,0,0,1,.021.059.84.84,0,0,0-.057.135c-.071.03-.134.054-.2.082-.006-.01-.011-.013-.012-.02-.047.01-.1.022-.144.037,0-.009-.007-.016-.008-.022-.027.012-.054.023-.079.032l-.038-.032s-.011.008-.018.007a.028.028,0,0,1,.006.02.3.3,0,0,0-.033.019.033.033,0,0,0,.006.018c-.041.017-.077.035-.119.048a.1.1,0,0,1,.008.021.08.08,0,0,0-.039.016.02.02,0,0,0,.009.019l-.08.031c0,.022-.011.05-.014.075l-.241.095a.274.274,0,0,1,0,.049c-.059.02-.116.045-.179.066-.01.046-.025.089-.035.132l-.094.061,0,.047c-.014.009-.038.015-.056.026l0,.019c-.019,0-.037.016-.055.021s0,.035-.007.046c-.118.054-.232.109-.35.164,0-.007,0-.012,0-.02l-.092.057c0-.006-.006-.01-.006-.019-.021.01-.042.017-.063.026a.035.035,0,0,0-.006-.02c-.015.007-.027.008-.04.015-.048-.023-.1-.051-.146-.078a.646.646,0,0,1-.065,0c-.008-.013-.012-.027-.019-.041l-.019.01a.5.5,0,0,0-.035-.08c.065-.077.144-.252.33-.267a.792.792,0,0,0,.268-.016.367.367,0,0,1,.06-.141c.015,0,.026-.01.037-.01a.21.21,0,0,0,.006-.052c.069-.025.134-.049.2-.077a.242.242,0,0,0,.271-.063c.027-.008.056-.022.08-.031l-.008-.021a.114.114,0,0,0,.039-.016c0-.009,0-.015-.01-.016.05-.022.093-.039.142-.059a.5.5,0,0,1,.021-.076.277.277,0,0,1,.031-.014.353.353,0,0,0,0-.048c.013,0,.028-.011.042-.016-.006,0-.006-.01-.01-.017.069-.023.138-.04.2-.061a.379.379,0,0,0,.006-.045.733.733,0,0,1,.079-.032l-.01-.021a.505.505,0,0,1,.145-.1c0-.023,0-.042-.007-.066.039-.022.077-.046.109-.066,0-.046,0-.013.009-.045a.438.438,0,0,1,.084-.129c.035-.013.066-.028.1-.04a.252.252,0,0,1,0-.046c.085-.051.174-.1.258-.15a.019.019,0,0,1,.009.016.311.311,0,0,0,.044-.01l.006.016.289-.137c.03,0,.122,0,.162,0a.335.335,0,0,1,.051.073.047.047,0,0,1-.021.007c.006.02.016.039.022.059l-.022.008a.233.233,0,0,1,0,.048.246.246,0,0,0-.04.019c-.008.031-.017.065-.025.1a.875.875,0,0,1-.074.051.319.319,0,0,1-.018.075c-.012.006-.022.013-.035.018a.213.213,0,0,0-.006.046c-.013,0-.021.013-.041.018l.011.019c-.115.038-.232.075-.347.115l-.006-.019C155.81,392.142,155.781,392.2,155.736,392.234Z" transform="translate(-153.433 -387.302)" fill="#1a1311"/>
          <path id="路径_29867" data-name="路径 29867" d="M157.847,391.412a.209.209,0,0,1,.018.039.541.541,0,0,1,.056-.025l.011.022a.386.386,0,0,1,.252.059.132.132,0,0,1,.018-.009c.02.047.038.095.059.137-.046.08,0,.03,0,.114a.118.118,0,0,1-.02.011c.006.026.007.056.012.085-.006,0-.013,0-.018.008.009.026.02.052.03.078,0,0-.018,0-.019.01s.009.022.017.037l-.045.065c0,.007.007.012.008.019-.03.018-.06.038-.093.06a.577.577,0,0,1,0,.16c.012.029.021.053.031.08l-.021.008a.51.51,0,0,0,.033.2.249.249,0,0,0-.038.016c.016.039.029.079.045.117,0,.006-.012.006-.018.01l.009.018c-.052.029-.1.057-.152.083,0,.017,0,.033,0,.046-.06.023-.118.05-.179.07l.01.022c-.1.035-.2.079-.3.118a.95.95,0,0,1-.27.129.05.05,0,0,0,0-.02l-.021.009c-.048.02-.1.041-.16.06l-.006-.016c-.133.014-.242.173-.343.228a.263.263,0,0,0-.016-.039.2.2,0,0,0-.038.013c-.035-.006-.056-.064-.081-.083l-.075-.018a.453.453,0,0,1-.023-.054c-.058-.056-.064-.007-.117-.119a.329.329,0,0,1-.038.017c-.027-.071-.055-.142-.086-.215l-.02.007-.017-.038a.07.07,0,0,1-.02,0c0-.017-.017-.04-.022-.056-.006,0-.013,0-.017.009a.294.294,0,0,0-.019-.042c-.025-.007-.048-.007-.078-.017-.008-.028-.018-.05-.027-.079l-.021.01c-.028-.021-.035-.045-.057-.092l-.083.032a.038.038,0,0,0-.008-.021.451.451,0,0,1-.031.037c0-.008,0-.014-.008-.021-.031-.011-.007,0-.033-.03-.106.019-.128-.02-.167-.138a.327.327,0,0,1,.125-.074.051.051,0,0,0,0-.021,1.059,1.059,0,0,0,.1-.043c0,.009.007.016,0,.021a1.064,1.064,0,0,0,.119-.047.123.123,0,0,0,.01.021.242.242,0,0,0,.041-.017.265.265,0,0,0,.03.032.158.158,0,0,0,.042-.017c.019.015.041.032.062.046a.286.286,0,0,1,.055-.023c.007,0,.008.013.013.018a.606.606,0,0,0,.066,0,.592.592,0,0,0,.148.192.048.048,0,0,0,.02,0,.517.517,0,0,0,.021.056c.007,0,.015,0,.02-.007a.186.186,0,0,0,.017.039c.006,0,.011-.007.016-.01.014.037.031.065.042.1a.249.249,0,0,0,.047,0c.013.027.022.053.033.081a.059.059,0,0,0,.019-.011.987.987,0,0,0,.1.125.119.119,0,0,1,.135.056c.132-.067.266-.133.4-.2,0-.019,0-.036,0-.049l.1-.043c0-.012.006-.029.007-.044l.083-.012a.148.148,0,0,0,.006-.047,1.077,1.077,0,0,1,.1-.041l-.009-.02a.154.154,0,0,0,.018-.007.154.154,0,0,1,.03-.1c-.031-.073-.058-.148-.088-.219a.344.344,0,0,0,.051-.043.148.148,0,0,1-.011-.086l.016-.007c0-.013-.007-.027-.011-.04a.079.079,0,0,1,.02-.006c-.017-.035-.027-.069-.039-.1a.32.32,0,0,0-.128.026.135.135,0,0,0-.009-.018c-.08-.01-.309.161-.355.19-.038-.065-.069-.131-.1-.19a.18.18,0,0,1,.03-.037l-.009-.022a.125.125,0,0,0,.05.007.189.189,0,0,1-.011-.021c.04-.021.074-.044.114-.066a.159.159,0,0,0-.019-.039c.069-.035.071-.058.126-.094a.464.464,0,0,1-.006-.067,1.7,1.7,0,0,0,.16-.113c.059-.013.113-.028.17-.04a.076.076,0,0,0-.01-.021.079.079,0,0,1,.021-.009s0,.01.007.018C157.7,391.454,157.774,391.434,157.847,391.412Z" transform="translate(-153.177 -387.312)" fill="#1a1311"/>
        </g>
        <g id="组_2225" data-name="组 2225" transform="translate(27.506 62.576)">
          <path id="路径_29868" data-name="路径 29868" d="M141.47,391.524a.189.189,0,0,1,.042,0,.15.15,0,0,1,0-.045.407.407,0,0,0,.084.006.24.24,0,0,1,0-.042.255.255,0,0,0,.041,0c.047-.11.079-.194.184-.244v-.065a.266.266,0,0,0,.089-.017.465.465,0,0,1,.019-.065.3.3,0,0,0,.048-.018c0-.036,0-.073.007-.107a.049.049,0,0,1,.018,0c.023-.023,0-.009.042-.016q.013-.067.027-.131c.051-.007.038,0,.07-.039.006,0,.011,0,.017,0a.8.8,0,0,1,.008-.084.346.346,0,0,1,.039-.017c0-.035.009-.07.008-.1a.607.607,0,0,1,.064-.041.9.9,0,0,0,.016-.3.307.307,0,0,0-.066-.007,1.09,1.09,0,0,1-.029-.234.121.121,0,0,1,.039,0,.218.218,0,0,0,0-.042c.065-.01.173-.074.281-.032l-.007.026a.227.227,0,0,1,.048,0l-.007.021a.333.333,0,0,1,.068,0l0,.017a.866.866,0,0,0,.084.027.527.527,0,0,1,.017.088c.014.008.031.014.045.022a.675.675,0,0,0,.038.066.123.123,0,0,1,.04,0c.027.022.013.061.017.106.015,0,.03,0,.044,0,0,.019,0,.031,0,.044.023.007.046,0,.067.007a.19.19,0,0,1,0,.04h.042a.648.648,0,0,1-.055.254c-.006,0-.014,0-.02,0a.285.285,0,0,0,0,.041c-.007,0-.01,0-.022,0a.284.284,0,0,1,0,.082.031.031,0,0,1-.02,0c0,.023,0,.044,0,.065-.02.011-.039.027-.065.04-.041.066.025.076-.089.1-.007.04-.02.084-.027.127a.048.048,0,0,0-.023,0,.565.565,0,0,1,0,.106c-.038.028-.074.055-.112.079-.016.05-.031.1-.049.146a.135.135,0,0,1-.021,0,.369.369,0,0,0-.087.122h-.066a.173.173,0,0,1-.155.141c-.017.069-.05.077-.067.146-.033.008-.062.011-.089.017-.008.022-.018.044-.025.066-.058.008-.069.028-.111.057a.165.165,0,0,1,0,.023.863.863,0,0,0-.106.016c-.02.026-.047.054-.069.083a.288.288,0,0,0-.061-.007c0,.007,0,.013,0,.023-.029.017-.036.01-.083.017-.016.056-.032.049-.049.106-.029,0-.059.01-.086.016v.019l-.022,0a.371.371,0,0,1-.008.062.21.21,0,0,1-.039.019c-.014.107-.026.213-.037.32-.012,0-.027.008-.041.014,0,.03,0,.058-.006.087a.074.074,0,0,0-.022,0,.186.186,0,0,1,0,.041c-.006,0-.012,0-.021,0-.038.092,0,.169-.03.212-.023.021,0,.007-.041.018-.011.071-.022.14-.03.212a.054.054,0,0,0-.023,0c0,.012,0,.027,0,.041s-.012,0-.021,0c0,.106.006.213.008.321a.022.022,0,0,0-.02,0c-.015.039.008.028.02.042a.04.04,0,0,0,0,.025.027.027,0,0,0-.018,0c0,.027,0,.056,0,.086a.185.185,0,0,1-.045.017c-.008.108-.012.215-.017.32,0,0,.026,0,.023.04a.048.048,0,0,1-.023,0c0,.033-.006.068-.008.1,0,0-.012,0-.018,0,0,.041,0,.086-.008.128-.006,0-.018,0-.022,0-.008.028-.016.057-.026.085l-.021,0c.009.03.012.059.02.089-.008-.006-.018,0-.025,0a.614.614,0,0,1-.022.081.291.291,0,0,0-.044,0,.9.9,0,0,0-.092.189.309.309,0,0,0-.041,0c-.009.013-.016.03-.025.045l-.341-.016a.219.219,0,0,0-.206-.158c0-.023,0-.047.008-.066-.062-.036-.069-.087-.146-.114a.255.255,0,0,0,0-.041.22.22,0,0,0-.041-.024c0-.073.008-.142.009-.212.124-.021.243-.047.366-.068a.118.118,0,0,1,.109-.1c.033-.145.058-.355.09-.507.007-.127.011-.253.019-.382l.041-.017c.012-.06.018-.114.032-.172a.174.174,0,0,0-.025,0c0-.03,0-.057.008-.086l.018,0a.089.089,0,0,0,0-.025.082.082,0,0,0-.017,0,.086.086,0,0,1,0-.041.02.02,0,0,0-.018,0c-.01-.038.019-.04.018-.042,0-.037-.012-.069-.014-.108a.29.29,0,0,0-.132-.027.181.181,0,0,1,0,.043l-.175.1c0,.018,0,.029,0,.045-.028.02-.056.039-.087.059,0,.02,0,.042,0,.066-.008,0-.017,0-.021,0-.014.021-.033.039-.046.061a.445.445,0,0,1-.066.018c-.011.026-.018.045-.025.064h-.065c-.067.036-.038.116-.155.141,0,.02,0,.041,0,.064-.023.012-.046.028-.066.038,0,.01,0,.015,0,.02h-.04c0,.007,0,.013,0,.021a.387.387,0,0,1-.042,0c-.011.022-.029.044-.04.064a.046.046,0,0,0-.021,0c-.012.036-.02.07-.029.107s-.076.02-.108.033c-.007.017-.016.028-.02.041-.031.008-.059.011-.089.017l0,.025a.307.307,0,0,1-.15.057.122.122,0,0,0,0,.04c-.019,0-.032,0-.048,0a.081.081,0,0,1,0,.04c-.124,0-.185.048-.32.048a.171.171,0,0,1-.033-.127c.025-.066.044-.125.068-.189.066-.019.132-.036.2-.054a.442.442,0,0,1,.047-.065.081.081,0,0,0,.04,0c.013-.014.029-.037.047-.057a.915.915,0,0,1,.1-.016.682.682,0,0,0,.047-.067c.07-.036.071.041.108-.078a.186.186,0,0,1,.044,0c.044-.076.108-.119.141-.209a.214.214,0,0,1,.042,0,.09.09,0,0,1,.043-.04v-.065a.341.341,0,0,1,.046-.018.113.113,0,0,1,0-.047l.018,0c.044-.059-.016-.016.046-.06,0-.006.006-.013,0-.021a.606.606,0,0,0,.067,0c0-.011-.006-.017,0-.025a.6.6,0,0,0,.064-.04c0-.017,0-.04,0-.061a.248.248,0,0,1,.041,0c.012-.021.044-.035.045-.038.011-.038.021-.07.029-.106.021-.012.046-.028.066-.041,0-.017,0-.041,0-.061l.041-.02c0-.012,0-.03.007-.042s.012,0,.023,0c.007-.019.012-.041.019-.064.018,0,.032,0,.044,0a.653.653,0,0,1,.07-.166c.017,0,.032-.013.045-.017.01-.023.016-.046.026-.065a.1.1,0,0,1,.038,0,.6.6,0,0,0,.007-.088c-.067-.017-.137-.036-.208-.05-.05.048-.115.042-.177.075a.191.191,0,0,1-.025.041.669.669,0,0,1-.081.018c0,.021,0,.042,0,.061-.016,0-.03,0-.048,0a.258.258,0,0,1,0,.041c-.077.017-.089.061-.173.077a.142.142,0,0,0,0,.044l-.025,0c-.049.031-.1.064-.152.1a.065.065,0,0,0,0,.021c-.078-.006-.154-.01-.231-.013a.333.333,0,0,0-.025.042c-.012,0-.029,0-.041,0l-.069.084c-.037,0-.069.011-.1.015a.285.285,0,0,0-.025.041.333.333,0,0,0-.047,0,.326.326,0,0,1-.023.059c-.029.03-.09.018-.147.015a.434.434,0,0,0-.19-.05c-.018.095-.02.053-.068.1a.046.046,0,0,1-.025,0,.217.217,0,0,1,0,.047.527.527,0,0,0-.084.017c0,.016,0,.028,0,.041a.707.707,0,0,1-.215-.008c0-.038-.011-.074-.013-.109a.035.035,0,0,1-.021,0c.007-.04.019-.083.026-.126a.078.078,0,0,0,.022,0c0-.032,0-.071,0-.1.019-.013.045-.027.066-.041,0-.027,0-.056.006-.086a.022.022,0,0,0,.019,0,.324.324,0,0,0,0-.041.045.045,0,0,0,.021,0c0-.042,0-.084.008-.126a.369.369,0,0,1,.065-.039.612.612,0,0,0,0-.065.158.158,0,0,1,.09-.1c.115-.1.176.068.316.015a.209.209,0,0,0,.028-.041l.041,0a.06.06,0,0,1,0-.02c.03,0,.056,0,.086,0,.022-.023.042-.051.067-.081a.158.158,0,0,0,.044,0,.131.131,0,0,0,0-.021c.076,0,.156.007.235.01a.042.042,0,0,1,0-.017.1.1,0,0,1,.04,0c0-.006.006-.016,0-.023.126,0,.256,0,.386,0,0-.025.015-.046.018-.062a1.629,1.629,0,0,1,.156-.058c.081-.022.146.049.23.012.018-.026.037-.041.048-.063h.064c.013-.019.029-.039.045-.058.132-.078.211.028.222-.205.044-.035.046-.056.051-.126.014,0,.023,0,.041,0a.209.209,0,0,1,0-.045.371.371,0,0,0,.061-.019c.007-.095.009-.09.052-.146l.018,0c.011-.213.019-.422.033-.637a.142.142,0,0,0-.044,0c-.008-.174-.013-.341-.02-.514h-.061a.28.28,0,0,1-.021-.047.425.425,0,0,0-.146-.112c.01-.035.017-.069.026-.1.042,0,.09-.011.131-.017a.054.054,0,0,0,0-.023c.056.013.114.023.171.032a.036.036,0,0,1,.042-.019.121.121,0,0,1,0,.02c.036,0,.068.006.1.007a.141.141,0,0,1,.02.044c.065.023.129.048.19.074,0,.021.013.042.019.065a.287.287,0,0,1,.041.02.734.734,0,0,0,.019.086l.018,0c0,.028,0,.058,0,.084a.145.145,0,0,0,.037.023c0,.094-.006.186-.006.276a.021.021,0,0,0,.017,0c0,.051,0,.1-.007.151h-.021c0,.042,0,.084,0,.129a.034.034,0,0,0-.021,0,.413.413,0,0,0,0,.084.076.076,0,0,0-.022,0q-.005.136-.01.278a1.327,1.327,0,0,0-.05.125c.006,0,.016,0,.022,0,.031.05.065.1.1.152a.282.282,0,0,0,.061.046c0,.046.01.085.014.131a.06.06,0,0,1,.02,0,.6.6,0,0,1-.055.3c-.013,0-.032.013-.048.018a.086.086,0,0,1,0,.021l.02,0a.151.151,0,0,1,0,.022c.027-.025.006,0,.023-.044a.209.209,0,0,0,.042-.02C141.465,391.57,141.467,391.545,141.47,391.524Z" transform="translate(-138.247 -389.486)" fill="#1a1311"/>
          <path id="路径_29869" data-name="路径 29869" d="M144.034,390.955a.2.2,0,0,1,0,.045c.109.016.116.084.212.117a.154.154,0,0,0,.012.084c.01,0,.012,0,.021,0,0,.035,0,.07-.008.107a.139.139,0,0,1,.045.023c0,.041,0,.083-.006.125a.1.1,0,0,1-.041,0c-.006.021-.019.044-.023.065l-.066.017a.042.042,0,0,0,0,.02.6.6,0,0,1-.065,0,.073.073,0,0,0,0,.022.27.27,0,0,0-.041,0,.055.055,0,0,0,0,.02.357.357,0,0,1-.21-.032c-.17-.006-.343-.01-.507-.02a.062.062,0,0,1,0-.023c-.108-.007-.223-.009-.338-.013a.067.067,0,0,1,0,.021.421.421,0,0,1-.066,0,.051.051,0,0,1,0,.022c-.035,0-.073,0-.106,0a.045.045,0,0,0,0,.02.076.076,0,0,1-.028,0,.039.039,0,0,1,0-.019l-.384-.04a.335.335,0,0,1,.006-.066h-.023c-.077-.092-.108,0-.1-.2.085-.042.1-.095.238-.094a.036.036,0,0,0,0-.019c.1-.006.215-.009.319-.009.008-.012.016-.026.026-.04a.242.242,0,0,0,.04,0,.037.037,0,0,0,0-.022c.027,0,.056,0,.086.006l.022-.042c.061.006.126.009.192.009,0-.006,0-.016,0-.022.029,0,.058-.01.084-.013,0-.009,0-.016.006-.022h.062v-.02c.021-.007.044-.011.063-.018a.281.281,0,0,0,0-.042.3.3,0,0,0,.045,0,.506.506,0,0,1,.025-.059c.1,0,.2.007.3.01a.061.061,0,0,0,0,.025h.064c.013.02.025.046.039.066C143.967,390.937,144,390.947,144.034,390.955Z" transform="translate(-137.775 -389.33)" fill="#1a1311"/>
          <path id="路径_29870" data-name="路径 29870" d="M142.79,392.179a.522.522,0,0,1,.29.144c0,.028,0,.056,0,.086a.061.061,0,0,1,.02,0c0,.07.006.145.011.214a.148.148,0,0,0-.022,0c0,.011,0,.026,0,.041a.078.078,0,0,1-.018,0c-.016.041-.031.085-.05.125-.038.056-.07.065-.094.146-.011,0-.027,0-.038,0-.032.035-.059.071-.093.1-.059.04-.086.02-.113.1-.152.034-.122.143-.324.137a.577.577,0,0,1,0-.3l.017.006c0-.02,0-.031,0-.044l.088-.062a.348.348,0,0,1,.008-.084.135.135,0,0,1-.025,0c.009-.04.016-.083.026-.125a.075.075,0,0,1-.022,0c-.006-.028-.009-.057-.016-.084l-.163-.095a.3.3,0,0,1-.019-.045l-.066,0a.056.056,0,0,0,0-.019c-.042-.039-.084-.075-.122-.113l.023-.065a.04.04,0,0,0,.02,0,.45.45,0,0,0,0-.066l.021,0c.041-.066-.013-.018.046-.061v-.021a.245.245,0,0,1,.041,0,.1.1,0,0,1,.006-.022.205.205,0,0,0,.038,0l0-.022a.87.87,0,0,1,.4.063c.036,0,.07,0,.1,0a.051.051,0,0,1,0,.025C142.794,392.165,142.779,392.139,142.79,392.179Z" transform="translate(-137.804 -389.189)" fill="#1a1311"/>
          <path id="路径_29871" data-name="路径 29871" d="M142.482,393.925c.155.032.408.134.458.255-.007.1-.011.2-.017.3a.124.124,0,0,1-.02,0,.586.586,0,0,0,0,.065c-.008,0-.012,0-.021,0s0,.011,0,.021a.956.956,0,0,1-.458.1c-.029-.042-.065-.089-.1-.132a.053.053,0,0,1-.018,0,.664.664,0,0,1,0-.082.042.042,0,0,0-.02,0,.8.8,0,0,0-.02-.089.377.377,0,0,1-.059-.026c-.009-.012-.012-.026-.022-.041a.248.248,0,0,0-.041,0,.111.111,0,0,0-.016-.044.07.07,0,0,0-.026,0,.144.144,0,0,0,0-.045l-.1-.067a1.249,1.249,0,0,1-.092-.368c.016-.05.056-.1.073-.165a.673.673,0,0,1,.215-.011c.018.031.038.058.058.087a.413.413,0,0,1,.059.027.1.1,0,0,1,0,.041.042.042,0,0,0,.023,0,.2.2,0,0,0,.018.047C142.423,393.841,142.462,393.825,142.482,393.925Z" transform="translate(-137.822 -389.01)" fill="#1a1311"/>
        </g>
        <path id="路径_29872" data-name="路径 29872" d="M140.163,366.475h13.311l-6.608-2.3Z" transform="translate(-110.519 -329.847)" fill="#1a1311"/>
        <rect id="矩形_2849" data-name="矩形 2849" width="13.254" height="1.114" transform="translate(29.672 37.189)" fill="#1a1311"/>
        <rect id="矩形_2850" data-name="矩形 2850" width="14.454" height="1.129" transform="translate(29.072 44.573)" fill="#1a1311"/>
        <path id="路径_29873" data-name="路径 29873" d="M140.188,374.852v3.171h1.456v-2.2h1.771v2.2h2.513v-2.2H147.7v2.2h2.512v-2.2h1.772v2.2h1.456v-3.171Z" transform="translate(-110.516 -328.608)" fill="#1a1311"/>
        <path id="路径_29874" data-name="路径 29874" d="M153.5,372.78v-4.556H140.25v4.556h-.6v.557H154.1v-.557Zm-4.028-3.627H152.1v3.619h-2.628Zm-3.914,0h2.628v3.619h-2.628Zm-3.913,0h2.628v3.619H141.65Z" transform="translate(-110.578 -329.377)" fill="#1a1311"/>
        <rect id="矩形_2851" data-name="矩形 2851" width="15.156" height="1.09" transform="translate(28.654 50.522)" fill="#1a1311"/>
        <path id="路径_29875" data-name="路径 29875" d="M174.645,368.615a25.852,25.852,0,1,0-27.868,25.76l2.018,3.5,2.019-3.5A25.836,25.836,0,0,0,174.645,368.615ZM131,350.809a25.187,25.187,0,0,1,40.5,6.908H126.1A25.3,25.3,0,0,1,131,350.809Zm0,35.6a25.159,25.159,0,0,1-5.109-28.212l20.478,35.466A25.086,25.086,0,0,1,131,386.406Zm17.8,8.272L128.5,359.457h40.646Zm2.434-1.018,20.479-35.466a25.173,25.173,0,0,1-20.479,35.466Z" transform="translate(-112.517 -332.332)" fill="#1a1311"/>
      </g>
      <path id="路径_29876" data-name="路径 29876" d="M125.924,382.57" transform="translate(-112.171 -327.712)" fill="#5f5e5e"/>
    </g>
    <g id="组_13852" data-name="组 13852" transform="translate(134.728 226.094)">
      <g id="组_2215" data-name="组 2215" transform="translate(-1.527 -0.282)">
        <path id="路径_29791" data-name="路径 29791" d="M197.817,383.13l.143,5.848h-.533a6,6,0,0,0-1.843-3.539,4.643,4.643,0,0,0-3.178-1.339,2.97,2.97,0,0,0-2.089.7,2.15,2.15,0,0,0-.771,1.626,1.969,1.969,0,0,0,.271,1.032,4.42,4.42,0,0,0,1.2,1.206,26.7,26.7,0,0,0,2.809,1.513,12.532,12.532,0,0,1,4.156,2.863,4.84,4.84,0,0,1,1.06,3.078,4.977,4.977,0,0,1-1.716,3.787,6.156,6.156,0,0,1-4.353,1.585,7.147,7.147,0,0,1-1.567-.169,11.82,11.82,0,0,1-1.851-.635,2.8,2.8,0,0,0-1.022-.256,1.275,1.275,0,0,0-.712.256,1.784,1.784,0,0,0-.607.788h-.481v-6.626h.481a7.6,7.6,0,0,0,2.192,4.266,5.132,5.132,0,0,0,3.5,1.47,3.3,3.3,0,0,0,2.312-.789,2.437,2.437,0,0,0,.86-1.838,2.409,2.409,0,0,0-.33-1.2,3.845,3.845,0,0,0-1-1.106,15.2,15.2,0,0,0-2.381-1.365,20.713,20.713,0,0,1-3.444-2.007,6.114,6.114,0,0,1-1.608-1.851,4.576,4.576,0,0,1-.563-2.251,4.758,4.758,0,0,1,1.539-3.572,5.386,5.386,0,0,1,3.882-1.475,6.606,6.606,0,0,1,1.657.207,8.113,8.113,0,0,1,1.483.576,3.452,3.452,0,0,0,1.224.42.694.694,0,0,0,.53-.207,2.426,2.426,0,0,0,.361-1Z" transform="translate(-186.738 -383.13)" fill="#1a1311"/>
        <path id="路径_29792" data-name="路径 29792" d="M201.564,383.2A8.7,8.7,0,0,1,211,392.15a9.362,9.362,0,0,1-1.954,5.876,8.694,8.694,0,0,1-7.313,3.362,8.864,8.864,0,0,1-7.323-3.208,9.279,9.279,0,0,1-2.046-6.017,8.751,8.751,0,0,1,2.66-6.516A8.464,8.464,0,0,1,201.564,383.2Zm.156.83a3.954,3.954,0,0,0-3.661,2.455,13.161,13.161,0,0,0-1.022,5.8q0,4.49,1.577,6.637a3.591,3.591,0,0,0,3.08,1.5,3.693,3.693,0,0,0,2.228-.648,5.319,5.319,0,0,0,1.772-2.647,14.688,14.688,0,0,0,.632-4.742,15.847,15.847,0,0,0-.643-5.205,5.08,5.08,0,0,0-1.654-2.443A3.877,3.877,0,0,0,201.72,384.026Z" transform="translate(-177.959 -383.04)" fill="#1a1311"/>
        <path id="路径_29793" data-name="路径 29793" d="M200.253,383.287h9.059v.479h-.453a3.155,3.155,0,0,0-1.4.213,1.186,1.186,0,0,0-.543.589,6.263,6.263,0,0,0-.161,1.877v8.6a8.658,8.658,0,0,0,.356,3.116,2.939,2.939,0,0,0,1.168,1.267,3.847,3.847,0,0,0,2.061.5,4.4,4.4,0,0,0,2.425-.64,3.935,3.935,0,0,0,1.5-1.767,10.78,10.78,0,0,0,.5-3.92v-7.157a4.093,4.093,0,0,0-.246-1.682,1.476,1.476,0,0,0-.62-.7,3.669,3.669,0,0,0-1.644-.3v-.479h6.068v.479h-.361a2.319,2.319,0,0,0-1.229.3,1.669,1.669,0,0,0-.712.894,4.363,4.363,0,0,0-.172,1.488v6.665a17.261,17.261,0,0,1-.407,4.466,4.943,4.943,0,0,1-1.987,2.522,7.172,7.172,0,0,1-4.309,1.152,8.2,8.2,0,0,1-3.518-.609,5.156,5.156,0,0,1-2.394-2.123,7.329,7.329,0,0,1-.7-3.477v-8.6a6.08,6.08,0,0,0-.169-1.884,1.249,1.249,0,0,0-.581-.586,3.484,3.484,0,0,0-1.529-.207Z" transform="translate(-165.648 -382.885)" fill="#1a1311"/>
        <path id="路径_29794" data-name="路径 29794" d="M223.622,383.287v4.747h-.466a7.561,7.561,0,0,0-.917-2.361,3.574,3.574,0,0,0-1.388-1.144,4.413,4.413,0,0,0-1.721-.233h-1.306V397.83a5.411,5.411,0,0,0,.149,1.682,1.319,1.319,0,0,0,.581.589,2.35,2.35,0,0,0,1.185.251h.584v.481h-9.189v-.481h.581a2.461,2.461,0,0,0,1.232-.266,1.258,1.258,0,0,0,.527-.625,5.194,5.194,0,0,0,.146-1.631V384.3h-1.27a3.7,3.7,0,0,0-2.576.75,4.966,4.966,0,0,0-1.424,2.988h-.492v-4.747Z" transform="translate(-153.778 -382.885)" fill="#1a1311"/>
        <path id="路径_29795" data-name="路径 29795" d="M221.3,392.4v5.433a5.581,5.581,0,0,0,.149,1.682,1.32,1.32,0,0,0,.586.589,2.3,2.3,0,0,0,1.168.251h.581v.481h-9.174v-.481h.586a2.451,2.451,0,0,0,1.229-.266,1.219,1.219,0,0,0,.517-.625,5.4,5.4,0,0,0,.143-1.631V386.288a5.882,5.882,0,0,0-.143-1.682,1.3,1.3,0,0,0-.576-.586,2.294,2.294,0,0,0-1.17-.253h-.586v-.479h9.174v.479H223.2a2.464,2.464,0,0,0-1.229.269,1.29,1.29,0,0,0-.53.625,5.292,5.292,0,0,0-.143,1.629v4.97h6.2v-4.97a5.953,5.953,0,0,0-.138-1.682,1.314,1.314,0,0,0-.581-.586,2.339,2.339,0,0,0-1.183-.253h-.568v-.479h9.164v.479h-.568a2.392,2.392,0,0,0-1.229.269,1.255,1.255,0,0,0-.533.625,5.211,5.211,0,0,0-.143,1.629V397.83a5.656,5.656,0,0,0,.143,1.682,1.288,1.288,0,0,0,.584.589,2.351,2.351,0,0,0,1.178.251h.568v.481h-9.164v-.481h.568a2.41,2.41,0,0,0,1.232-.266,1.254,1.254,0,0,0,.533-.625,5.468,5.468,0,0,0,.138-1.631V392.4Z" transform="translate(-143.251 -382.885)" fill="#1a1311"/>
        <path id="路径_29796" data-name="路径 29796" d="M229.339,384.3v7.144h.351a2.779,2.779,0,0,0,2.422-1.05,6.479,6.479,0,0,0,.955-3.093h.492v9.187h-.492a6.837,6.837,0,0,0-.656-2.453,2.784,2.784,0,0,0-1.157-1.293,4.431,4.431,0,0,0-1.915-.33v4.944a6.967,6.967,0,0,0,.125,1.774,1.069,1.069,0,0,0,.456.53,2.171,2.171,0,0,0,1.088.207h1.05a5.666,5.666,0,0,0,6.071-4.606h.476l-.791,5.577H222.648v-.481h.584a2.427,2.427,0,0,0,1.226-.266,1.213,1.213,0,0,0,.522-.625,5.348,5.348,0,0,0,.141-1.631V386.288a9.485,9.485,0,0,0-.064-1.46,1.253,1.253,0,0,0-.479-.7,2.233,2.233,0,0,0-1.347-.361h-.584v-.479h14.69v5.188h-.489a6.368,6.368,0,0,0-1.057-2.729,3.927,3.927,0,0,0-1.923-1.216,10.361,10.361,0,0,0-2.717-.233Z" transform="translate(-130.702 -382.885)" fill="#1a1311"/>
        <path id="路径_29797" data-name="路径 29797" d="M240.24,396.063h-6.2l-.737,1.705a3.768,3.768,0,0,0-.361,1.411,1.164,1.164,0,0,0,.594,1.086,5.011,5.011,0,0,0,1.723.31v.481h-5.835v-.481a2.605,2.605,0,0,0,1.549-.781,10.192,10.192,0,0,0,1.5-2.648l6.276-14H239l6.324,14.39a8.931,8.931,0,0,0,1.493,2.579,2.013,2.013,0,0,0,1.242.461v.481h-8.488v-.481h.346a2.657,2.657,0,0,0,1.436-.282.689.689,0,0,0,.287-.594,1.654,1.654,0,0,0-.077-.479c-.018-.079-.148-.4-.389-.973Zm-.438-.96-2.614-6.043L234.5,395.1Z" transform="translate(-120.123 -383.107)" fill="#1a1311"/>
        <path id="路径_29798" data-name="路径 29798" d="M248.431,383.13l.143,5.848h-.527a6.028,6.028,0,0,0-1.846-3.539,4.653,4.653,0,0,0-3.18-1.339,2.974,2.974,0,0,0-2.089.7,2.147,2.147,0,0,0-.768,1.626,1.97,1.97,0,0,0,.271,1.032,4.442,4.442,0,0,0,1.2,1.206,27.125,27.125,0,0,0,2.811,1.513,12.414,12.414,0,0,1,4.15,2.863,4.815,4.815,0,0,1,1.065,3.078,4.992,4.992,0,0,1-1.713,3.787,6.173,6.173,0,0,1-4.358,1.585,7.147,7.147,0,0,1-1.567-.169,11.822,11.822,0,0,1-1.851-.635,2.777,2.777,0,0,0-1.019-.256,1.262,1.262,0,0,0-.712.256,1.766,1.766,0,0,0-.607.788h-.479v-6.626h.479a7.553,7.553,0,0,0,2.194,4.266,5.107,5.107,0,0,0,3.5,1.47,3.3,3.3,0,0,0,2.31-.789,2.393,2.393,0,0,0,.535-3.042,3.972,3.972,0,0,0-1.006-1.106,15.2,15.2,0,0,0-2.381-1.365,20.821,20.821,0,0,1-3.444-2.007,6.151,6.151,0,0,1-1.608-1.851,4.551,4.551,0,0,1-.566-2.251,4.761,4.761,0,0,1,1.541-3.572,5.387,5.387,0,0,1,3.877-1.475,6.646,6.646,0,0,1,1.662.207,8.171,8.171,0,0,1,1.48.576,3.469,3.469,0,0,0,1.224.42.683.683,0,0,0,.53-.207,2.448,2.448,0,0,0,.366-1Z" transform="translate(-107.749 -383.13)" fill="#1a1311"/>
        <path id="路径_29799" data-name="路径 29799" d="M258.709,383.287v4.747h-.466a7.5,7.5,0,0,0-.917-2.361,3.5,3.5,0,0,0-1.388-1.144,4.387,4.387,0,0,0-1.721-.233H252.91V397.83a5.556,5.556,0,0,0,.151,1.682,1.32,1.32,0,0,0,.581.589,2.367,2.367,0,0,0,1.188.251h.584v.481h-9.192v-.481h.586a2.447,2.447,0,0,0,1.227-.266,1.275,1.275,0,0,0,.53-.625,5.4,5.4,0,0,0,.143-1.631V384.3h-1.27a3.672,3.672,0,0,0-2.571.75,4.971,4.971,0,0,0-1.431,2.988h-.484v-4.747Z" transform="translate(-99.018 -382.885)" fill="#1a1311"/>
        <path id="路径_29800" data-name="路径 29800" d="M252.124,383.287h9.059v.479h-.453a3.154,3.154,0,0,0-1.4.213,1.215,1.215,0,0,0-.545.589,6.486,6.486,0,0,0-.159,1.877v8.6a8.718,8.718,0,0,0,.356,3.116,2.923,2.923,0,0,0,1.168,1.267,3.844,3.844,0,0,0,2.064.5,4.4,4.4,0,0,0,2.422-.64,3.915,3.915,0,0,0,1.5-1.767,10.7,10.7,0,0,0,.5-3.92v-7.157a4.129,4.129,0,0,0-.248-1.682,1.49,1.49,0,0,0-.62-.7,3.668,3.668,0,0,0-1.644-.3v-.479h6.071v.479h-.366a2.343,2.343,0,0,0-1.229.3,1.716,1.716,0,0,0-.712.894,4.445,4.445,0,0,0-.169,1.488v6.665a17.253,17.253,0,0,1-.407,4.466,4.955,4.955,0,0,1-1.987,2.522,7.163,7.163,0,0,1-4.307,1.152,8.2,8.2,0,0,1-3.521-.609,5.188,5.188,0,0,1-2.4-2.123,7.36,7.36,0,0,1-.7-3.477v-8.6a6.111,6.111,0,0,0-.166-1.884,1.261,1.261,0,0,0-.581-.586,3.5,3.5,0,0,0-1.529-.207Z" transform="translate(-84.705 -382.885)" fill="#1a1311"/>
        <path id="路径_29801" data-name="路径 29801" d="M265.726,383.287l8.657,10.882v-7.546a3.558,3.558,0,0,0-.453-2.135,2.493,2.493,0,0,0-2.082-.722v-.479h5.794v.479a4.49,4.49,0,0,0-1.5.369,1.531,1.531,0,0,0-.591.735,5.071,5.071,0,0,0-.215,1.754v14.61H274.9l-11.868-14.61v11.156a2.458,2.458,0,0,0,.694,2.043,2.521,2.521,0,0,0,1.585.53h.412v.481H259.5v-.481a2.159,2.159,0,0,0,2.586-2.573V385.394l-.379-.463a3.366,3.366,0,0,0-.981-.922,2.987,2.987,0,0,0-1.226-.243v-.479Z" transform="translate(-73.189 -382.885)" fill="#1a1311"/>
        <path id="路径_29802" data-name="路径 29802" d="M276.217,400.352v.481h-9.179v-.481h.584a2.462,2.462,0,0,0,1.232-.266,1.179,1.179,0,0,0,.515-.625,5.362,5.362,0,0,0,.146-1.631V386.288a5.84,5.84,0,0,0-.146-1.682,1.25,1.25,0,0,0-.576-.586,2.268,2.268,0,0,0-1.17-.253h-.584v-.479h9.179v.479h-.581a2.449,2.449,0,0,0-1.232.269,1.255,1.255,0,0,0-.532.625,5.488,5.488,0,0,0-.136,1.629V397.83a5.564,5.564,0,0,0,.143,1.682,1.347,1.347,0,0,0,.581.589,2.34,2.34,0,0,0,1.175.251Z" transform="translate(-61.432 -382.885)" fill="#1a1311"/>
        <path id="路径_29803" data-name="路径 29803" d="M289.6,383.287v.479a2.869,2.869,0,0,0-1.71,1.022,15.989,15.989,0,0,0-1.616,3.042l-6.045,13.4h-.423l-6.02-13.947a17.54,17.54,0,0,0-1.459-2.965,2.06,2.06,0,0,0-1.388-.556v-.479h8.414v.479h-.289a2.938,2.938,0,0,0-1.547.284.627.627,0,0,0-.3.566,1.651,1.651,0,0,0,.1.551c.064.215.3.781.7,1.705l3.738,8.734,3.464-7.776a20.113,20.113,0,0,0,.766-1.89,2.947,2.947,0,0,0,.141-.814,1.21,1.21,0,0,0-.2-.689,1.312,1.312,0,0,0-.612-.453,4.1,4.1,0,0,0-1.475-.218v-.479Z" transform="translate(-55.342 -382.885)" fill="#1a1311"/>
        <path id="路径_29804" data-name="路径 29804" d="M285.235,384.3v7.144h.351a2.778,2.778,0,0,0,2.42-1.05,6.48,6.48,0,0,0,.952-3.093h.5v9.187h-.5a6.735,6.735,0,0,0-.65-2.453,2.8,2.8,0,0,0-1.16-1.293,4.426,4.426,0,0,0-1.913-.33v4.944a7.144,7.144,0,0,0,.123,1.774,1.074,1.074,0,0,0,.458.53,2.158,2.158,0,0,0,1.088.207h1.05a5.651,5.651,0,0,0,6.063-4.606h.484l-.791,5.577H278.542v-.481h.586a2.44,2.44,0,0,0,1.226-.266,1.206,1.206,0,0,0,.517-.625,5.307,5.307,0,0,0,.144-1.631V386.288a9.514,9.514,0,0,0-.064-1.46,1.241,1.241,0,0,0-.479-.7,2.229,2.229,0,0,0-1.344-.361h-.586v-.479h14.687v5.188h-.489a6.372,6.372,0,0,0-1.052-2.729,3.938,3.938,0,0,0-1.923-1.216,10.391,10.391,0,0,0-2.722-.233Z" transform="translate(-43.481 -382.885)" fill="#1a1311"/>
        <path id="路径_29805" data-name="路径 29805" d="M291.979,392.838v4.916a5.57,5.57,0,0,0,.172,1.792,1.293,1.293,0,0,0,.617.589,4.117,4.117,0,0,0,1.644.218v.481h-8.979v-.481a4.086,4.086,0,0,0,1.646-.22,1.318,1.318,0,0,0,.609-.594,5.322,5.322,0,0,0,.174-1.785V386.367a5.389,5.389,0,0,0-.174-1.792,1.264,1.264,0,0,0-.617-.591,4.121,4.121,0,0,0-1.639-.218v-.479h8.152a17.892,17.892,0,0,1,4.657.438,4.714,4.714,0,0,1,2.409,1.623,4.369,4.369,0,0,1,.93,2.776,4.154,4.154,0,0,1-1.4,3.211,5.773,5.773,0,0,1-2.5,1.2l4.217,5.943a8.769,8.769,0,0,0,1.18,1.434,2.194,2.194,0,0,0,1.227.438v.481h-5.523l-5.656-8Zm0-8.606v7.686h.737a8.261,8.261,0,0,0,2.694-.33,2.689,2.689,0,0,0,1.4-1.193,4.339,4.339,0,0,0,.512-2.24,3.41,3.41,0,0,0-3.961-3.923Z" transform="translate(-32.729 -382.885)" fill="#1a1311"/>
        <path id="路径_29806" data-name="路径 29806" d="M304.324,383.13l.143,5.848h-.53a5.991,5.991,0,0,0-1.838-3.539,4.661,4.661,0,0,0-3.185-1.339,2.965,2.965,0,0,0-2.084.7,2.152,2.152,0,0,0-.773,1.626,1.947,1.947,0,0,0,.274,1.032,4.455,4.455,0,0,0,1.2,1.206,26.824,26.824,0,0,0,2.806,1.513,12.475,12.475,0,0,1,4.156,2.863,4.826,4.826,0,0,1,1.06,3.078,4.989,4.989,0,0,1-1.71,3.787,6.177,6.177,0,0,1-4.358,1.585,7.162,7.162,0,0,1-1.567-.169,11.626,11.626,0,0,1-1.849-.635,2.81,2.81,0,0,0-1.027-.256,1.274,1.274,0,0,0-.709.256,1.8,1.8,0,0,0-.607.788h-.479v-6.626h.479a7.569,7.569,0,0,0,2.194,4.266,5.128,5.128,0,0,0,3.5,1.47,3.284,3.284,0,0,0,2.307-.789,2.378,2.378,0,0,0,.533-3.042,3.821,3.821,0,0,0-1.006-1.106,15.191,15.191,0,0,0-2.381-1.365,20.989,20.989,0,0,1-3.441-2.007,6.194,6.194,0,0,1-1.611-1.851,4.6,4.6,0,0,1-.561-2.251A4.758,4.758,0,0,1,294.8,384.6a5.384,5.384,0,0,1,3.879-1.475,6.592,6.592,0,0,1,1.657.207,8.038,8.038,0,0,1,1.482.576,3.46,3.46,0,0,0,1.227.42.681.681,0,0,0,.527-.207,2.427,2.427,0,0,0,.361-1Z" transform="translate(-20.529 -383.13)" fill="#1a1311"/>
        <path id="路径_29807" data-name="路径 29807" d="M307.859,400.352v.481h-9.182v-.481h.581a2.466,2.466,0,0,0,1.234-.266,1.18,1.18,0,0,0,.515-.625,5.085,5.085,0,0,0,.148-1.631V386.288a5.534,5.534,0,0,0-.148-1.682,1.282,1.282,0,0,0-.573-.586,2.29,2.29,0,0,0-1.175-.253h-.581v-.479h9.182v.479h-.586a2.475,2.475,0,0,0-1.232.269,1.231,1.231,0,0,0-.525.625,5.292,5.292,0,0,0-.143,1.629V397.83a5.581,5.581,0,0,0,.149,1.682,1.287,1.287,0,0,0,.584.589,2.3,2.3,0,0,0,1.168.251Z" transform="translate(-12.061 -382.885)" fill="#1a1311"/>
        <path id="路径_29808" data-name="路径 29808" d="M318.633,383.287v4.747h-.461a7.487,7.487,0,0,0-.919-2.361,3.557,3.557,0,0,0-1.388-1.144,4.413,4.413,0,0,0-1.721-.233h-1.306V397.83a5.588,5.588,0,0,0,.148,1.682,1.326,1.326,0,0,0,.579.589,2.364,2.364,0,0,0,1.191.251h.579v.481h-9.19v-.481h.581a2.478,2.478,0,0,0,1.234-.266,1.243,1.243,0,0,0,.525-.625,5.2,5.2,0,0,0,.146-1.631V384.3h-1.267a3.679,3.679,0,0,0-2.573.75,4.924,4.924,0,0,0-1.424,2.988h-.494v-4.747Z" transform="translate(-5.513 -382.885)" fill="#1a1311"/>
        <path id="路径_29809" data-name="路径 29809" d="M328.1,383.287v.479a2.575,2.575,0,0,0-1.334.5,13.617,13.617,0,0,0-2.048,2.962l-3.8,6.352v4.245a5.851,5.851,0,0,0,.143,1.69,1.31,1.31,0,0,0,.563.581,2.165,2.165,0,0,0,1.122.251h.983v.481h-9.848v-.481h.919a2.412,2.412,0,0,0,1.229-.266,1.275,1.275,0,0,0,.53-.625,5.314,5.314,0,0,0,.143-1.631v-3.518l-4.127-7.517a11.2,11.2,0,0,0-1.736-2.622,2.156,2.156,0,0,0-1.344-.407v-.479H317.9v.479h-.371a1.915,1.915,0,0,0-1.07.218.61.61,0,0,0-.3.469,7.774,7.774,0,0,0,1.035,2.343l3.172,5.809,3.157-5.295a7.057,7.057,0,0,0,1.175-2.573.687.687,0,0,0-.338-.581,3.134,3.134,0,0,0-1.616-.389v-.479Z" transform="translate(4.82 -382.885)" fill="#1a1311"/>
      </g>
      <path id="路径_63664" data-name="路径 63664" d="M6.321-9.72v-.613H.63v.613l1.619.153c.034,1.721.034,3.442.034,5.146v.835c0,1.738,0,3.459-.034,5.146L.63,1.714v.6H6.321v-.6L4.7,1.561c-.051-1.7-.051-3.442-.051-5.146V-4.42c0-1.738,0-3.442.051-5.146Zm14.194-.613h-4.6v.613l2.2.239.051,8.418-6.68-9.27h-3.6v.613l1.3.153.273.358L9.372,1.509l-1.585.2v.6h4.6v-.6l-2.181-.222L10.155-8.22l7.532,10.6h1.176L18.948-9.5l1.568-.222Zm15,.716.7,2.812h.954l-.1-3.527H26.241l-.119,3.527h.954l.716-2.812h2.641c.017,1.721.017,3.476.017,5.2v.835c0,1.738,0,3.459-.017,5.146l-1.823.153v.6h6.083v-.6L32.87,1.561c-.034-1.721-.034-3.442-.034-5.146V-4.42c0-1.755,0-3.493.034-5.2Zm16.222-.1v-.613H46.127v.613l1.551.153c.034,1.687.034,3.391.034,5.078H42.5c0-1.7,0-3.408.051-5.078L44.1-9.72v-.613H38.493v.613l1.619.17c.017,1.7.017,3.425.017,5.129v.835c0,1.738,0,3.459-.017,5.146l-1.619.153v.6H44.1v-.6l-1.551-.136c-.051-1.7-.051-3.442-.051-5.4h5.214c0,1.977,0,3.715-.034,5.4l-1.551.136v.6h5.606v-.6l-1.619-.153C50.1-.143,50.1-1.881,50.1-3.585V-4.42c0-1.738,0-3.442.017-5.146ZM62.417-1.115l-.665,2.726H57.51c-.051-1.738-.051-3.493-.051-5.419h2.573l.239,1.789h.8V-6.312h-.8l-.256,1.857H57.459c0-1.789,0-3.493.051-5.163h3.9l.648,2.624h.92l-.017-3.34H53.437v.613l1.619.153c.034,1.721.034,3.442.034,5.146v.835c0,1.738,0,3.459-.034,5.146l-1.619.153v.6H63.3l.051-3.425Zm17.449-.153h-.988l-.75,2.88a4.411,4.411,0,0,1-1.67.324c-2.556,0-4.43-1.908-4.43-5.93,0-3.987,1.909-5.947,4.43-5.947a3.9,3.9,0,0,1,1.534.29l.75,2.914h.971l.034-2.948a6.927,6.927,0,0,0-3.6-.954,6.31,6.31,0,0,0-6.663,6.629c0,4.243,2.812,6.646,6.594,6.646a7.533,7.533,0,0,0,3.8-.971ZM87.244-9.72v-.613H81.553v.613l1.619.153c.034,1.721.034,3.442.034,5.146v.835c0,1.738,0,3.459-.034,5.146l-1.619.153v.6h5.691v-.6l-1.619-.153c-.051-1.7-.051-3.442-.051-5.146V-4.42c0-1.738,0-3.442.051-5.146Zm10.684.1.7,2.812h.954l-.1-3.527H88.659L88.54-6.806h.954l.716-2.812h2.641c.017,1.721.017,3.476.017,5.2v.835c0,1.738,0,3.459-.017,5.146l-1.823.153v.6h6.083v-.6l-1.823-.153c-.034-1.721-.034-3.442-.034-5.146V-4.42c0-1.755,0-3.493.034-5.2Zm12.61.119,1.5-.222v-.613h-4.09v.613l1.687.222L106.96-3.688l-2.692-5.845,1.738-.187v-.613h-5.589v.613l1.125.119,3.425,6.952c0,1.908,0,2.982-.034,4.209l-1.823.153v.6h6.1v-.6l-1.84-.153c-.034-1.3-.034-2.437-.034-4.533Zm9.525,5.487c0-3.272,1.056-5.93,3.34-5.93s3.357,2.658,3.357,5.93c0,3.323-1.074,5.947-3.357,5.947S120.064-.689,120.064-4.011Zm3.34-6.629c-3.084,0-5.9,2.369-5.9,6.629,0,4.345,2.795,6.646,5.9,6.646s5.879-2.369,5.879-6.646C129.282-8.323,126.5-10.64,123.4-10.64Zm15.4,1.022.648,2.624h.92l-.017-3.34h-9.611v.613l1.619.153c.034,1.721.034,3.442.034,5.146v.835c0,1.738,0,3.459-.034,5.146l-1.619.153v.6h5.9v-.6l-1.823-.17c-.051-1.7-.051-3.459-.051-5.351h2.607l.256,1.926h.8v-4.43h-.8l-.256,1.857h-2.607c0-1.789,0-3.493.051-5.163Zm20.09-.716h-4.6v.613l2.2.239.051,8.418-6.68-9.27h-3.6v.613l1.3.153.273.358-.085,10.718-1.585.2v.6h4.6v-.6l-2.181-.222-.051-9.713,7.532,10.6h1.176L157.33-9.5,158.9-9.72Zm3.647,7.924,1.806-5.845,1.874,5.845Zm7.4,3.97-4.073-11.945h-1.482L160.5,1.509l-1.465.2v.6h3.987v-.6l-1.67-.2,1.005-3.289h4.073L167.5,1.526l-1.653.187v.6h5.5v-.6Zm15-11.894h-4.6v.613l2.2.239.051,8.418-6.68-9.27h-3.6v.613l1.3.153.273.358-.085,10.718-1.585.2v.6h4.6v-.6l-2.181-.222-.051-9.713,7.532,10.6h1.176L183.367-9.5l1.568-.222Zm7.412,0h-5.879v.613l1.789.17c.068,7.157.136,9.61.136,11.025,0,1.721-.29,2.726-.784,3.255l-.494-.562a1.9,1.9,0,0,0-1.448-.818,1.2,1.2,0,0,0-1.278,1.125,1.9,1.9,0,0,0,1.926.971,3.892,3.892,0,0,0,3.8-2.948,12.359,12.359,0,0,0,.579-4.6v-2.4c0-1.7,0-3.391.017-5.061l1.636-.153Zm7.157.613v-.613h-5.691v.613l1.619.153c.034,1.721.034,3.442.034,5.146v.835c0,1.738,0,3.459-.034,5.146l-1.619.153v.6H199.5v-.6l-1.619-.153c-.051-1.7-.051-3.442-.051-5.146V-4.42c0-1.738,0-3.442.051-5.146Zm14.194-.613h-4.6v.613l2.2.239.051,8.418-6.68-9.27h-3.6v.613l1.3.153.273.358-.085,10.718-1.585.2v.6h4.6v-.6l-2.181-.222-.051-9.713,7.532,10.6h1.176L212.131-9.5,213.7-9.72Zm13.138,6.509h-5.351v.6l1.874.187c.034,1.227.051,2.42.051,3.664V1.731a5.684,5.684,0,0,1-1.551.2c-2.522,0-4.328-2.232-4.328-5.947,0-3.919,1.874-5.93,4.43-5.93a3.562,3.562,0,0,1,1.653.358l.716,2.829h1.005l.034-2.948a7.069,7.069,0,0,0-3.715-.937,6.274,6.274,0,0,0-6.663,6.611c0,4.073,2.641,6.663,6.56,6.663a7.808,7.808,0,0,0,4.124-1.125V.674c0-1.346.017-2.573.034-3.766l1.125-.136Z" transform="translate(36.012 46.395)"/>
    </g>
  </g>
</svg>
