<svg xmlns="http://www.w3.org/2000/svg" width="120" height="110.152" viewBox="0 0 120 110.152"><g transform="translate(-11 -159)"><g transform="translate(-242.723 203.443)"><g transform="translate(253.723 46.748)"><path d="M346.164,44.222a18.532,18.532,0,0,1,1.428,1.348,15.249,15.249,0,0,1,1.25,1.492.481.481,0,0,1,.1.382.5.5,0,0,1-.487.4h-.012a.484.484,0,0,1-.4-.2,13.13,13.13,0,0,0-1.154-1.393,18.609,18.609,0,0,0-1.414-1.334.6.6,0,0,1-.173-.48.509.509,0,0,1,.448-.393.564.564,0,0,1,.418.18" transform="translate(-303.84 -43.736)" fill="#1a1311"/><path d="M346.229,68.821a.444.444,0,0,1-.48.387.482.482,0,0,1-.4-.2,18.125,18.125,0,0,0-1.236-1.435,14.962,14.962,0,0,0-1.492-1.352.483.483,0,0,1,.285-.879.582.582,0,0,1,.424.179c.613.52,1.1.971,1.489,1.371a14.345,14.345,0,0,1,1.311,1.533.569.569,0,0,1,.1.4" transform="translate(-301.616 -60.153)" fill="#1a1311"/><path d="M342.691,99.75a12.861,12.861,0,0,0,1.676-2.423,26.38,26.38,0,0,0,1.709-3.982,1.265,1.265,0,0,0,.085-.4.492.492,0,0,0-.5-.491.443.443,0,0,0-.421.308,21.914,21.914,0,0,1-1.474,3.488A16.262,16.262,0,0,1,341.9,99a.565.565,0,0,0-.083.377.542.542,0,0,0,.876.377" transform="translate(-301.146 -80.982)" fill="#1a1311"/><path d="M368.075,43.134a11.151,11.151,0,0,1-.395,1.5h9.56a.47.47,0,0,1,.476.5v.011a.462.462,0,0,1-.481.476h-9.962v0a9.03,9.03,0,0,1-1.863,2.472.62.62,0,0,1-.5.187.571.571,0,0,1-.455-.459.473.473,0,0,1,.171-.477,5.773,5.773,0,0,0,1.6-1.835l0,0,0,0a6.516,6.516,0,0,0,.865-2.425v.005c.023-.166.128-.367.5-.387a.426.426,0,0,1,.48.444" transform="translate(-318.601 -42.689)" fill="#1a1311"/><path d="M368.273,76.24a.571.571,0,0,0,.455.459,20.245,20.245,0,0,0,4.01.564,1.7,1.7,0,0,0,1.36-.637,4.589,4.589,0,0,0,.847-2.187H376.6a.492.492,0,0,0,.469-.469v-.023a.5.5,0,0,0-.469-.49H375.12c.214-1.282.406-2.688.573-4.185h1.432a.472.472,0,0,0,.5-.476v-.011a.479.479,0,0,0-.5-.5H375.8c.128-1.178.246-2.427.349-3.717v-.008a1.219,1.219,0,0,0-1.364-1.363h-7.052a.91.91,0,0,0-.962.953v0a41.263,41.263,0,0,1-.5,4.133h-1.738a.48.48,0,0,0-.5.5v.011a.47.47,0,0,0,.5.476h1.565c-.2,1.044-.435,2.179-.717,3.381l-.083.434v.01a1.2,1.2,0,0,0,1.343,1.343h7.33a4.91,4.91,0,0,1-.348,1.214.928.928,0,0,1-.872.547,17.158,17.158,0,0,1-3.563-.5,2.229,2.229,0,0,0-.423-.062.52.52,0,0,0-.48.6m3.227-7.952c.128-1.046.244-2.328.347-3.818.01-.1.015-.195.017-.286H374.7c.265,0,.379.113.379.377-.1,1.343-.216,2.6-.331,3.727Zm3.169.983c-.165,1.573-.352,2.98-.554,4.185h-3.5c.366-1.655.625-3.062.77-4.185Zm-7.961,4.185c-.25,0-.358-.106-.36-.353,0-.02.058-.33.058-.33.272-1.162.515-2.341.726-3.5h3.254c-.184,1.3-.439,2.681-.762,4.1-.013.027-.021.055-.031.083Zm.579-5.168c.2-1.242.36-2.49.463-3.712.049-.392.232-.392.3-.392h2.828c-.09,1.586-.205,2.966-.343,4.1Z" transform="translate(-318.271 -58.301)" fill="#1a1311"/><path d="M163.6,60.7a29.586,29.586,0,0,0,5.065-2.552,15.048,15.048,0,0,0,2.969-2.413v5.887c.009.184.1.488.577.509h.01a.475.475,0,0,0,.476-.5s0-5.567,0-6a24.406,24.406,0,0,0,3.812,2.968,22.307,22.307,0,0,0,4.345,2.1,1.1,1.1,0,0,0,.354.067c.18,0,.482-.074.482-.571v-.008c-.017-.235-.2-.4-.526-.5a27.693,27.693,0,0,1-4.369-2.107,29.764,29.764,0,0,1-3.424-2.617h4.473a1.21,1.21,0,0,0,1.343-1.364v-4.7a1.21,1.21,0,0,0-1.343-1.364H172.7v-1.4h8.062a.491.491,0,0,0,.47-.5v-.011a.466.466,0,0,0-.476-.484H172.7V43.823a.477.477,0,0,0-.476-.509h-.01c-.457.021-.566.285-.577.5,0,0,0,1.15,0,1.327H163.9a.467.467,0,0,0-.482.484v.011a.491.491,0,0,0,.471.5h7.741v1.4h-5.067a1.21,1.21,0,0,0-1.343,1.364v4.7a1.21,1.21,0,0,0,1.343,1.364h4.5a18.368,18.368,0,0,1-2.973,2.271,32.339,32.339,0,0,1-5.013,2.454.539.539,0,0,0-.329.7.5.5,0,0,0,.438.374,1.166,1.166,0,0,0,.406-.068m9.1-9.984V48.544h4.986c.36,0,.52.163.52.528v1.647Zm4.986,3.256H172.7V51.718H178.2v1.728c0,.365-.16.528-.52.528m-6.05-5.43v2.175h-5.426V49.072c0-.365.16-.528.52-.528Zm0,3.174v2.257h-4.906c-.359,0-.52-.163-.52-.528V51.718Z" transform="translate(-162.723 -43.173)" fill="#1a1311"/><path d="M272.149,45.42a.479.479,0,0,0-.5-.5h-8.116v-1.3a.535.535,0,0,0-.557-.562h-.009a.537.537,0,0,0-.577.557v1.3h-7.871a.481.481,0,0,0-.5.5v.011a.5.5,0,0,0,.491.5h17.147a.49.49,0,0,0,.491-.5V45.42Z" transform="translate(-233.259 -42.981)" fill="#1a1311"/><path d="M265.077,75.019c-.212.011-.46.147-.482.616-.007.232.224.427.449.492a11.2,11.2,0,0,0,3.1.577c.944,0,1.423-.56,1.423-1.663V68.817h4.907a1.474,1.474,0,0,0,1.664-1.663V64.189a1.484,1.484,0,0,0-1.664-1.683H263.354a1.483,1.483,0,0,0-1.663,1.683v2.965a1.474,1.474,0,0,0,1.663,1.663H268.5V74.96a.593.593,0,0,1-.68.68,6.976,6.976,0,0,1-2.386-.57,1,1,0,0,0-.358-.052m-1.563-7.185a.663.663,0,0,1-.76-.76V64.25a.663.663,0,0,1,.76-.76h10.8a.663.663,0,0,1,.76.76v2.824a.663.663,0,0,1-.76.76Z" transform="translate(-239.195 -57.763)" fill="#1a1311"/><path d="M259.31,95.437c-.044-.409-.305-.474-.444-.471a.581.581,0,0,0-.511.249,12.786,12.786,0,0,1-1.549,2.471,15.142,15.142,0,0,1-2.152,2.232.728.728,0,0,0-.275.537v.012a.55.55,0,0,0,.479.487.75.75,0,0,0,.53-.158,16.5,16.5,0,0,0,2.235-2.322,13.488,13.488,0,0,0,1.6-2.566.819.819,0,0,0,.082-.472" transform="translate(-233.566 -82.933)" fill="#1a1311"/><path d="M316.3,100.736a.5.5,0,0,1-.469.49.577.577,0,0,1-.5-.205,27.718,27.718,0,0,0-1.8-2.454c-.556-.661-1.288-1.434-2.176-2.3a.6.6,0,0,1-.188-.5.578.578,0,0,1,.48-.455.631.631,0,0,1,.47.167c.894.867,1.631,1.645,2.19,2.311a24.877,24.877,0,0,1,1.89,2.574.568.568,0,0,1,.1.367" transform="translate(-277.456 -83.202)" fill="#1a1311"/><path d="M538.6,62.563a.556.556,0,0,0,.573-.565h0a.554.554,0,0,0-.291-.5,16.761,16.761,0,0,1-5.117-4.408,18.149,18.149,0,0,1-2.591-4.555,8.413,8.413,0,0,1-.694-3.015h7.81a.467.467,0,0,0,.482-.484v-.01c-.02-.463-.27-.575-.476-.586h-7.816V44.645a.575.575,0,0,0-.552-.581h-.019a.581.581,0,0,0-.572.581v3.794h-7.57c-.212.012-.462.123-.482.587v.01a.465.465,0,0,0,.476.484h7.576a8.871,8.871,0,0,1-.654,3.015,16.719,16.719,0,0,1-2.471,4.554,17.715,17.715,0,0,1-5.039,4.411.681.681,0,0,0-.368.565.521.521,0,0,0,.581.5.909.909,0,0,0,.373-.1,19.479,19.479,0,0,0,4.168-3.356,16.417,16.417,0,0,0,2.438-3.358,17.978,17.978,0,0,0,1.553-3.721,17.145,17.145,0,0,0,1.737,3.847,16.081,16.081,0,0,0,2.7,3.56,22.93,22.93,0,0,0,3.823,3.027.786.786,0,0,0,.424.1" transform="translate(-439.371 -43.754)" fill="#1a1311"/><path d="M617.827,46.4a12.236,12.236,0,0,1,.894,1.132c.236.341.484.743.736,1.194l.005.009.007.008a.6.6,0,0,0,.477.195h.012a.5.5,0,0,0,.469-.49v-.011a.777.777,0,0,0-.091-.346,13.022,13.022,0,0,0-.789-1.295c-.255-.336-.573-.722-.948-1.15a.6.6,0,0,0-.481-.192.614.614,0,0,0-.474.453.729.729,0,0,0,.182.493" transform="translate(-514.208 -44.829)" fill="#1a1311"/><path d="M643.73,47.287a.457.457,0,0,1-.492.387.567.567,0,0,1-.485-.286l0,0,0,0A11.937,11.937,0,0,0,641.12,44.9a.615.615,0,0,1-.106-.38.509.509,0,0,1,.49-.49.627.627,0,0,1,.466.192,12.76,12.76,0,0,1,1.691,2.6.864.864,0,0,1,.068.469" transform="translate(-532.332 -43.726)" fill="#1a1311"/><path d="M627.392,44.329a10.945,10.945,0,0,1-1.1,1.965c-.256.373-.545.742-.851,1.1h2.229a1.474,1.474,0,0,1,1.664,1.663v2.8c0,.188-.073.5-.562.5a.453.453,0,0,1-.5-.5v-2.8a.593.593,0,0,0-.68-.68H613.51a.593.593,0,0,0-.68.68v2.8c0,.188-.076.5-.582.5a.444.444,0,0,1-.482-.5v-2.8A1.474,1.474,0,0,1,613.43,47.4h10.606l.038-.05a10.913,10.913,0,0,0,1.45-1.788A11.16,11.16,0,0,0,626.53,43.6a.527.527,0,0,1,.528-.286c.194.018.4.107.436.491a1.054,1.054,0,0,1-.1.526" transform="translate(-509.656 -43.172)" fill="#1a1311"/><path d="M618.516,79.5a5.48,5.48,0,0,1,.991.94h-9.023a.472.472,0,0,0-.5.476v.011a.479.479,0,0,0,.5.5h9.675a3.416,3.416,0,0,1,.4,1.541,2.147,2.147,0,0,1-.665,1.745,3.264,3.264,0,0,1-2.059.578,11.564,11.564,0,0,1-3.216-.577,1.522,1.522,0,0,0-.31-.045.519.519,0,0,0-.561.558.569.569,0,0,0,.387.5,13.048,13.048,0,0,0,3.459.627,4.97,4.97,0,0,0,3.067-.822,3.171,3.171,0,0,0,1.041-2.564,3.747,3.747,0,0,0-.329-1.541h6.4a.481.481,0,0,0,.5-.5v-.011a.471.471,0,0,0-.5-.476h-6.944A6.72,6.72,0,0,0,619.5,79a.283.283,0,0,1,.187-.273,22.264,22.264,0,0,0,3.926-1.845,1.375,1.375,0,0,0,.587-1.123h0c0-.369-.181-.8-1.042-.8H613.6a.47.47,0,0,0-.471.5.447.447,0,0,0,.476.481H622.9v0a30.543,30.543,0,0,1-4.119,1.965,1.018,1.018,0,0,0-.564,1.05.823.823,0,0,0,.3.546" transform="translate(-508.272 -67.412)" fill="#1a1311"/><path d="M464.055,43.688c.178.013.44.152.415.591a1.052,1.052,0,0,1-.07.288,13.745,13.745,0,0,1-1.722,2.865h3.258a.475.475,0,0,1,.476.5v.011a.467.467,0,0,1-.482.484H460.7v3.7h4.751a.474.474,0,0,1,.5.484v.011a.5.5,0,0,1-.491.5H460.7v3.844H466.4a.474.474,0,0,1,.5.484v.011a.484.484,0,0,1-.5.5H460.7c0,.195,0,3.86,0,3.86a.475.475,0,0,1-.476.5h-.01c-.481-.021-.568-.325-.577-.509V57.974H453.8a.474.474,0,0,1-.476-.5v-.011a.467.467,0,0,1,.482-.484h5.838V53.132h-4.507a.5.5,0,0,1-.491-.5v-.011a.476.476,0,0,1,.5-.484h4.5v-3.7H454.5a.465.465,0,0,1-.476-.484v-.011a.476.476,0,0,1,.482-.5h2.848a12.43,12.43,0,0,0-1.882-2.6.6.6,0,0,1-.125-.405.513.513,0,0,1,.49-.5h.011a.667.667,0,0,1,.451.192,15.536,15.536,0,0,1,2.141,3.035l.149.272h2.587a3.826,3.826,0,0,0,.294-.29h0a13.946,13.946,0,0,0,1.948-2.99.656.656,0,0,1,.638-.464" transform="translate(-387.272 -43.463)" fill="#1a1311"/><path d="M436.444,44.222a18.62,18.62,0,0,1,1.428,1.348,15.284,15.284,0,0,1,1.25,1.492.48.48,0,0,1,.1.382.5.5,0,0,1-.487.4h-.012a.484.484,0,0,1-.4-.2,13.108,13.108,0,0,0-1.154-1.393,18.686,18.686,0,0,0-1.414-1.334.6.6,0,0,1-.173-.48.509.509,0,0,1,.448-.393.565.565,0,0,1,.418.18" transform="translate(-373.622 -43.736)" fill="#1a1311"/><path d="M436.509,68.821a.444.444,0,0,1-.48.387.482.482,0,0,1-.4-.2,18.119,18.119,0,0,0-1.236-1.435,14.959,14.959,0,0,0-1.492-1.352.483.483,0,0,1,.285-.879.583.583,0,0,1,.424.179c.613.52,1.1.971,1.489,1.371a14.373,14.373,0,0,1,1.311,1.533.569.569,0,0,1,.1.4" transform="translate(-371.397 -60.153)" fill="#1a1311"/><path d="M432.971,99.75a12.861,12.861,0,0,0,1.677-2.423,26.358,26.358,0,0,0,1.709-3.982,1.258,1.258,0,0,0,.085-.4.491.491,0,0,0-.5-.491.443.443,0,0,0-.421.308,21.87,21.87,0,0,1-1.474,3.488A16.264,16.264,0,0,1,432.178,99a.565.565,0,0,0-.083.377.542.542,0,0,0,.876.377" transform="translate(-370.927 -80.982)" fill="#1a1311"/></g><g transform="translate(254.404 37.785)"><path d="M170.889,3.974H166.4a.586.586,0,0,0-.649.649V9.082a.586.586,0,0,0,.649.649h4.485a.586.586,0,0,0,.649-.649V4.623a.586.586,0,0,0-.649-.649m.1,5.055c0,.133-.042.175-.175.175h-4.334c-.128,0-.169-.043-.169-.175V4.676c0-.133.041-.175.169-.175h4.334c.133,0,.175.042.175.175Z" transform="translate(-165.755 -3.707)" fill="#1a1311"/><path d="M173.38,11.436h-.1a.25.25,0,0,0,.039-.1v-.019a.368.368,0,0,0-.04-.165l0-.007,0-.007a4.045,4.045,0,0,0-.271-.378l-.026-.031a3.1,3.1,0,0,0-.268-.292.281.281,0,0,0-.2-.091H172.5l-.012,0a.286.286,0,0,0-.237.2l-.006.019v.02a.376.376,0,0,0,.076.207l.009.013.011.011a2.52,2.52,0,0,1,.261.279l.011.013c.079.1.133.184.223.318l.009.013h-1.051V10.188h1.332a.262.262,0,0,0,.252-.258V9.914a.255.255,0,0,0-.26-.252h-1.325V8.612h1.431a.26.26,0,0,0,.258-.245l0-.015,0-.015a.263.263,0,0,0-.258-.252h-3.363a.259.259,0,0,0-.259.26v.015a.256.256,0,0,0,.26.253h1.378v1.05h-1.2a.252.252,0,0,0-.253.252v.015a.259.259,0,0,0,.245.258h1.208v1.248h-1.51a.256.256,0,0,0-.253.259v.015a.253.253,0,0,0,.253.253h3.653a.253.253,0,0,0,.252-.253V11.7a.255.255,0,0,0-.252-.259" transform="translate(-168.639 -6.895)" fill="#1a1311"/><path d="M196.139,4.261h5.325a.259.259,0,0,0,.259-.245l0-.014,0-.015a.262.262,0,0,0-.259-.252h-2.372V3.17a.269.269,0,0,0-.281-.26H198.8a.259.259,0,0,0-.26.26v.565h-2.4a.256.256,0,0,0-.252.259v.014a.253.253,0,0,0,.252.253" transform="translate(-189.119 -2.882)" fill="#1a1311"/><path d="M200.277,10.369h-.026a.269.269,0,0,0-.251.251v.093l.009.023a8.157,8.157,0,0,1,.376,1.226,10.859,10.859,0,0,1,.235,1.523.259.259,0,0,0,.252.246h.022a.252.252,0,0,0,.252-.252v-.008a7.713,7.713,0,0,0-.087-.83,9.084,9.084,0,0,0-.569-2.109.241.241,0,0,0-.212-.163" transform="translate(-192.308 -8.665)" fill="#1a1311"/><path d="M201.263,13.951a.269.269,0,0,0-.26-.287h-1.756a14.276,14.276,0,0,0,.528-1.633c.167-.69.294-1.292.378-1.792l0-.014v-.014a.279.279,0,0,0-.287-.28h-.006a.252.252,0,0,0-.259.246,18.56,18.56,0,0,1-.412,1.906,16.505,16.505,0,0,1-.517,1.581h-3.35a.269.269,0,0,0-.26.287v.013a.256.256,0,0,0,.26.252H201a.256.256,0,0,0,.26-.252v-.013Z" transform="translate(-188.481 -8.326)" fill="#1a1311"/><path d="M231.29,8.7a5.406,5.406,0,0,1-1.653-1.4,5.781,5.781,0,0,1-.841-1.453,2.77,2.77,0,0,1-.215-.84h2.471a.253.253,0,0,0,.252-.252V4.739a.265.265,0,0,0-.252-.287h-2.479V3.314a.289.289,0,0,0-.273-.28h-.025a.292.292,0,0,0-.28.28V4.452h-2.4a.265.265,0,0,0-.252.287v.013A.253.253,0,0,0,225.6,5h2.392a2.885,2.885,0,0,1-.2.839,5.305,5.305,0,0,1-.8,1.452,5.716,5.716,0,0,1-1.632,1.4.346.346,0,0,0-.168.247l0,.016V8.98a.272.272,0,0,0,.293.253.425.425,0,0,0,.155-.036l.011,0,.009-.006a6.5,6.5,0,0,0,1.394-1.105,5.438,5.438,0,0,0,.817-1.108,5.973,5.973,0,0,0,.425-.937,6.219,6.219,0,0,0,.479.975,5.316,5.316,0,0,0,.906,1.178,7.615,7.615,0,0,0,1.277,1l.006,0,.006,0a.4.4,0,0,0,.179.04h.011a.282.282,0,0,0,.281-.279V8.947a.278.278,0,0,0-.147-.249" transform="translate(-211.836 -2.977)" fill="#1a1311"/><path d="M241.148,20.752l0-.006,0,.006" transform="translate(-224.212 -16.712)" fill="#1a1311"/><path d="M260.9,2.922a3.8,3.8,0,0,1-.33.65,3.523,3.523,0,0,1-.452.56h-.878a.247.247,0,0,0,.039-.1.336.336,0,0,0-.035-.227,4.118,4.118,0,0,0-.566-.866l0,0-.005,0a.321.321,0,0,0-.215-.087h-.015a.269.269,0,0,0-.251.251.329.329,0,0,0,.067.211,3.771,3.771,0,0,1,.515.789l0,.006,0,.006a.3.3,0,0,0,.021.028h-1.242a.34.34,0,0,0,.022-.088V4.029a.358.358,0,0,0-.04-.159,4.345,4.345,0,0,0-.268-.44q-.131-.172-.319-.387l-.006-.007-.007-.006a.318.318,0,0,0-.215-.086h-.016l-.016,0a.3.3,0,0,0-.23.221l0,.017V3.2a.362.362,0,0,0,.078.211l0,0,0,0a3.951,3.951,0,0,1,.287.363c.069.1.141.216.214.344h-.373a.586.586,0,0,0-.649.649V5.7a.247.247,0,0,0,.26.267.26.26,0,0,0,.293-.267V4.781c0-.1.025-.122.123-.122h4.637c.1,0,.122.025.122.122V5.7a.25.25,0,0,0,.267.267.257.257,0,0,0,.286-.267V4.781a.586.586,0,0,0-.649-.649h-.52c.053-.068.1-.136.15-.2a4.276,4.276,0,0,0,.395-.715.5.5,0,0,0,.011-.174.249.249,0,0,0-.23-.252.271.271,0,0,0-.266.136" transform="translate(-235.749 -2.786)" fill="#1a1311"/><path d="M261.661,15.065a.256.256,0,0,0-.259-.253h-2.24a2.278,2.278,0,0,0-.348-.385,7.245,7.245,0,0,0,1.269-.6l0,0,0,0a.556.556,0,0,0,.233-.447h0c0-.114-.043-.37-.444-.37h-3.161a.255.255,0,0,0-.246.266.247.247,0,0,0,.252.26H259.4c-.288.149-.62.3-1,.452a.427.427,0,0,0-.249.448v.012l0,.012a.411.411,0,0,0,.123.216l.007.007.008.006a1.857,1.857,0,0,1,.149.126h-2.74a.256.256,0,0,0-.26.253v.014a.259.259,0,0,0,.259.26h3.127a.985.985,0,0,1,.1.406.6.6,0,0,1-.182.5.978.978,0,0,1-.613.167,3.707,3.707,0,0,1-1.03-.185l-.01,0h0l-.118-.016a.271.271,0,0,0-.286.281V16.5l0,.012a.286.286,0,0,0,.193.241l0,0h0a4.336,4.336,0,0,0,1.166.21,1.733,1.733,0,0,0,1.071-.292,1.141,1.141,0,0,0,.383-.925,1.347,1.347,0,0,0-.063-.406H261.4a.259.259,0,0,0,.259-.26v-.014Z" transform="translate(-235.292 -10.71)" fill="#1a1311"/><path d="M287.1,3.4l.015.013a5.873,5.873,0,0,1,.458.431,4.223,4.223,0,0,1,.373.449.261.261,0,0,0,.215.108h.015a.267.267,0,0,0,.248-.21l0-.014V4.157A.355.355,0,0,0,288.389,4l-.005-.011-.007-.009a5.169,5.169,0,0,0-.42-.5,6.255,6.255,0,0,0-.477-.45l.007.007a.279.279,0,0,0-.2-.092h-.013l-.012,0a.27.27,0,0,0-.232.208l0,.015v.015a.371.371,0,0,0,.067.2Z" transform="translate(-259.788 -2.906)" fill="#1a1311"/><path d="M286.175,10.416l.014.011a4.822,4.822,0,0,1,.481.436,5.837,5.837,0,0,1,.4.466.26.26,0,0,0,.212.1h.008a.248.248,0,0,0,.251-.214V11.2a.37.37,0,0,0-.04-.165l-.005-.011-.007-.01a4.932,4.932,0,0,0-.441-.516c-.128-.132-.3-.288-.5-.462a.29.29,0,0,0-.193-.079h-.013l-.012,0a.285.285,0,0,0-.234.189l-.007.02v.022a.363.363,0,0,0,.078.211Z" transform="translate(-259.059 -8.345)" fill="#1a1311"/><path d="M287.514,19.134a.263.263,0,0,0-.258-.252h-.015l-.014,0a.261.261,0,0,0-.209.161l0,.006a7.114,7.114,0,0,1-.477,1.131,5.26,5.26,0,0,1-.606.891l-.014.017-.008.021a.412.412,0,0,0-.029.148v.016a.273.273,0,0,0,.235.249l.012,0h.012a.343.343,0,0,0,.172-.044l.019-.011.015-.016a4.334,4.334,0,0,0,.565-.817,8.752,8.752,0,0,0,.57-1.327l0-.007.032-.144Z" transform="translate(-258.899 -15.266)" fill="#1a1311"/><path d="M297.657,5.677a.258.258,0,0,0-.26-.259h-1.778V4.189h1.521a.257.257,0,0,0,.26-.252V3.921a.259.259,0,0,0-.26-.259h-1.521V3.045a.268.268,0,0,0-.28-.26h-.013a.259.259,0,0,0-.259.26v.618H293.7a.259.259,0,0,0-.26.26v.014a.256.256,0,0,0,.26.252h1.364V5.417h-1.584a.258.258,0,0,0-.259.259v.015a.256.256,0,0,0,.259.253h1.232l-.964,2.32-.389.016h-.011a.272.272,0,0,0-.243.241l0,.02,0,.019a.274.274,0,0,0,.249.244h.021c1.281-.047,2.455-.139,3.495-.271l.139.374.009.015a.284.284,0,0,0,.244.14h.016a.256.256,0,0,0,.243-.221V8.7l-.008-.023a11.864,11.864,0,0,0-.937-2.064l-.012-.018-.017-.014a.343.343,0,0,0-.216-.082h-.015a.259.259,0,0,0-.245.259v.007a.418.418,0,0,0,.036.149l0,.012.007.011a7.723,7.723,0,0,1,.552,1.094c-.748.093-1.522.161-2.309.2l.951-2.291H297.4a.256.256,0,0,0,.26-.253V5.677Z" transform="translate(-264.502 -2.785)" fill="#1a1311"/><path d="M322.027,8.647l.011.006a5.458,5.458,0,0,1-1.655-1.472,6.078,6.078,0,0,1-.842-1.519,2.814,2.814,0,0,1-.223-.99V3.16a.279.279,0,0,0-.273-.251h-.014l-.014,0a.27.27,0,0,0-.251.251V4.672a2.888,2.888,0,0,1-.216.988,5.512,5.512,0,0,1-.807,1.518A5.84,5.84,0,0,1,316.1,8.654l.013-.007a.3.3,0,0,0-.179.224l0,.018,0,.018a.271.271,0,0,0,.292.253.376.376,0,0,0,.166-.047l.006,0,.005,0a6.43,6.43,0,0,0,1.394-1.125,5.593,5.593,0,0,0,.817-1.135,5.971,5.971,0,0,0,.427-.957,6.712,6.712,0,0,0,.486,1.007,5.5,5.5,0,0,0,.909,1.2,7.809,7.809,0,0,0,1.292,1.01.353.353,0,0,0,.191.054h.014a.276.276,0,0,0,.253-.286.244.244,0,0,0-.154-.226" transform="translate(-282.198 -2.88)" fill="#1a1311"/></g></g><g transform="translate(-138 -40)"><path d="M95.046,100.014c10.052,1.382,17.835,1.292,29.284-2.585C88.961,95.416,79.42,78.648,82.244,71.36c2.659-5.92,13,1.4,15.671,6.686C97.8,62.06,76.49,44.06,64.635,56.771c-7.317,7.993-6.551,36.962,30.4,43.243Z" transform="translate(109 166)" fill="#085b9d"/><path d="M100.95,92.139h37.2c-16.919-3.275-19.2-10.683-20.48-14.169-11-30.922-34.8-44.565-39.5-44.97,12.065,10.4,23.68,35.79,22.793,59.139Z" transform="translate(109 166)" fill="#085b9d"/></g></g></svg>